<?xml version="1.0" encoding="utf-8"?>
<!-- Generator: Adobe Illustrator 17.0.0, SVG Export Plug-In . SVG Version: 6.00 Build 0)  -->
<!DOCTYPE svg PUBLIC "-//W3C//DTD SVG 1.1//EN" "http://www.w3.org/Graphics/SVG/1.1/DTD/svg11.dtd">
<svg version="1.1" id="group" xmlns="http://www.w3.org/2000/svg" xmlns:xlink="http://www.w3.org/1999/xlink" x="0px" y="0px"
	 width="481.89px" height="637.795px" viewBox="0 0 481.89 637.795" enable-background="new 0 0 481.89 637.795"
	 xml:space="preserve">
	 
<g id="bear1" display="none">
	<path display="inline" fill="#273543" d="M219.458,66.262c-0.205,0.074-0.312,0.298-0.238,0.503l3.034,8.469
		c0.067,0.186,0.258,0.29,0.445,0.254c0.02-0.004,0.039-0.009,0.058-0.016c0.205-0.074,0.312-0.298,0.238-0.503l-3.033-8.469
		C219.887,66.295,219.662,66.192,219.458,66.262z"/>
	<path display="inline" fill="#273543" d="M223.881,66.262c-0.078-0.203-0.314-0.307-0.508-0.226
		c-0.202,0.078-0.304,0.306-0.226,0.508l3.238,8.394c0.069,0.181,0.258,0.281,0.442,0.245c0.022-0.004,0.045-0.01,0.067-0.019
		c0.202-0.078,0.304-0.306,0.226-0.508L223.881,66.262z"/>
	
		<linearGradient id="SVGID_1_" gradientUnits="userSpaceOnUse" x1="-301.2434" y1="837.6251" x2="-299.0124" y2="843.7545" gradientTransform="matrix(1 0 0 -1 539.04 881.1949)">
		<stop  offset="0" style="stop-color:#273543"/>
		<stop  offset="0.2551" style="stop-color:#2A3947"/>
		<stop  offset="0.5082" style="stop-color:#344353"/>
		<stop  offset="0.7599" style="stop-color:#445567"/>
		<stop  offset="0.8333" style="stop-color:#4A5C6E"/>
		<stop  offset="0.8531" style="stop-color:#4E6073"/>
		<stop  offset="0.9294" style="stop-color:#586D80"/>
		<stop  offset="1" style="stop-color:#5C7184"/>
	</linearGradient>
	<path display="inline" fill="url(#SVGID_1_)" d="M237.081,36.368c0,0,0.212,2.221,0.212,3.49s-0.106,3.49-0.106,3.49
		s1.269-2.115,2.856-2.856c1.586-0.74,2.75-1.481,2.75-1.481s-2.433-1.269-3.067-1.481C239.091,37.32,237.081,36.368,237.081,36.368
		z"/>
	
		<radialGradient id="SVGID_2_" cx="-332.1669" cy="830.6047" r="26.3012" gradientTransform="matrix(1 0 0 -1 539.04 881.1949)" gradientUnits="userSpaceOnUse">
		<stop  offset="0" style="stop-color:#E4E1B2"/>
		<stop  offset="0.184" style="stop-color:#D7D39A"/>
		<stop  offset="0.3679" style="stop-color:#CEC98A"/>
		<stop  offset="0.5077" style="stop-color:#CBC684"/>
		<stop  offset="0.7957" style="stop-color:#DCD8A2"/>
		<stop  offset="1" style="stop-color:#E5E2B3"/>
	</radialGradient>
	<path display="inline" fill="url(#SVGID_2_)" d="M175.489,65.653c0,0,6.71,1.71,14.209,2.5c7.499,0.789,14.736,2.237,21.84,2.368
		c7.105,0.132,17.367,0.132,21.446-5.526c4.079-5.657,5.131-18.683,5.263-22.498s-0.921-10.789-7.763-11.71
		s-11.052,2.237-13.946,6.71c-2.895,4.473-7.631,15.525-11.183,20.656s-3.815,6.973-6.842,6.842
		c-3.026-0.132-10.657-3.158-12.631-3.815s-2.631-1.184-2.631-1.184s-2.763,1.447-4.079,2.368S175.489,65.653,175.489,65.653z"/>
	
		<linearGradient id="SVGID_3_" gradientUnits="userSpaceOnUse" x1="-342.3956" y1="821.8457" x2="-301.7438" y2="845.3161" gradientTransform="matrix(1 0 0 -1 539.04 881.1949)">
		<stop  offset="0" style="stop-color:#6C5F51"/>
		<stop  offset="0.259" style="stop-color:#716455"/>
		<stop  offset="0.5869" style="stop-color:#817160"/>
		<stop  offset="0.782" style="stop-color:#8E7C69"/>
		<stop  offset="0.9204" style="stop-color:#907E6A"/>
		<stop  offset="0.9701" style="stop-color:#97836F"/>
		<stop  offset="1" style="stop-color:#A08B75"/>
	</linearGradient>
	<path display="inline" fill="url(#SVGID_3_)" d="M219.696,58.776c11.578-7.631,9.736-13.288,9.078-15.262s-0.526-4.342,2.105-7.105
		c2.951-2.257,5.312-1.157,6.472-0.172c-1.014-2.677-3.188-5.104-6.999-5.617c-6.842-0.921-11.052,2.237-13.946,6.71
		s-7.631,15.525-11.183,20.656c-2.933,4.237-3.642,6.207-5.498,6.699C202.378,64.923,210.3,64.97,219.696,58.776z"/>
	<circle display="inline" fill="#273543" cx="233.116" cy="38.944" r="0.892"/>
	
		<linearGradient id="SVGID_4_" gradientUnits="userSpaceOnUse" x1="-346.6367" y1="813.8859" x2="-309.0034" y2="835.6135" gradientTransform="matrix(1 0 0 -1 539.04 881.1949)">
		<stop  offset="0" style="stop-color:#6C5F51"/>
		<stop  offset="0.3689" style="stop-color:#7A6B5B"/>
		<stop  offset="0.782" style="stop-color:#8E7C69"/>
		<stop  offset="0.9175" style="stop-color:#907E6A"/>
		<stop  offset="0.9662" style="stop-color:#97836D"/>
		<stop  offset="1" style="stop-color:#A28D73"/>
	</linearGradient>
	<path display="inline" fill="url(#SVGID_4_)" d="M195.734,73.078c0,0,16.204-4.442,21.605-7.716
		c5.401-3.273,11.621-7.856,12.766-13.421s-0.491-9.002-5.074-11.13c-4.583-2.128-9.166-0.327-11.948,2.782
		s-5.728,7.693-8.838,13.585S195.734,73.078,195.734,73.078z"/>
	
		<linearGradient id="SVGID_5_" gradientUnits="userSpaceOnUse" x1="-281.6519" y1="608.4182" x2="-272.824" y2="659.9239" gradientTransform="matrix(0.9649 -0.2627 -0.2627 -0.9649 606.2602 625.2657)">
		<stop  offset="0" style="stop-color:#643720"/>
		<stop  offset="0.5294" style="stop-color:#875637"/>
		<stop  offset="1" style="stop-color:#A16D48"/>
	</linearGradient>
	<path display="inline" fill="url(#SVGID_5_)" d="M179.05,111.507L179.05,111.507c-9.68,2.635-19.756-3.129-22.391-12.809
		l-4.205-15.445c-2.635-9.68,3.129-19.756,12.809-22.391l0,0c9.68-2.635,19.756,3.129,22.391,12.809l4.205,15.445
		C194.494,98.795,188.73,108.872,179.05,111.507z"/>
	<path display="inline" fill="#5D311B" d="M176.06,100.923L176.06,100.923c-5.702,1.552-11.637-1.843-13.189-7.545l-2.477-9.098
		c-1.552-5.702,1.843-11.637,7.545-13.189l0,0c5.702-1.552,11.637,1.843,13.189,7.545l2.477,9.098
		C185.157,93.435,181.762,99.37,176.06,100.923z"/>
	
		<linearGradient id="SVGID_6_" gradientUnits="userSpaceOnUse" x1="-451.686" y1="962.1444" x2="-442.9237" y2="1013.2667" gradientTransform="matrix(0.9408 0.3389 0.3389 -0.9408 360.5054 1163.9449)">
		<stop  offset="0" style="stop-color:#643720"/>
		<stop  offset="0.5294" style="stop-color:#875637"/>
		<stop  offset="1" style="stop-color:#A16D48"/>
	</linearGradient>
	<path display="inline" fill="url(#SVGID_6_)" d="M265.587,107.626L265.587,107.626c-9.368-3.374-14.271-13.8-10.897-23.168
		l5.384-14.947c3.374-9.368,13.8-14.271,23.168-10.897l0,0c9.368,3.374,14.271,13.8,10.897,23.168l-5.384,14.947
		C285.38,106.097,274.954,111.001,265.587,107.626z"/>
	<path display="inline" fill="#5D311B" d="M269.188,97.322L269.188,97.322c-5.518-1.988-8.406-8.129-6.419-13.647l3.171-8.804
		c1.988-5.518,8.129-8.406,13.647-6.419l0,0c5.518,1.988,8.406,8.129,6.419,13.647l-3.171,8.804
		C280.847,96.421,274.706,99.31,269.188,97.322z"/>
	<path display="inline" fill="#663921" d="M396.953,99.533c-7.289-9.243-14.652-10.356-19.163-8.969
		c-5.907,1.818-9.841,12.343-11.922,13.734c-0.314,0.209-0.615,0.423-0.923,0.632c-0.408-4.648-1.773-10.269-6.127-10.328
		c-5.521-0.076-10.076,20.976-12.044,31.739c-0.319,0.657-0.635,1.233-0.956,1.935c-6.588,14.418-17.928,35.032-33.939,43.749
		c-19.298,10.507-29.623,25.154-29.569,36.857c0.055,11.89,10.106,24.893,24.114,25.227c15.087,0.36,31.507-13.219,41.133-20.591
		c20.381-15.609,39.252-43.934,45.305-58.511C400.673,136.194,407.159,112.477,396.953,99.533z"/>
	<path display="inline" fill="#AA7D62" d="M369.225,112.153c-0.903-0.039-1.833-0.075-2.684,0.229
		c-2.519,0.9-3.147,4.146-3.115,6.821c0.059,5.031,1.502,10.732,5.966,13.053c6.493,3.377,13.815-2.903,14.483-9.506
		C384.69,114.693,375.491,112.427,369.225,112.153z"/>
	<path display="inline" fill="#663921" d="M242.122,432.529c0,0,1.63,42.315,7.167,78.841c6.434,42.44,3.18,58.687,48.559,62.986
		c19.185,1.817,34.083,1.118,49.393-0.135c15.715-1.286,18.967-20.248,9.496-26.936c-5.561-3.927-10.662-8.564-12.053-13.665
		c-2.953-10.829-0.242-41.737-0.242-66.394c0-18.506,1.207-52.61,1.207-64.264C345.65,337.109,235.757,347.595,242.122,432.529z"/>
	
		<linearGradient id="XMLID_37_" gradientUnits="userSpaceOnUse" x1="-441.8219" y1="544.3703" x2="-182.4926" y2="544.3703" gradientTransform="matrix(1 0 0 -1 539.04 881.1949)">
		<stop  offset="0" style="stop-color:#5E321C"/>
		<stop  offset="0.0724" style="stop-color:#704228"/>
		<stop  offset="0.1613" style="stop-color:#7E4E31"/>
		<stop  offset="0.2725" style="stop-color:#865536"/>
		<stop  offset="0.4744" style="stop-color:#885738"/>
		<stop  offset="0.7114" style="stop-color:#8A593A"/>
		<stop  offset="0.8433" style="stop-color:#92603F"/>
		<stop  offset="0.949" style="stop-color:#A06C48"/>
		<stop  offset="1" style="stop-color:#AA754E"/>
	</linearGradient>
	<path id="XMLID_20_" display="inline" fill="url(#XMLID_37_)" d="M224.688,469.743c5.454,0.219,11.087,0.343,16.93,0.343
		c93.726,0,118.001-84.29,114.63-151.047c-2.982-59.041-13.459-95.324-33.042-125.578c-14.321-22.125-21.256-21.63-26.299-42.412
		c-1.882-7.756-3.758-81.066-67.645-76.235c-63.887,4.832-76.235,37.58-81.067,53.686s-3.395,36.904-19.864,60.666
		C90.751,243.389,97.73,292.127,97.73,371.163c0,4.837,0.184,10.547,0.475,16.563c0.749,15.469,5.955,29.892,14.46,41.907
		c5.438,7.682,8.722,16.631,9.379,26.02c0.011,0.159,0.023,0.319,0.035,0.479c0,0,1.63,42.315,7.167,78.841
		c6.434,42.44,3.18,58.687,48.56,62.986c19.185,1.817,34.083,1.119,49.393-0.135c15.715-1.286,18.967-20.248,9.496-26.937
		c-5.561-3.927-10.662-8.564-12.053-13.665c-2.953-10.829-0.242-41.737-0.242-66.394
		C224.401,484.961,224.523,477.529,224.688,469.743z"/>
	<path id="XMLID_19_" display="inline" fill="#AA7D61" d="M235.974,167.691L235.974,167.691c-11.073,0-20.132-9.06-20.132-20.132
		v-14.495c0-11.073,9.06-20.132,20.132-20.132l0,0c11.073,0,20.132,9.06,20.132,20.132v14.495
		C256.106,158.631,247.046,167.691,235.974,167.691z"/>
	<path id="XMLID_18_" display="inline" fill="#412F25" d="M239.374,126.953h-6.979c-3.986,0-7.248-3.261-7.248-7.248l0,0
		c0-3.986,3.261-7.248,7.248-7.248h6.979c3.986,0,7.248,3.261,7.248,7.248l0,0C246.621,123.691,243.36,126.953,239.374,126.953z"/>
	<circle display="inline" fill="#412F25" cx="193.74" cy="128.962" r="3.898"/>
	<circle display="inline" fill="#412F25" cx="270.964" cy="125.064" r="3.898"/>
	<path id="XMLID_17_" display="inline" fill="#AA7D61" d="M335.002,330.072c0,48.737-14.484,88.245-61.155,88.245
		c-45.598,0-61.155-39.509-61.155-88.245s17.166-88.245,61.155-88.245C315.69,241.826,335.002,281.335,335.002,330.072z"/>
	
		<linearGradient id="XMLID_38_" gradientUnits="userSpaceOnUse" x1="-476.5639" y1="595.2623" x2="-375.8546" y2="595.2623" gradientTransform="matrix(1 0 0 -1 539.04 881.1949)">
		<stop  offset="0" style="stop-color:#5E321C"/>
		<stop  offset="0.0724" style="stop-color:#704228"/>
		<stop  offset="0.1613" style="stop-color:#7E4E31"/>
		<stop  offset="0.2725" style="stop-color:#865536"/>
		<stop  offset="0.4744" style="stop-color:#885738"/>
		<stop  offset="0.7114" style="stop-color:#8A593A"/>
		<stop  offset="0.8433" style="stop-color:#92603F"/>
		<stop  offset="0.949" style="stop-color:#A06C48"/>
		<stop  offset="1" style="stop-color:#AA754E"/>
	</linearGradient>
	<path id="XMLID_16_" display="inline" fill="url(#XMLID_38_)" d="M129.299,199.466c-15.832,4.262-28.771,23.459-36.536,34.1
		c-16.441,22.53-27.402,57.848-29.229,74.898c-2.358,22.006-1.827,48.714,12.787,59.066s29.837,4.871,35.927-2.436
		c6.089-7.307,6.089-26.184,8.525-43.234c2.436-17.05,7.916-42.016,21.921-56.021c16.881-16.881,23.139-35.318,19.486-47.496
		C158.469,205.971,143.999,195.509,129.299,199.466z"/>
	<path display="inline" fill="#663921" d="M73.064,366.152c-0.142,0-0.283-0.05-0.397-0.152c-0.246-0.219-0.268-0.596-0.049-0.843
		c0.637-0.714,1.213-1.462,1.713-2.22c2.216-3.37,3.017-7.227,2.198-10.582c-0.078-0.32,0.118-0.643,0.439-0.721
		c0.321-0.078,0.643,0.118,0.722,0.439c0.898,3.675,0.037,7.874-2.361,11.52c-0.531,0.807-1.143,1.602-1.818,2.36
		C73.392,366.085,73.229,366.152,73.064,366.152z"/>
	<path display="inline" fill="#663921" d="M86.042,372.727c-0.131,0-0.262-0.043-0.373-0.131c-0.258-0.206-0.299-0.582-0.093-0.84
		c3.591-4.482,5.141-10.377,4.148-15.767c-0.06-0.324,0.155-0.636,0.479-0.696c0.324-0.052,0.636,0.155,0.695,0.479
		c1.055,5.728-0.587,11.982-4.391,16.731C86.391,372.65,86.217,372.727,86.042,372.727z"/>
	<path display="inline" fill="#663921" d="M104.796,372.118c-0.047,0-0.094-0.006-0.141-0.016c-0.321-0.078-0.517-0.401-0.44-0.721
		c1.137-4.698,0.29-9.672-2.266-13.307c-0.19-0.271-0.125-0.643,0.145-0.833s0.642-0.124,0.832,0.145
		c2.751,3.913,3.666,9.25,2.449,14.276C105.31,371.935,105.066,372.118,104.796,372.118z"/>
	
		<animate  fill="remove" accumulate="none" restart="always" dur="1s" begin="0s" additive="replace" attributeName="display" calcMode="linear" values="inline;none;none;none; none; none; none; none" id="antonia1" keyTimes="0;0.125;0.25; 0.375; 0.5; 0.625; 0.75; 1" repeatCount="indefinite">
		</animate>
</g>
<g id="layer2" display="none">
	<g display="inline">
		<path fill="#663921" d="M417.149,119.116c-5.161-10.579-12.12-13.23-16.823-12.832c-6.158,0.523-12.236,9.973-14.565,10.891
			c-0.351,0.138-0.691,0.283-1.036,0.422c0.588-4.629,0.447-10.411-3.796-11.393c-5.379-1.246-14.298,18.36-18.506,28.46
			c-0.451,0.574-0.882,1.07-1.345,1.688c-9.498,12.691-24.955,30.428-42.451,35.549c-21.089,6.171-34.287,18.294-36.718,29.741
			c-2.47,11.63,4.592,26.471,18.211,29.77c14.667,3.553,33.595-6.231,44.566-11.392c23.229-10.928,47.682-34.602,56.691-47.562
			C413.003,155.731,424.375,133.931,417.149,119.116z"/>
		<path fill="#AA7D62" d="M387.375,125.564c-0.874-0.23-1.775-0.463-2.672-0.346c-2.653,0.345-3.955,3.384-4.492,6.005
			c-1.01,4.929-0.81,10.806,3.06,14.022c5.628,4.678,14.116,0.095,16.17-6.215C401.948,131.327,393.44,127.161,387.375,125.564z"/>
	</g>
	<g display="inline">
		<g>
			<path fill="#273543" d="M217.367,55.898c-0.214,0.037-0.359,0.239-0.322,0.454l1.517,8.868c0.034,0.195,0.203,0.33,0.394,0.327
				c0.02,0,0.04-0.002,0.06-0.006c0.215-0.037,0.359-0.239,0.322-0.454l-1.517-8.868C217.784,56.005,217.58,55.864,217.367,55.898z"
				/>
			<path fill="#273543" d="M221.723,56.666c-0.042-0.213-0.256-0.357-0.461-0.311c-0.213,0.042-0.353,0.248-0.311,0.461l1.731,8.829
				c0.037,0.19,0.205,0.321,0.392,0.318c0.023,0,0.046-0.002,0.069-0.007c0.213-0.042,0.353-0.248,0.311-0.461L221.723,56.666z"/>
		</g>
		
			<linearGradient id="SVGID_7_" gradientUnits="userSpaceOnUse" x1="-329.3728" y1="983.6728" x2="-327.1416" y2="989.8032" gradientTransform="matrix(0.9848 0.1736 0.1736 -0.9848 392.972 1062.6307)">
			<stop  offset="0" style="stop-color:#273543"/>
			<stop  offset="0.2551" style="stop-color:#2A3947"/>
			<stop  offset="0.5082" style="stop-color:#344353"/>
			<stop  offset="0.7599" style="stop-color:#445567"/>
			<stop  offset="0.8333" style="stop-color:#4A5C6E"/>
			<stop  offset="0.8531" style="stop-color:#4E6073"/>
			<stop  offset="0.9294" style="stop-color:#586D80"/>
			<stop  offset="1" style="stop-color:#5C7184"/>
		</linearGradient>
		<path fill="url(#SVGID_7_)" d="M239.914,29.519c0,0-0.177,2.224-0.398,3.474s-0.71,3.419-0.71,3.419s1.617-1.863,3.308-2.316
			c1.691-0.454,2.965-0.981,2.965-0.981s-2.175-1.672-2.763-1.991C241.728,30.805,239.914,29.519,239.914,29.519z"/>
		
			<radialGradient id="SVGID_8_" cx="-360.3003" cy="976.6486" r="26.3017" gradientTransform="matrix(0.9848 0.1736 0.1736 -0.9848 392.972 1062.6307)" gradientUnits="userSpaceOnUse">
			<stop  offset="0" style="stop-color:#E4E1B2"/>
			<stop  offset="0.184" style="stop-color:#D7D39A"/>
			<stop  offset="0.3679" style="stop-color:#CEC98A"/>
			<stop  offset="0.5077" style="stop-color:#CBC684"/>
			<stop  offset="0.7957" style="stop-color:#DCD8A2"/>
			<stop  offset="1" style="stop-color:#E5E2B3"/>
		</radialGradient>
		<path fill="url(#SVGID_8_)" d="M174.172,47.663c0,0,6.311,2.85,13.559,4.929c7.248,2.08,14.123,4.762,21.097,6.125
			s17.08,3.145,22.079-1.718s8.297-17.508,9.09-21.243c0.792-3.735,0.966-10.785-5.611-12.88s-11.272,0.284-14.9,4.186
			s-10.211,13.964-14.6,18.401c-4.389,4.436-4.968,6.205-7.926,5.55s-9.947-4.96-11.776-5.951s-2.386-1.623-2.386-1.623
			s-2.972,0.945-4.428,1.624S174.172,47.663,174.172,47.663z"/>
		<g>
			
				<linearGradient id="SVGID_9_" gradientUnits="userSpaceOnUse" x1="-370.5286" y1="967.8885" x2="-329.8754" y2="991.3596" gradientTransform="matrix(0.9848 0.1736 0.1736 -0.9848 392.972 1062.6307)">
				<stop  offset="0" style="stop-color:#6C5F51"/>
				<stop  offset="0.259" style="stop-color:#716455"/>
				<stop  offset="0.5869" style="stop-color:#817160"/>
				<stop  offset="0.782" style="stop-color:#8E7C69"/>
				<stop  offset="0.9204" style="stop-color:#907E6A"/>
				<stop  offset="0.9701" style="stop-color:#97836F"/>
				<stop  offset="1" style="stop-color:#A08B75"/>
			</linearGradient>
			<path fill="url(#SVGID_9_)" d="M218.901,48.567c12.727-5.504,11.896-11.396,11.591-13.454c-0.305-2.058,0.236-4.367,3.307-6.631
				c3.298-1.71,5.432-0.217,6.404,0.955c-0.534-2.812-2.253-5.58-5.917-6.747c-6.578-2.095-11.272,0.284-14.9,4.186
				c-3.627,3.903-10.211,13.964-14.6,18.401c-3.625,3.663-4.665,5.48-6.578,5.642C200.779,51.614,208.573,53.035,218.901,48.567z"/>
		</g>
		<circle fill="#273543" cx="235.562" cy="31.367" r="0.892"/>
	</g>
	<g display="inline">
		
			<linearGradient id="SVGID_10_" gradientUnits="userSpaceOnUse" x1="-281.2897" y1="608.3289" x2="-272.4618" y2="659.8346" gradientTransform="matrix(0.9649 -0.2627 -0.2627 -0.9649 606.2602 625.2657)">
			<stop  offset="0" style="stop-color:#643720"/>
			<stop  offset="0.5294" style="stop-color:#875637"/>
			<stop  offset="1" style="stop-color:#A16D48"/>
		</linearGradient>
		<path fill="url(#SVGID_10_)" d="M179.423,111.498L179.423,111.498c-9.68,2.635-19.756-3.129-22.391-12.809l-4.205-15.445
			c-2.635-9.68,3.129-19.756,12.809-22.391l0,0c9.68-2.635,19.756,3.129,22.391,12.809l4.205,15.445
			C194.867,98.787,189.103,108.863,179.423,111.498z"/>
		<path fill="#5D311B" d="M176.433,100.914L176.433,100.914c-5.702,1.552-11.637-1.843-13.189-7.545l-2.477-9.098
			c-1.552-5.702,1.843-11.637,7.545-13.189l0,0c5.702-1.552,11.637,1.843,13.189,7.545l2.477,9.098
			C185.53,93.427,182.135,99.362,176.433,100.914z"/>
	</g>
	<g display="inline">
		
			<linearGradient id="SVGID_11_" gradientUnits="userSpaceOnUse" x1="-451.3378" y1="962.2783" x2="-442.5755" y2="1013.4006" gradientTransform="matrix(0.9408 0.3389 0.3389 -0.9408 360.5054 1163.9449)">
			<stop  offset="0" style="stop-color:#643720"/>
			<stop  offset="0.5294" style="stop-color:#875637"/>
			<stop  offset="1" style="stop-color:#A16D48"/>
		</linearGradient>
		<path fill="url(#SVGID_11_)" d="M265.96,107.618L265.96,107.618c-9.368-3.374-14.271-13.8-10.897-23.168l5.384-14.947
			c3.374-9.368,13.8-14.271,23.168-10.897l0,0c9.368,3.374,14.271,13.8,10.897,23.168l-5.384,14.947
			C285.753,106.089,275.327,110.992,265.96,107.618z"/>
		<path fill="#5D311B" d="M269.561,97.313L269.561,97.313c-5.518-1.988-8.406-8.129-6.419-13.647l3.171-8.804
			c1.988-5.518,8.129-8.406,13.647-6.419l0,0c5.518,1.988,8.406,8.129,6.419,13.647l-3.171,8.804
			C281.22,96.413,275.079,99.301,269.561,97.313z"/>
	</g>
	<path display="inline" fill="#663921" d="M242.495,432.521c0,0,1.63,42.315,7.167,78.841c6.434,42.44,3.18,58.687,48.56,62.986
		c19.185,1.817,34.083,1.119,49.393-0.135c15.715-1.286,18.967-20.248,9.496-26.936c-5.561-3.927-10.662-8.564-12.053-13.665
		c-2.953-10.829-0.242-41.737-0.242-66.394c0-18.506,1.207-52.61,1.207-64.264C346.023,337.1,236.13,347.586,242.495,432.521z"/>
	
		<linearGradient id="XMLID_39_" gradientUnits="userSpaceOnUse" x1="-441.4489" y1="544.3793" x2="-182.1196" y2="544.3793" gradientTransform="matrix(1 0 0 -1 539.04 881.1949)">
		<stop  offset="0" style="stop-color:#5E321C"/>
		<stop  offset="0.0724" style="stop-color:#704228"/>
		<stop  offset="0.1613" style="stop-color:#7E4E31"/>
		<stop  offset="0.2725" style="stop-color:#865536"/>
		<stop  offset="0.4744" style="stop-color:#885738"/>
		<stop  offset="0.7114" style="stop-color:#8A593A"/>
		<stop  offset="0.8433" style="stop-color:#92603F"/>
		<stop  offset="0.949" style="stop-color:#A06C48"/>
		<stop  offset="1" style="stop-color:#AA754E"/>
	</linearGradient>
	<path id="XMLID_10_" display="inline" fill="url(#XMLID_39_)" d="M225.061,469.734c5.454,0.219,11.087,0.343,16.93,0.343
		c93.726,0,118.001-84.29,114.63-151.047c-2.982-59.041-13.459-95.324-33.042-125.578c-14.321-22.125-21.256-21.63-26.299-42.412
		c-1.882-7.756-3.758-81.066-67.645-76.235c-63.887,4.832-76.235,37.58-81.067,53.686s-3.395,36.904-19.864,60.666
		c-37.58,54.223-30.601,102.961-30.601,181.997c0,4.837,0.184,10.547,0.475,16.563c0.749,15.469,5.955,29.892,14.46,41.907
		c5.438,7.682,8.722,16.631,9.379,26.02c0.011,0.159,0.023,0.319,0.035,0.479c0,0,1.63,42.315,7.167,78.841
		c6.434,42.44,3.18,58.687,48.56,62.986c19.185,1.817,34.083,1.119,49.393-0.135c15.715-1.286,18.967-20.248,9.496-26.936
		c-5.561-3.927-10.662-8.564-12.053-13.665c-2.953-10.829-0.242-41.737-0.242-66.394
		C224.774,484.953,224.896,477.521,225.061,469.734z"/>
	<path id="XMLID_9_" display="inline" fill="#AA7D61" d="M236.346,167.682L236.346,167.682c-11.073,0-20.132-9.06-20.132-20.132
		v-14.495c0-11.073,9.06-20.132,20.132-20.132l0,0c11.073,0,20.132,9.06,20.132,20.132v14.495
		C256.479,158.623,247.419,167.682,236.346,167.682z"/>
	<path id="XMLID_8_" display="inline" fill="#412F25" d="M239.747,126.944h-6.979c-3.986,0-7.248-3.261-7.248-7.248l0,0
		c0-3.986,3.261-7.248,7.248-7.248h6.979c3.986,0,7.248,3.261,7.248,7.248l0,0C246.994,123.683,243.733,126.944,239.747,126.944z"/>
	<circle display="inline" fill="#412F25" cx="194.113" cy="128.954" r="3.898"/>
	<circle display="inline" fill="#412F25" cx="271.336" cy="125.056" r="3.898"/>
	<path id="XMLID_7_" display="inline" fill="#AA7D61" d="M335.374,330.063c0,48.737-14.484,88.245-61.155,88.245
		c-45.598,0-61.155-39.509-61.155-88.245s17.166-88.245,61.155-88.245C316.062,241.818,335.374,281.327,335.374,330.063z"/>
	<g display="inline">
		
			<linearGradient id="XMLID_40_" gradientUnits="userSpaceOnUse" x1="-476.1909" y1="595.2705" x2="-375.4816" y2="595.2705" gradientTransform="matrix(1 0 0 -1 539.04 881.1949)">
			<stop  offset="0" style="stop-color:#5E321C"/>
			<stop  offset="0.0724" style="stop-color:#704228"/>
			<stop  offset="0.1613" style="stop-color:#7E4E31"/>
			<stop  offset="0.2725" style="stop-color:#865536"/>
			<stop  offset="0.4744" style="stop-color:#885738"/>
			<stop  offset="0.7114" style="stop-color:#8A593A"/>
			<stop  offset="0.8433" style="stop-color:#92603F"/>
			<stop  offset="0.949" style="stop-color:#A06C48"/>
			<stop  offset="1" style="stop-color:#AA754E"/>
		</linearGradient>
		<path id="XMLID_6_" fill="url(#XMLID_40_)" d="M129.672,199.458c-15.832,4.262-28.771,23.459-36.536,34.1
			c-16.441,22.53-27.402,57.848-29.229,74.898c-2.358,22.006-1.827,48.714,12.787,59.066s29.837,4.871,35.927-2.436
			c6.089-7.307,6.089-26.184,8.525-43.234c2.436-17.05,7.916-42.016,21.921-56.021c16.881-16.881,23.139-35.318,19.486-47.496
			C158.842,205.962,144.372,195.5,129.672,199.458z"/>
		<g>
			<path fill="#663921" d="M73.437,366.144c-0.142,0-0.283-0.05-0.397-0.152c-0.246-0.219-0.268-0.596-0.049-0.843
				c0.637-0.714,1.213-1.462,1.713-2.22c2.216-3.37,3.017-7.227,2.198-10.582c-0.078-0.32,0.118-0.643,0.439-0.721
				c0.321-0.078,0.643,0.118,0.722,0.439c0.898,3.675,0.037,7.874-2.361,11.52c-0.531,0.807-1.143,1.602-1.818,2.36
				C73.765,366.076,73.602,366.144,73.437,366.144z"/>
		</g>
		<g>
			<path fill="#663921" d="M86.415,372.718c-0.131,0-0.262-0.043-0.373-0.131c-0.258-0.206-0.299-0.582-0.093-0.84
				c3.591-4.482,5.141-10.377,4.148-15.767c-0.06-0.324,0.155-0.636,0.479-0.696c0.324-0.052,0.636,0.155,0.695,0.479
				c1.055,5.728-0.587,11.982-4.391,16.731C86.764,372.641,86.59,372.718,86.415,372.718z"/>
		</g>
		<g>
			<path fill="#663921" d="M105.169,372.11c-0.047,0-0.094-0.006-0.141-0.016c-0.321-0.078-0.517-0.401-0.44-0.721
				c1.137-4.698,0.29-9.672-2.266-13.307c-0.19-0.271-0.125-0.643,0.145-0.833s0.642-0.124,0.832,0.145
				c2.751,3.913,3.666,9.25,2.449,14.276C105.683,371.927,105.439,372.11,105.169,372.11z"/>
		</g>
	</g>
	
		<linearGradient id="SVGID_12_" gradientUnits="userSpaceOnUse" x1="-546.4139" y1="1259.7977" x2="-508.7798" y2="1281.5258" gradientTransform="matrix(0.8187 0.5742 0.5742 -0.8187 -87.8603 1382.9116)">
		<stop  offset="0" style="stop-color:#6C5F51"/>
		<stop  offset="0.3689" style="stop-color:#7A6B5B"/>
		<stop  offset="0.782" style="stop-color:#8E7C69"/>
		<stop  offset="0.9175" style="stop-color:#907E6A"/>
		<stop  offset="0.9662" style="stop-color:#97836D"/>
		<stop  offset="1" style="stop-color:#A28D73"/>
	</linearGradient>
	<path display="inline" fill="url(#SVGID_12_)" d="M187.581,44.398c0,0,15.817,5.668,22.119,6.09s14.025,0.241,18.158-3.657
		s4.767-7.652,2.237-12.025s-7.316-5.531-11.379-4.583c-4.064,0.948-9.107,3.008-15.036,6.047
		C197.75,39.307,187.581,44.398,187.581,44.398z"/>
	
		<animate  fill="remove" accumulate="none" restart="always" dur="1s" begin="0s" additive="replace" attributeName="display" calcMode="linear" values="none;inline;none;none; none; none; none; none" id="antonia2" keyTimes="0;0.125;0.25; 0.375; 0.5; 0.625; 0.75; 1" repeatCount="indefinite">
		</animate>
</g>
<g id="layer3_1_" display="none">
	<g id="layer3" display="inline">
		<g>
			<path fill="#663921" d="M73.064,366.152c-0.142,0-0.283-0.05-0.397-0.152c-0.246-0.219-0.268-0.596-0.049-0.843
				c0.637-0.714,1.213-1.462,1.713-2.22c2.216-3.37,3.017-7.227,2.198-10.582c-0.078-0.32,0.118-0.643,0.439-0.721
				c0.321-0.078,0.643,0.118,0.722,0.439c0.898,3.675,0.037,7.874-2.361,11.52c-0.531,0.807-1.143,1.602-1.818,2.36
				C73.392,366.085,73.229,366.152,73.064,366.152z"/>
		</g>
		<g>
			<g>
				<path fill="#663921" d="M428.25,163.341c-0.834-11.741-6.298-16.801-10.809-18.188c-5.907-1.816-15.077,4.678-17.58,4.659
					c-0.377-0.003-0.746,0.004-1.119,0.004c2.275-4.074,4.305-9.49,0.737-11.986c-4.524-3.166-20.123,11.687-27.8,19.483
					c-0.633,0.364-1.218,0.663-1.878,1.063c-13.553,8.223-34.517,18.899-52.659,17.111c-21.867-2.156-38.639,4.156-45.172,13.866
					c-6.637,9.865-5.632,26.269,5.767,34.418c12.276,8.777,33.489,6.774,45.595,6.087c25.63-1.456,57.158-14.278,70.357-22.933
					C410.722,195.754,429.417,179.783,428.25,163.341z"/>
				<path fill="#AA7D62" d="M398.224,158.195c-0.725-0.54-1.474-1.092-2.349-1.319c-2.589-0.672-4.933,1.661-6.411,3.891
					c-2.779,4.195-4.789,9.721-2.402,14.15c3.472,6.442,13.058,5.363,17.321,0.278C409.587,168.987,403.252,161.943,398.224,158.195
					z"/>
			</g>
			<g>
				<g>
					<path fill="#273543" d="M219.458,66.262c-0.205,0.074-0.312,0.298-0.238,0.503l3.034,8.469c0.067,0.186,0.258,0.29,0.445,0.254
						c0.02-0.004,0.039-0.009,0.058-0.016c0.205-0.074,0.312-0.298,0.238-0.503l-3.033-8.469
						C219.887,66.295,219.662,66.192,219.458,66.262z"/>
					<path fill="#273543" d="M223.881,66.262c-0.078-0.203-0.314-0.307-0.508-0.226c-0.202,0.078-0.304,0.306-0.226,0.508
						l3.238,8.394c0.069,0.181,0.258,0.281,0.442,0.245c0.022-0.004,0.045-0.01,0.067-0.019c0.202-0.078,0.304-0.306,0.226-0.508
						L223.881,66.262z"/>
				</g>
				
					<linearGradient id="SVGID_13_" gradientUnits="userSpaceOnUse" x1="-301.2434" y1="837.6251" x2="-299.0124" y2="843.7545" gradientTransform="matrix(1 0 0 -1 539.04 881.1949)">
					<stop  offset="0" style="stop-color:#273543"/>
					<stop  offset="0.2551" style="stop-color:#2A3947"/>
					<stop  offset="0.5082" style="stop-color:#344353"/>
					<stop  offset="0.7599" style="stop-color:#445567"/>
					<stop  offset="0.8333" style="stop-color:#4A5C6E"/>
					<stop  offset="0.8531" style="stop-color:#4E6073"/>
					<stop  offset="0.9294" style="stop-color:#586D80"/>
					<stop  offset="1" style="stop-color:#5C7184"/>
				</linearGradient>
				<path fill="url(#SVGID_13_)" d="M237.081,36.368c0,0,0.212,2.221,0.212,3.49s-0.106,3.49-0.106,3.49s1.269-2.115,2.856-2.856
					c1.586-0.74,2.75-1.481,2.75-1.481s-2.433-1.269-3.067-1.481C239.091,37.32,237.081,36.368,237.081,36.368z"/>
				
					<radialGradient id="SVGID_14_" cx="-332.1669" cy="830.6049" r="26.3011" gradientTransform="matrix(1 0 0 -1 539.04 881.1949)" gradientUnits="userSpaceOnUse">
					<stop  offset="0" style="stop-color:#E4E1B2"/>
					<stop  offset="0.184" style="stop-color:#D7D39A"/>
					<stop  offset="0.3679" style="stop-color:#CEC98A"/>
					<stop  offset="0.5077" style="stop-color:#CBC684"/>
					<stop  offset="0.7957" style="stop-color:#DCD8A2"/>
					<stop  offset="1" style="stop-color:#E5E2B3"/>
				</radialGradient>
				<path fill="url(#SVGID_14_)" d="M175.489,65.653c0,0,6.71,1.71,14.209,2.5s14.736,2.237,21.84,2.368s17.367,0.132,21.446-5.526
					c4.079-5.657,5.131-18.683,5.263-22.498s-0.921-10.789-7.763-11.71s-11.052,2.237-13.946,6.71s-7.631,15.525-11.183,20.656
					s-3.816,6.973-6.842,6.842s-10.657-3.158-12.631-3.815c-1.974-0.658-2.631-1.184-2.631-1.184s-2.763,1.447-4.079,2.368
					S175.489,65.653,175.489,65.653z"/>
				<g>
					
						<linearGradient id="SVGID_15_" gradientUnits="userSpaceOnUse" x1="-342.3956" y1="821.8457" x2="-301.7438" y2="845.3161" gradientTransform="matrix(1 0 0 -1 539.04 881.1949)">
						<stop  offset="0" style="stop-color:#6C5F51"/>
						<stop  offset="0.259" style="stop-color:#716455"/>
						<stop  offset="0.5869" style="stop-color:#817160"/>
						<stop  offset="0.782" style="stop-color:#8E7C69"/>
						<stop  offset="0.9204" style="stop-color:#907E6A"/>
						<stop  offset="0.9701" style="stop-color:#97836F"/>
						<stop  offset="1" style="stop-color:#A08B75"/>
					</linearGradient>
					<path fill="url(#SVGID_15_)" d="M219.696,58.776c11.578-7.631,9.736-13.288,9.078-15.262s-0.526-4.342,2.105-7.105
						c2.951-2.257,5.312-1.157,6.472-0.172c-1.014-2.677-3.188-5.104-6.999-5.617c-6.842-0.921-11.052,2.237-13.946,6.71
						s-7.631,15.525-11.183,20.656c-2.933,4.237-3.642,6.207-5.498,6.699C202.378,64.923,210.3,64.97,219.696,58.776z"/>
				</g>
				<circle fill="#273543" cx="233.116" cy="38.944" r="0.892"/>
				
					<linearGradient id="SVGID_16_" gradientUnits="userSpaceOnUse" x1="-346.6367" y1="813.8859" x2="-309.0032" y2="835.6136" gradientTransform="matrix(1 0 0 -1 539.04 881.1949)">
					<stop  offset="0" style="stop-color:#6C5F51"/>
					<stop  offset="0.3689" style="stop-color:#7A6B5B"/>
					<stop  offset="0.782" style="stop-color:#8E7C69"/>
					<stop  offset="0.9175" style="stop-color:#907E6A"/>
					<stop  offset="0.9662" style="stop-color:#97836D"/>
					<stop  offset="1" style="stop-color:#A28D73"/>
				</linearGradient>
				<path fill="url(#SVGID_16_)" d="M195.734,73.078c0,0,16.204-4.442,21.605-7.716c5.401-3.273,11.621-7.856,12.766-13.421
					c1.146-5.565-0.491-9.002-5.074-11.13c-4.583-2.128-9.166-0.327-11.948,2.782c-2.782,3.11-5.728,7.693-8.838,13.585
					C201.136,63.071,195.734,73.078,195.734,73.078z"/>
			</g>
			<g>
				
					<linearGradient id="SVGID_17_" gradientUnits="userSpaceOnUse" x1="-281.6519" y1="608.4182" x2="-272.824" y2="659.9239" gradientTransform="matrix(0.9649 -0.2627 -0.2627 -0.9649 606.2602 625.2657)">
					<stop  offset="0" style="stop-color:#643720"/>
					<stop  offset="0.5294" style="stop-color:#875637"/>
					<stop  offset="1" style="stop-color:#A16D48"/>
				</linearGradient>
				<path fill="url(#SVGID_17_)" d="M179.05,111.507L179.05,111.507c-9.68,2.635-19.756-3.129-22.391-12.809l-4.205-15.445
					c-2.635-9.68,3.129-19.756,12.809-22.391l0,0c9.68-2.635,19.756,3.129,22.391,12.809l4.205,15.445
					C194.494,98.795,188.73,108.872,179.05,111.507z"/>
				<path fill="#5D311B" d="M176.06,100.923L176.06,100.923c-5.702,1.552-11.637-1.843-13.189-7.545l-2.477-9.098
					c-1.552-5.702,1.843-11.637,7.545-13.189l0,0c5.702-1.552,11.637,1.843,13.189,7.545l2.477,9.098
					C185.157,93.435,181.762,99.37,176.06,100.923z"/>
			</g>
			<g>
				
					<linearGradient id="SVGID_18_" gradientUnits="userSpaceOnUse" x1="-451.6859" y1="962.1444" x2="-442.9238" y2="1013.2667" gradientTransform="matrix(0.9408 0.3389 0.3389 -0.9408 360.5054 1163.9449)">
					<stop  offset="0" style="stop-color:#643720"/>
					<stop  offset="0.5294" style="stop-color:#875637"/>
					<stop  offset="1" style="stop-color:#A16D48"/>
				</linearGradient>
				<path fill="url(#SVGID_18_)" d="M265.587,107.626L265.587,107.626c-9.368-3.374-14.271-13.8-10.897-23.168l5.384-14.947
					c3.374-9.368,13.8-14.271,23.168-10.897l0,0c9.368,3.374,14.271,13.8,10.897,23.168l-5.384,14.947
					C285.38,106.097,274.954,111.001,265.587,107.626z"/>
				<path fill="#5D311B" d="M269.188,97.322L269.188,97.322c-5.518-1.988-8.406-8.129-6.419-13.647l3.171-8.804
					c1.988-5.518,8.129-8.406,13.647-6.419l0,0c5.518,1.988,8.406,8.129,6.419,13.647l-3.171,8.804
					C280.847,96.421,274.706,99.31,269.188,97.322z"/>
			</g>
			<path fill="#663921" d="M242.122,432.529c0,0,1.63,42.315,7.167,78.841c6.434,42.44,3.18,58.687,48.56,62.986
				c19.185,1.817,34.083,1.118,49.393-0.135c15.715-1.286,18.967-20.248,9.496-26.936c-5.561-3.927-10.662-8.564-12.053-13.665
				c-2.953-10.829-0.242-41.737-0.242-66.394c0-18.506,1.207-52.61,1.207-64.264C345.65,337.109,235.757,347.595,242.122,432.529z"
				/>
			
				<linearGradient id="XMLID_41_" gradientUnits="userSpaceOnUse" x1="-441.8219" y1="544.3703" x2="-182.4926" y2="544.3703" gradientTransform="matrix(1 0 0 -1 539.04 881.1949)">
				<stop  offset="0" style="stop-color:#5E321C"/>
				<stop  offset="0.0724" style="stop-color:#704228"/>
				<stop  offset="0.1613" style="stop-color:#7E4E31"/>
				<stop  offset="0.2725" style="stop-color:#865536"/>
				<stop  offset="0.4744" style="stop-color:#885738"/>
				<stop  offset="0.7114" style="stop-color:#8A593A"/>
				<stop  offset="0.8433" style="stop-color:#92603F"/>
				<stop  offset="0.949" style="stop-color:#A06C48"/>
				<stop  offset="1" style="stop-color:#AA754E"/>
			</linearGradient>
			<path id="XMLID_15_" fill="url(#XMLID_41_)" d="M224.688,469.743c5.454,0.219,11.087,0.343,16.93,0.343
				c93.726,0,118.001-84.29,114.63-151.047c-2.982-59.041-13.46-95.324-33.042-125.578c-14.321-22.125-21.256-21.63-26.299-42.412
				c-1.882-7.756-3.758-81.066-67.645-76.235c-63.887,4.832-76.235,37.58-81.067,53.686s-3.395,36.904-19.864,60.666
				C90.751,243.389,97.73,292.127,97.73,371.163c0,4.837,0.184,10.547,0.475,16.563c0.749,15.469,5.955,29.892,14.46,41.907
				c5.438,7.682,8.722,16.631,9.379,26.02c0.011,0.159,0.023,0.319,0.035,0.479c0,0,1.63,42.315,7.167,78.841
				c6.434,42.44,3.18,58.687,48.56,62.986c19.185,1.817,34.083,1.119,49.393-0.135c15.715-1.286,18.967-20.248,9.496-26.937
				c-5.561-3.927-10.662-8.564-12.053-13.665c-2.953-10.829-0.242-41.737-0.242-66.394
				C224.401,484.961,224.523,477.529,224.688,469.743z"/>
			<path id="XMLID_14_" fill="#AA7D61" d="M235.974,167.691L235.974,167.691c-11.073,0-20.132-9.06-20.132-20.132v-14.495
				c0-11.073,9.06-20.132,20.132-20.132l0,0c11.073,0,20.132,9.06,20.132,20.132v14.495
				C256.106,158.631,247.046,167.691,235.974,167.691z"/>
			<path id="XMLID_13_" fill="#412F25" d="M239.374,126.953h-6.979c-3.986,0-7.248-3.261-7.248-7.248l0,0
				c0-3.986,3.261-7.248,7.248-7.248h6.979c3.986,0,7.248,3.261,7.248,7.248l0,0C246.621,123.691,243.36,126.953,239.374,126.953z"
				/>
			<path id="XMLID_12_" fill="#AA7D61" d="M335.002,330.072c0,48.737-14.484,88.245-61.155,88.245
				c-45.598,0-61.155-39.509-61.155-88.245s17.166-88.245,61.155-88.245C315.69,241.826,335.002,281.335,335.002,330.072z"/>
			
				<linearGradient id="XMLID_42_" gradientUnits="userSpaceOnUse" x1="-476.5639" y1="595.2623" x2="-375.8546" y2="595.2623" gradientTransform="matrix(1 0 0 -1 539.04 881.1949)">
				<stop  offset="0" style="stop-color:#5E321C"/>
				<stop  offset="0.0724" style="stop-color:#704228"/>
				<stop  offset="0.1613" style="stop-color:#7E4E31"/>
				<stop  offset="0.2725" style="stop-color:#865536"/>
				<stop  offset="0.4744" style="stop-color:#885738"/>
				<stop  offset="0.7114" style="stop-color:#8A593A"/>
				<stop  offset="0.8433" style="stop-color:#92603F"/>
				<stop  offset="0.949" style="stop-color:#A06C48"/>
				<stop  offset="1" style="stop-color:#AA754E"/>
			</linearGradient>
			<path id="XMLID_11_" fill="url(#XMLID_42_)" d="M129.299,199.466c-15.832,4.262-28.771,23.459-36.536,34.1
				c-16.441,22.53-27.402,57.848-29.229,74.898c-2.358,22.006-1.827,48.714,12.787,59.066s29.837,4.871,35.927-2.436
				c6.089-7.307,6.089-26.184,8.525-43.234c2.436-17.05,7.916-42.016,21.921-56.021c16.881-16.881,23.139-35.318,19.486-47.496
				C158.469,205.971,143.999,195.509,129.299,199.466z"/>
			<g>
				<path fill="#663921" d="M86.042,372.727c-0.131,0-0.262-0.043-0.373-0.131c-0.258-0.206-0.299-0.582-0.093-0.84
					c3.591-4.482,5.141-10.377,4.148-15.767c-0.06-0.324,0.155-0.636,0.479-0.696c0.324-0.052,0.636,0.155,0.695,0.479
					c1.055,5.728-0.587,11.982-4.391,16.731C86.391,372.65,86.217,372.727,86.042,372.727z"/>
			</g>
			<g>
				<path fill="#663921" d="M104.796,372.118c-0.047,0-0.094-0.006-0.141-0.016c-0.321-0.078-0.517-0.401-0.44-0.721
					c1.137-4.698,0.29-9.672-2.266-13.307c-0.19-0.271-0.125-0.643,0.145-0.833s0.642-0.124,0.832,0.145
					c2.751,3.913,3.666,9.25,2.449,14.276C105.31,371.935,105.066,372.118,104.796,372.118z"/>
			</g>
			<g>
				<g>
					<path fill="#412F25" d="M193.746,134.178c-2.748,0-4.984-2.236-4.984-4.984c0-0.33,0.267-0.597,0.597-0.597
						s0.597,0.267,0.597,0.597c0,2.089,1.7,3.789,3.789,3.789c2.088,0,3.788-1.7,3.788-3.789c0-0.33,0.267-0.597,0.597-0.597
						s0.597,0.267,0.597,0.597C198.728,131.943,196.493,134.178,193.746,134.178z"/>
				</g>
				<g>
					<path fill="#412F25" d="M271.264,130.135c-2.748,0-4.984-2.236-4.984-4.984c0-0.33,0.267-0.597,0.597-0.597
						s0.597,0.267,0.597,0.597c0,2.089,1.7,3.789,3.789,3.789c2.088,0,3.788-1.7,3.788-3.789c0-0.33,0.267-0.597,0.597-0.597
						s0.597,0.267,0.597,0.597C276.246,127.899,274.011,130.135,271.264,130.135z"/>
				</g>
			</g>
		</g>
		
			<animate  fill="remove" accumulate="none" restart="always" dur="1s" begin="0s" additive="replace" attributeName="display" calcMode="linear" values="none;none;inline;none; none; none; none; none" id="antonia3" keyTimes="0;0.125;0.25; 0.375; 0.5; 0.625; 0.75; 1" repeatCount="indefinite">
			</animate>
	</g>
	<g display="inline">
		<path fill="#663921" d="M73.064,366.152c-0.142,0-0.283-0.05-0.397-0.152c-0.246-0.219-0.268-0.596-0.049-0.843
			c0.637-0.714,1.213-1.462,1.713-2.22c2.216-3.37,3.017-7.227,2.198-10.582c-0.078-0.32,0.118-0.643,0.439-0.721
			c0.321-0.078,0.643,0.118,0.722,0.439c0.898,3.675,0.037,7.874-2.361,11.52c-0.531,0.807-1.143,1.602-1.818,2.36
			C73.392,366.085,73.229,366.152,73.064,366.152z"/>
	</g>
	
		<animate  fill="remove" accumulate="none" restart="always" dur="1s" begin="0s" 
		additive="replace" attributeName="display" calcMode="linear" values="none;none;inline;none; none; none; none; none" id="antonia3" keyTimes="0;0.125;0.25; 0.375; 0.5; 0.625; 0.75; 1" repeatCount="indefinite">
		</animate>
</g>
<g id="layer4" display="none">
	
	<g display="inline">
		<path fill="#663921" d="M434.561,198.375c2.4-11.524-1.478-17.882-5.439-20.447c-5.188-3.359-15.781,0.389-18.184-0.312
			c-0.362-0.106-0.719-0.199-1.078-0.301c3.299-3.299,6.73-7.956,3.978-11.331c-3.489-4.279-22.547,5.756-32.06,11.163
			c-0.708,0.178-1.353,0.306-2.097,0.51c-15.282,4.215-38.363,8.769-55.33,2.101c-20.45-8.038-38.308-6.539-47.241,1.021
			c-9.076,7.681-12.583,23.737-3.838,34.686c9.418,11.792,30.372,15.651,42.206,18.291c25.056,5.589,58.886,1.852,73.945-2.875
			C408.858,224.78,431.2,214.512,434.561,198.375z"/>
		<path fill="#AA7D62" d="M407.076,185.236c-0.55-0.717-1.12-1.453-1.9-1.91c-2.308-1.352-5.199,0.253-7.229,1.995
			c-3.818,3.278-7.259,8.046-6.17,12.959c1.584,7.145,11.1,8.721,16.589,4.991C415.066,198.718,410.892,190.213,407.076,185.236z"/>
	</g>
	<g display="inline">
		<g>
			<path fill="#273543" d="M216.994,55.906c-0.214,0.037-0.359,0.239-0.322,0.454l1.517,8.868c0.034,0.195,0.203,0.33,0.394,0.327
				c0.02,0,0.04-0.002,0.06-0.006c0.215-0.037,0.359-0.239,0.322-0.454l-1.517-8.868C217.411,56.013,217.208,55.872,216.994,55.906z
				"/>
			<path fill="#273543" d="M221.351,56.674c-0.042-0.213-0.256-0.357-0.461-0.311c-0.213,0.042-0.353,0.248-0.311,0.461l1.731,8.829
				c0.037,0.19,0.205,0.321,0.392,0.318c0.023,0,0.046-0.002,0.069-0.007c0.213-0.042,0.353-0.248,0.311-0.461L221.351,56.674z"/>
		</g>
		
			<linearGradient id="SVGID_19_" gradientUnits="userSpaceOnUse" x1="-314.495" y1="809.2975" x2="-312.2637" y2="815.4279" gradientTransform="matrix(0.9848 0.1736 0.1736 -0.9848 408.2217 888.3262)">
			<stop  offset="0" style="stop-color:#273543"/>
			<stop  offset="0.2551" style="stop-color:#2A3947"/>
			<stop  offset="0.5082" style="stop-color:#344353"/>
			<stop  offset="0.7599" style="stop-color:#445567"/>
			<stop  offset="0.8333" style="stop-color:#4A5C6E"/>
			<stop  offset="0.8531" style="stop-color:#4E6073"/>
			<stop  offset="0.9294" style="stop-color:#586D80"/>
			<stop  offset="1" style="stop-color:#5C7184"/>
		</linearGradient>
		<path fill="url(#SVGID_19_)" d="M239.541,29.527c0,0-0.177,2.224-0.398,3.474c-0.22,1.25-0.71,3.419-0.71,3.419
			s1.617-1.863,3.308-2.316s2.965-0.981,2.965-0.981s-2.175-1.672-2.763-1.991S239.541,29.527,239.541,29.527z"/>
		
			<radialGradient id="SVGID_20_" cx="-345.4244" cy="802.2679" r="26.3017" gradientTransform="matrix(0.9848 0.1736 0.1736 -0.9848 408.2217 888.3262)" gradientUnits="userSpaceOnUse">
			<stop  offset="0" style="stop-color:#E4E1B2"/>
			<stop  offset="0.184" style="stop-color:#D7D39A"/>
			<stop  offset="0.3679" style="stop-color:#CEC98A"/>
			<stop  offset="0.5077" style="stop-color:#CBC684"/>
			<stop  offset="0.7957" style="stop-color:#DCD8A2"/>
			<stop  offset="1" style="stop-color:#E5E2B3"/>
		</radialGradient>
		<path fill="url(#SVGID_20_)" d="M173.799,47.671c0,0,6.311,2.85,13.559,4.929s14.123,4.762,21.097,6.125s17.08,3.145,22.079-1.718
			s8.297-17.508,9.09-21.243c0.792-3.735,0.966-10.785-5.611-12.88s-11.272,0.284-14.9,4.186
			c-3.627,3.903-10.211,13.964-14.6,18.401c-4.389,4.436-4.968,6.205-7.926,5.55c-2.957-0.655-9.947-4.96-11.776-5.951
			s-2.386-1.623-2.386-1.623s-2.972,0.945-4.428,1.624S173.799,47.671,173.799,47.671z"/>
		<g>
			
				<linearGradient id="SVGID_21_" gradientUnits="userSpaceOnUse" x1="-355.6516" y1="793.5071" x2="-314.9984" y2="816.9783" gradientTransform="matrix(0.9848 0.1736 0.1736 -0.9848 408.2217 888.3262)">
				<stop  offset="0" style="stop-color:#6C5F51"/>
				<stop  offset="0.259" style="stop-color:#716455"/>
				<stop  offset="0.5869" style="stop-color:#817160"/>
				<stop  offset="0.782" style="stop-color:#8E7C69"/>
				<stop  offset="0.9204" style="stop-color:#907E6A"/>
				<stop  offset="0.9701" style="stop-color:#97836F"/>
				<stop  offset="1" style="stop-color:#A08B75"/>
			</linearGradient>
			<path fill="url(#SVGID_21_)" d="M218.529,48.576c12.727-5.504,11.896-11.396,11.591-13.454s0.235-4.367,3.307-6.631
				c3.298-1.71,5.432-0.217,6.404,0.955c-0.534-2.812-2.253-5.58-5.917-6.747c-6.578-2.095-11.272,0.284-14.9,4.186
				c-3.627,3.903-10.211,13.964-14.6,18.401c-3.625,3.663-4.665,5.48-6.578,5.642C200.406,51.622,208.2,53.043,218.529,48.576z"/>
		</g>
		<circle fill="#273543" cx="235.189" cy="31.375" r="0.892"/>
	</g>
	<g display="inline">
		
			<linearGradient id="SVGID_22_" gradientUnits="userSpaceOnUse" x1="-281.6519" y1="608.4182" x2="-272.824" y2="659.9239" gradientTransform="matrix(0.9649 -0.2627 -0.2627 -0.9649 606.2602 625.2657)">
			<stop  offset="0" style="stop-color:#643720"/>
			<stop  offset="0.5294" style="stop-color:#875637"/>
			<stop  offset="1" style="stop-color:#A16D48"/>
		</linearGradient>
		<path fill="url(#SVGID_22_)" d="M179.05,111.507L179.05,111.507c-9.68,2.635-19.756-3.129-22.391-12.809l-4.205-15.445
			c-2.635-9.68,3.129-19.756,12.809-22.391l0,0c9.68-2.635,19.756,3.129,22.391,12.809l4.205,15.445
			C194.494,98.795,188.73,108.872,179.05,111.507z"/>
		<path fill="#5D311B" d="M176.06,100.923L176.06,100.923c-5.702,1.552-11.637-1.843-13.189-7.545l-2.477-9.098
			c-1.552-5.702,1.843-11.637,7.545-13.189l0,0c5.702-1.552,11.637,1.843,13.189,7.545l2.477,9.098
			C185.157,93.435,181.762,99.37,176.06,100.923z"/>
	</g>
	<g display="inline">
		
			<linearGradient id="SVGID_23_" gradientUnits="userSpaceOnUse" x1="-451.6859" y1="962.1444" x2="-442.9238" y2="1013.2667" gradientTransform="matrix(0.9408 0.3389 0.3389 -0.9408 360.5054 1163.9449)">
			<stop  offset="0" style="stop-color:#643720"/>
			<stop  offset="0.5294" style="stop-color:#875637"/>
			<stop  offset="1" style="stop-color:#A16D48"/>
		</linearGradient>
		<path fill="url(#SVGID_23_)" d="M265.587,107.626L265.587,107.626c-9.368-3.374-14.271-13.8-10.897-23.168l5.384-14.947
			c3.374-9.368,13.8-14.271,23.168-10.897l0,0c9.368,3.374,14.271,13.8,10.897,23.168l-5.384,14.947
			C285.38,106.097,274.954,111.001,265.587,107.626z"/>
		<path fill="#5D311B" d="M269.188,97.322L269.188,97.322c-5.518-1.988-8.406-8.129-6.419-13.647l3.171-8.804
			c1.988-5.518,8.129-8.406,13.647-6.419l0,0c5.518,1.988,8.406,8.129,6.419,13.647l-3.171,8.804
			C280.847,96.421,274.706,99.31,269.188,97.322z"/>
	</g>
	<path display="inline" fill="#663921" d="M242.122,432.529c0,0,1.63,42.315,7.167,78.841c6.434,42.44,3.18,58.687,48.56,62.986
		c19.185,1.817,34.083,1.118,49.393-0.135c15.715-1.286,18.967-20.248,9.496-26.936c-5.561-3.927-10.662-8.564-12.053-13.665
		c-2.953-10.829-0.242-41.737-0.242-66.394c0-18.506,1.207-52.61,1.207-64.264C345.65,337.109,235.757,347.595,242.122,432.529z"/>
	
		<linearGradient id="XMLID_43_" gradientUnits="userSpaceOnUse" x1="-441.8219" y1="544.3703" x2="-182.4926" y2="544.3703" gradientTransform="matrix(1 0 0 -1 539.04 881.1949)">
		<stop  offset="0" style="stop-color:#5E321C"/>
		<stop  offset="0.0724" style="stop-color:#704228"/>
		<stop  offset="0.1613" style="stop-color:#7E4E31"/>
		<stop  offset="0.2725" style="stop-color:#865536"/>
		<stop  offset="0.4744" style="stop-color:#885738"/>
		<stop  offset="0.7114" style="stop-color:#8A593A"/>
		<stop  offset="0.8433" style="stop-color:#92603F"/>
		<stop  offset="0.949" style="stop-color:#A06C48"/>
		<stop  offset="1" style="stop-color:#AA754E"/>
	</linearGradient>
	<path id="XMLID_5_" display="inline" fill="url(#XMLID_43_)" d="M224.688,469.743c5.454,0.219,11.087,0.343,16.93,0.343
		c93.726,0,118.001-84.29,114.63-151.047c-2.982-59.041-13.46-95.324-33.042-125.578c-14.321-22.125-21.256-21.63-26.299-42.412
		c-1.882-7.756-3.758-81.066-67.645-76.235c-63.887,4.832-76.235,37.58-81.067,53.686s-3.395,36.904-19.864,60.666
		C90.751,243.389,97.73,292.127,97.73,371.163c0,4.837,0.184,10.547,0.475,16.563c0.749,15.469,5.955,29.892,14.46,41.907
		c5.438,7.682,8.722,16.631,9.379,26.02c0.011,0.159,0.023,0.319,0.035,0.479c0,0,1.63,42.315,7.167,78.841
		c6.434,42.44,3.18,58.687,48.56,62.986c19.185,1.817,34.083,1.119,49.393-0.135c15.715-1.286,18.967-20.248,9.496-26.937
		c-5.561-3.927-10.662-8.564-12.053-13.665c-2.953-10.829-0.242-41.737-0.242-66.394
		C224.401,484.961,224.523,477.529,224.688,469.743z"/>
	<path id="XMLID_4_" display="inline" fill="#AA7D61" d="M235.974,167.691L235.974,167.691c-11.073,0-20.132-9.06-20.132-20.132
		v-14.495c0-11.073,9.06-20.132,20.132-20.132l0,0c11.073,0,20.132,9.06,20.132,20.132v14.495
		C256.106,158.631,247.046,167.691,235.974,167.691z"/>
	<path id="XMLID_3_" display="inline" fill="#412F25" d="M239.374,126.953h-6.979c-3.986,0-7.248-3.261-7.248-7.248l0,0
		c0-3.986,3.261-7.248,7.248-7.248h6.979c3.986,0,7.248,3.261,7.248,7.248l0,0C246.621,123.691,243.36,126.953,239.374,126.953z"/>
	<circle display="inline" fill="#412F25" cx="193.74" cy="128.962" r="3.898"/>
	<circle display="inline" fill="#412F25" cx="270.964" cy="125.064" r="3.898"/>
	<path id="XMLID_2_" display="inline" fill="#AA7D61" d="M335.002,330.072c0,48.737-14.484,88.245-61.155,88.245
		c-45.598,0-61.155-39.509-61.155-88.245s17.166-88.245,61.155-88.245C315.69,241.826,335.002,281.335,335.002,330.072z"/>
	
		<linearGradient id="XMLID_44_" gradientUnits="userSpaceOnUse" x1="-476.5639" y1="595.2623" x2="-375.8546" y2="595.2623" gradientTransform="matrix(1 0 0 -1 539.04 881.1949)">
		<stop  offset="0" style="stop-color:#5E321C"/>
		<stop  offset="0.0724" style="stop-color:#704228"/>
		<stop  offset="0.1613" style="stop-color:#7E4E31"/>
		<stop  offset="0.2725" style="stop-color:#865536"/>
		<stop  offset="0.4744" style="stop-color:#885738"/>
		<stop  offset="0.7114" style="stop-color:#8A593A"/>
		<stop  offset="0.8433" style="stop-color:#92603F"/>
		<stop  offset="0.949" style="stop-color:#A06C48"/>
		<stop  offset="1" style="stop-color:#AA754E"/>
	</linearGradient>
	<path id="XMLID_1_" display="inline" fill="url(#XMLID_44_)" d="M129.299,199.466c-15.832,4.262-28.771,23.459-36.536,34.1
		c-16.441,22.53-27.402,57.848-29.229,74.898c-2.358,22.006-1.827,48.714,12.787,59.066s29.837,4.871,35.927-2.436
		c6.089-7.307,6.089-26.184,8.525-43.234c2.436-17.05,7.916-42.016,21.921-56.021c16.881-16.881,23.139-35.318,19.486-47.496
		C158.469,205.971,143.999,195.509,129.299,199.466z"/>
	<g display="inline">
		<path fill="#663921" d="M73.064,366.152c-0.142,0-0.283-0.05-0.397-0.152c-0.246-0.219-0.268-0.596-0.049-0.843
			c0.637-0.714,1.213-1.462,1.713-2.22c2.216-3.37,3.017-7.227,2.198-10.582c-0.078-0.32,0.118-0.643,0.439-0.721
			c0.321-0.078,0.643,0.118,0.722,0.439c0.898,3.675,0.037,7.874-2.361,11.52c-0.531,0.807-1.143,1.602-1.818,2.36
			C73.392,366.085,73.229,366.152,73.064,366.152z"/>
	</g>
	<g display="inline">
		<path fill="#663921" d="M86.042,372.727c-0.131,0-0.262-0.043-0.373-0.131c-0.258-0.206-0.299-0.582-0.093-0.84
			c3.591-4.482,5.141-10.377,4.148-15.767c-0.06-0.324,0.155-0.636,0.479-0.696c0.324-0.052,0.636,0.155,0.695,0.479
			c1.055,5.728-0.587,11.982-4.391,16.731C86.391,372.65,86.217,372.727,86.042,372.727z"/>
	</g>
	<g display="inline">
		<path fill="#663921" d="M104.796,372.118c-0.047,0-0.094-0.006-0.141-0.016c-0.321-0.078-0.517-0.401-0.44-0.721
			c1.137-4.698,0.29-9.672-2.266-13.307c-0.19-0.271-0.125-0.643,0.145-0.833s0.642-0.124,0.832,0.145
			c2.751,3.913,3.666,9.25,2.449,14.276C105.31,371.935,105.066,372.118,104.796,372.118z"/>
	</g>
	
		<linearGradient id="SVGID_24_" gradientUnits="userSpaceOnUse" x1="-459.1118" y1="1108.1138" x2="-421.4778" y2="1129.8419" gradientTransform="matrix(0.8187 0.5742 0.5742 -0.8187 -72.6106 1208.6072)">
		<stop  offset="0" style="stop-color:#6C5F51"/>
		<stop  offset="0.3689" style="stop-color:#7A6B5B"/>
		<stop  offset="0.782" style="stop-color:#8E7C69"/>
		<stop  offset="0.9175" style="stop-color:#907E6A"/>
		<stop  offset="0.9662" style="stop-color:#97836D"/>
		<stop  offset="1" style="stop-color:#A28D73"/>
	</linearGradient>
	<path display="inline" fill="url(#SVGID_24_)" d="M187.208,44.406c0,0,15.817,5.668,22.119,6.09s14.025,0.241,18.158-3.657
		s4.767-7.652,2.237-12.025c-2.53-4.374-7.316-5.531-11.379-4.583c-4.064,0.948-9.107,3.008-15.036,6.047
		C197.377,39.315,187.208,44.406,187.208,44.406z"/>
		
		<animate  fill="remove"
		 accumulate="none" restart="always" dur="1s" begin="0s" additive="replace" attributeName="display" 
		 calcMode="linear" values="none;none;none;inline; none; none; none; none" id="antonia4"
		  keyTimes="0;0.125;0.25; 0.375; 0.5; 0.625; 0.75; 1" repeatCount="indefinite">
		</animate>
</g>

<g id="layer5" display="none">
	<g display="inline">
		<path fill="#663921" d="M428.25,163.341c-0.834-11.741-6.298-16.801-10.809-18.188c-5.907-1.816-15.077,4.678-17.58,4.659
			c-0.377-0.003-0.746,0.004-1.119,0.004c2.275-4.074,4.305-9.49,0.737-11.986c-4.524-3.166-20.123,11.687-27.8,19.483
			c-0.633,0.364-1.218,0.663-1.878,1.063c-13.553,8.223-34.517,18.899-52.66,17.111c-21.867-2.156-38.639,4.156-45.172,13.866
			c-6.637,9.865-5.632,26.269,5.767,34.418c12.276,8.777,33.489,6.774,45.595,6.087c25.63-1.456,57.158-14.278,70.357-22.933
			C410.722,195.754,429.417,179.783,428.25,163.341z"/>
		<path fill="#AA7D62" d="M398.223,158.195c-0.725-0.54-1.474-1.092-2.349-1.319c-2.589-0.672-4.933,1.661-6.411,3.891
			c-2.779,4.195-4.789,9.721-2.402,14.15c3.472,6.442,13.058,5.363,17.321,0.278C409.587,168.987,403.252,161.943,398.223,158.195z"
			/>
	</g>
	<g display="inline">
		<g>
			<path fill="#273543" d="M219.458,66.262c-0.205,0.074-0.312,0.298-0.238,0.503l3.034,8.469c0.067,0.186,0.258,0.29,0.445,0.254
				c0.02-0.004,0.039-0.009,0.058-0.016c0.205-0.074,0.312-0.298,0.238-0.503l-3.033-8.469
				C219.887,66.295,219.662,66.192,219.458,66.262z"/>
			<path fill="#273543" d="M223.881,66.262c-0.078-0.203-0.314-0.307-0.508-0.226c-0.202,0.078-0.304,0.306-0.226,0.508l3.238,8.394
				c0.069,0.181,0.258,0.281,0.442,0.245c0.022-0.004,0.045-0.01,0.067-0.019c0.202-0.078,0.304-0.306,0.226-0.508L223.881,66.262z"
				/>
		</g>
		
			<linearGradient id="SVGID_25_" gradientUnits="userSpaceOnUse" x1="-301.2433" y1="837.6251" x2="-299.0124" y2="843.7545" gradientTransform="matrix(1 0 0 -1 539.04 881.1949)">
			<stop  offset="0" style="stop-color:#273543"/>
			<stop  offset="0.2551" style="stop-color:#2A3947"/>
			<stop  offset="0.5082" style="stop-color:#344353"/>
			<stop  offset="0.7599" style="stop-color:#445567"/>
			<stop  offset="0.8333" style="stop-color:#4A5C6E"/>
			<stop  offset="0.8531" style="stop-color:#4E6073"/>
			<stop  offset="0.9294" style="stop-color:#586D80"/>
			<stop  offset="1" style="stop-color:#5C7184"/>
		</linearGradient>
		<path fill="url(#SVGID_25_)" d="M237.081,36.368c0,0,0.212,2.221,0.212,3.49s-0.106,3.49-0.106,3.49s1.269-2.115,2.856-2.856
			c1.586-0.74,2.75-1.481,2.75-1.481s-2.433-1.269-3.067-1.481C239.091,37.32,237.081,36.368,237.081,36.368z"/>
		
			<radialGradient id="SVGID_26_" cx="-332.1669" cy="830.6047" r="26.3012" gradientTransform="matrix(1 0 0 -1 539.04 881.1949)" gradientUnits="userSpaceOnUse">
			<stop  offset="0" style="stop-color:#E4E1B2"/>
			<stop  offset="0.184" style="stop-color:#D7D39A"/>
			<stop  offset="0.3679" style="stop-color:#CEC98A"/>
			<stop  offset="0.5077" style="stop-color:#CBC684"/>
			<stop  offset="0.7957" style="stop-color:#DCD8A2"/>
			<stop  offset="1" style="stop-color:#E5E2B3"/>
		</radialGradient>
		<path fill="url(#SVGID_26_)" d="M175.489,65.653c0,0,6.71,1.71,14.209,2.5c7.499,0.789,14.736,2.237,21.84,2.368
			c7.105,0.132,17.367,0.132,21.446-5.526c4.079-5.657,5.131-18.683,5.263-22.498s-0.921-10.789-7.763-11.71
			s-11.052,2.237-13.946,6.71s-7.631,15.525-11.183,20.656s-3.815,6.973-6.842,6.842c-3.026-0.132-10.657-3.158-12.631-3.815
			c-1.974-0.658-2.631-1.184-2.631-1.184s-2.763,1.447-4.079,2.368S175.489,65.653,175.489,65.653z"/>
		<g>
			
				<linearGradient id="SVGID_27_" gradientUnits="userSpaceOnUse" x1="-342.3956" y1="821.8457" x2="-301.7438" y2="845.3161" gradientTransform="matrix(1 0 0 -1 539.04 881.1949)">
				<stop  offset="0" style="stop-color:#6C5F51"/>
				<stop  offset="0.259" style="stop-color:#716455"/>
				<stop  offset="0.5869" style="stop-color:#817160"/>
				<stop  offset="0.782" style="stop-color:#8E7C69"/>
				<stop  offset="0.9204" style="stop-color:#907E6A"/>
				<stop  offset="0.9701" style="stop-color:#97836F"/>
				<stop  offset="1" style="stop-color:#A08B75"/>
			</linearGradient>
			<path fill="url(#SVGID_27_)" d="M219.696,58.776c11.578-7.631,9.736-13.288,9.078-15.262s-0.526-4.342,2.105-7.105
				c2.951-2.257,5.312-1.157,6.472-0.172c-1.014-2.677-3.188-5.104-6.999-5.617c-6.842-0.921-11.052,2.237-13.946,6.71
				s-7.631,15.525-11.183,20.656c-2.933,4.237-3.642,6.207-5.498,6.699C202.378,64.923,210.3,64.97,219.696,58.776z"/>
		</g>
		<circle fill="#273543" cx="233.116" cy="38.944" r="0.892"/>
		
			<linearGradient id="SVGID_28_" gradientUnits="userSpaceOnUse" x1="-346.6367" y1="813.8859" x2="-309.0034" y2="835.6135" gradientTransform="matrix(1 0 0 -1 539.04 881.1949)">
			<stop  offset="0" style="stop-color:#6C5F51"/>
			<stop  offset="0.3689" style="stop-color:#7A6B5B"/>
			<stop  offset="0.782" style="stop-color:#8E7C69"/>
			<stop  offset="0.9175" style="stop-color:#907E6A"/>
			<stop  offset="0.9662" style="stop-color:#97836D"/>
			<stop  offset="1" style="stop-color:#A28D73"/>
		</linearGradient>
		<path fill="url(#SVGID_28_)" d="M195.734,73.078c0,0,16.204-4.442,21.605-7.716c5.401-3.273,11.621-7.856,12.766-13.421
			s-0.491-9.002-5.074-11.13c-4.583-2.128-9.166-0.327-11.948,2.782c-2.782,3.11-5.728,7.693-8.838,13.585
			S195.734,73.078,195.734,73.078z"/>
	</g>
	<g display="inline">
		
			<linearGradient id="SVGID_29_" gradientUnits="userSpaceOnUse" x1="-281.6519" y1="608.4182" x2="-272.8241" y2="659.924" gradientTransform="matrix(0.9649 -0.2627 -0.2627 -0.9649 606.2602 625.2657)">
			<stop  offset="0" style="stop-color:#643720"/>
			<stop  offset="0.5294" style="stop-color:#875637"/>
			<stop  offset="1" style="stop-color:#A16D48"/>
		</linearGradient>
		<path fill="url(#SVGID_29_)" d="M179.05,111.507L179.05,111.507c-9.68,2.635-19.756-3.129-22.391-12.809l-4.205-15.445
			c-2.635-9.68,3.129-19.756,12.809-22.391l0,0c9.68-2.635,19.756,3.129,22.391,12.809l4.205,15.445
			C194.494,98.795,188.73,108.872,179.05,111.507z"/>
		<path fill="#5D311B" d="M176.06,100.923L176.06,100.923c-5.702,1.552-11.637-1.843-13.189-7.545l-2.477-9.098
			c-1.552-5.702,1.843-11.637,7.545-13.189l0,0c5.702-1.552,11.637,1.843,13.189,7.545l2.477,9.098
			C185.157,93.435,181.762,99.37,176.06,100.923z"/>
	</g>
	<g display="inline">
		
			<linearGradient id="SVGID_30_" gradientUnits="userSpaceOnUse" x1="-451.6859" y1="962.1444" x2="-442.9238" y2="1013.2667" gradientTransform="matrix(0.9408 0.3389 0.3389 -0.9408 360.5054 1163.9449)">
			<stop  offset="0" style="stop-color:#643720"/>
			<stop  offset="0.5294" style="stop-color:#875637"/>
			<stop  offset="1" style="stop-color:#A16D48"/>
		</linearGradient>
		<path fill="url(#SVGID_30_)" d="M265.587,107.626L265.587,107.626c-9.368-3.374-14.271-13.8-10.897-23.168l5.384-14.947
			c3.374-9.368,13.8-14.271,23.168-10.897l0,0c9.368,3.374,14.271,13.8,10.897,23.168l-5.384,14.947
			C285.38,106.097,274.954,111.001,265.587,107.626z"/>
		<path fill="#5D311B" d="M269.188,97.322L269.188,97.322c-5.518-1.988-8.406-8.129-6.419-13.647l3.171-8.804
			c1.988-5.518,8.129-8.406,13.647-6.419l0,0c5.518,1.988,8.406,8.129,6.419,13.647l-3.171,8.804
			C280.847,96.421,274.706,99.31,269.188,97.322z"/>
	</g>
	<path display="inline" fill="#663921" d="M242.122,432.529c0,0,1.63,42.315,7.167,78.841c6.434,42.44,3.18,58.687,48.56,62.986
		c19.185,1.817,34.083,1.118,49.393-0.135c15.715-1.286,18.967-20.248,9.496-26.936c-5.561-3.927-10.662-8.564-12.053-13.665
		c-2.953-10.829-0.242-41.737-0.242-66.394c0-18.506,1.207-52.61,1.207-64.264C345.65,337.109,235.757,347.595,242.122,432.529z"/>
	
		<linearGradient id="XMLID_45_" gradientUnits="userSpaceOnUse" x1="-441.8219" y1="544.3703" x2="-182.4926" y2="544.3703" gradientTransform="matrix(1 0 0 -1 539.04 881.1949)">
		<stop  offset="0" style="stop-color:#5E321C"/>
		<stop  offset="0.0724" style="stop-color:#704228"/>
		<stop  offset="0.1613" style="stop-color:#7E4E31"/>
		<stop  offset="0.2725" style="stop-color:#865536"/>
		<stop  offset="0.4744" style="stop-color:#885738"/>
		<stop  offset="0.7114" style="stop-color:#8A593A"/>
		<stop  offset="0.8433" style="stop-color:#92603F"/>
		<stop  offset="0.949" style="stop-color:#A06C48"/>
		<stop  offset="1" style="stop-color:#AA754E"/>
	</linearGradient>
	<path id="XMLID_25_" display="inline" fill="url(#XMLID_45_)" d="M224.688,469.743c5.454,0.219,11.087,0.343,16.93,0.343
		c93.726,0,118.001-84.29,114.63-151.047c-2.982-59.041-13.46-95.324-33.042-125.578c-14.321-22.125-21.256-21.63-26.299-42.412
		c-1.882-7.756-3.758-81.066-67.645-76.235c-63.887,4.832-76.235,37.58-81.067,53.686s-3.395,36.904-19.864,60.666
		C90.751,243.389,97.73,292.127,97.73,371.163c0,4.837,0.184,10.547,0.475,16.563c0.749,15.469,5.955,29.892,14.46,41.907
		c5.438,7.682,8.722,16.631,9.379,26.02c0.011,0.159,0.023,0.319,0.035,0.479c0,0,1.63,42.315,7.167,78.841
		c6.434,42.44,3.18,58.687,48.56,62.986c19.185,1.817,34.083,1.119,49.393-0.135c15.715-1.286,18.967-20.248,9.496-26.937
		c-5.561-3.927-10.662-8.564-12.053-13.665c-2.953-10.829-0.242-41.737-0.242-66.394
		C224.401,484.961,224.523,477.529,224.688,469.743z"/>
	<path id="XMLID_24_" display="inline" fill="#AA7D61" d="M235.974,167.691L235.974,167.691c-11.073,0-20.132-9.06-20.132-20.132
		v-14.495c0-11.073,9.06-20.132,20.132-20.132l0,0c11.073,0,20.132,9.06,20.132,20.132v14.495
		C256.106,158.631,247.046,167.691,235.974,167.691z"/>
	<path id="XMLID_23_" display="inline" fill="#412F25" d="M239.374,126.953h-6.979c-3.986,0-7.248-3.261-7.248-7.248l0,0
		c0-3.986,3.261-7.248,7.248-7.248h6.979c3.986,0,7.248,3.261,7.248,7.248l0,0C246.621,123.691,243.36,126.953,239.374,126.953z"/>
	<circle display="inline" fill="#412F25" cx="193.74" cy="128.962" r="3.898"/>
	<circle display="inline" fill="#412F25" cx="270.964" cy="125.064" r="3.898"/>
	<path id="XMLID_22_" display="inline" fill="#AA7D61" d="M335.002,330.072c0,48.737-14.484,88.245-61.155,88.245
		c-45.598,0-61.155-39.509-61.155-88.245s17.166-88.245,61.155-88.245C315.69,241.826,335.002,281.335,335.002,330.072z"/>
	
		<linearGradient id="XMLID_46_" gradientUnits="userSpaceOnUse" x1="-476.5639" y1="595.2623" x2="-375.8546" y2="595.2623" gradientTransform="matrix(1 0 0 -1 539.04 881.1949)">
		<stop  offset="0" style="stop-color:#5E321C"/>
		<stop  offset="0.0724" style="stop-color:#704228"/>
		<stop  offset="0.1613" style="stop-color:#7E4E31"/>
		<stop  offset="0.2725" style="stop-color:#865536"/>
		<stop  offset="0.4744" style="stop-color:#885738"/>
		<stop  offset="0.7114" style="stop-color:#8A593A"/>
		<stop  offset="0.8433" style="stop-color:#92603F"/>
		<stop  offset="0.949" style="stop-color:#A06C48"/>
		<stop  offset="1" style="stop-color:#AA754E"/>
	</linearGradient>
	<path id="XMLID_21_" display="inline" fill="url(#XMLID_46_)" d="M129.299,199.466c-15.832,4.262-28.771,23.459-36.536,34.1
		c-16.441,22.53-27.402,57.848-29.229,74.898c-2.358,22.006-1.827,48.714,12.787,59.066s29.837,4.871,35.927-2.436
		c6.089-7.307,6.089-26.184,8.525-43.234c2.436-17.05,7.916-42.016,21.921-56.021c16.881-16.881,23.139-35.318,19.486-47.496
		C158.469,205.971,143.999,195.509,129.299,199.466z"/>
	<g display="inline">
		<path fill="#663921" d="M73.064,366.152c-0.142,0-0.283-0.05-0.397-0.152c-0.246-0.219-0.268-0.596-0.049-0.843
			c0.637-0.714,1.213-1.462,1.713-2.22c2.216-3.37,3.017-7.227,2.198-10.582c-0.078-0.32,0.118-0.643,0.439-0.721
			c0.321-0.078,0.643,0.118,0.722,0.439c0.898,3.675,0.037,7.874-2.361,11.52c-0.531,0.807-1.143,1.602-1.818,2.36
			C73.392,366.085,73.229,366.152,73.064,366.152z"/>
	</g>
	<g display="inline">
		<path fill="#663921" d="M86.042,372.727c-0.131,0-0.262-0.043-0.373-0.131c-0.258-0.206-0.299-0.582-0.093-0.84
			c3.591-4.482,5.141-10.377,4.148-15.767c-0.06-0.324,0.155-0.636,0.479-0.696c0.324-0.052,0.636,0.155,0.695,0.479
			c1.055,5.728-0.587,11.982-4.391,16.731C86.391,372.65,86.217,372.727,86.042,372.727z"/>
	</g>
	<g display="inline">
		<path fill="#663921" d="M104.796,372.118c-0.047,0-0.094-0.006-0.141-0.016c-0.321-0.078-0.517-0.401-0.44-0.721
			c1.137-4.698,0.29-9.672-2.266-13.307c-0.19-0.271-0.125-0.643,0.145-0.833s0.642-0.124,0.832,0.145
			c2.751,3.913,3.666,9.25,2.449,14.276C105.31,371.935,105.066,372.118,104.796,372.118z"/>
	</g>
	
		<animate  fill="remove" accumulate="none" restart="always" dur="1s" begin="0s" additive="replace" attributeName="display" calcMode="linear" values="none;none;none;none; inline; none; none; none" id="antonia5" keyTimes="0;0.125;0.25; 0.375; 0.5; 0.625; 0.75; 1" repeatCount="indefinite">
		</animate>
</g>
<g id="layer6" display="none">
	<path display="inline" fill="#663921" d="M416.776,119.124c-5.161-10.579-12.12-13.23-16.823-12.832
		c-6.158,0.523-12.236,9.973-14.565,10.891c-0.351,0.138-0.691,0.283-1.036,0.422c0.588-4.629,0.447-10.411-3.796-11.393
		c-5.379-1.246-14.298,18.36-18.506,28.46c-0.451,0.574-0.882,1.07-1.345,1.688c-9.498,12.691-24.955,30.428-42.451,35.549
		c-21.089,6.171-34.287,18.294-36.718,29.741c-2.47,11.63,4.592,26.471,18.211,29.77c14.667,3.553,33.595-6.231,44.566-11.392
		c23.229-10.928,47.682-34.602,56.691-47.562C412.63,155.74,424.003,133.939,416.776,119.124z"/>
	<path display="inline" fill="#AA7D62" d="M387.002,125.572c-0.874-0.23-1.775-0.463-2.672-0.346
		c-2.653,0.345-3.955,3.384-4.492,6.005c-1.01,4.929-0.81,10.806,3.06,14.022c5.628,4.678,14.116,0.095,16.17-6.215
		C401.575,131.336,393.067,127.17,387.002,125.572z"/>
	<g display="inline">
		<path fill="#273543" d="M219.458,66.262c-0.205,0.074-0.312,0.298-0.238,0.503l3.034,8.469c0.067,0.186,0.258,0.29,0.445,0.254
			c0.02-0.004,0.039-0.009,0.058-0.016c0.205-0.074,0.312-0.298,0.238-0.503l-3.033-8.469
			C219.887,66.295,219.662,66.192,219.458,66.262z"/>
		<path fill="#273543" d="M223.881,66.262c-0.078-0.203-0.314-0.307-0.508-0.226c-0.202,0.078-0.304,0.306-0.226,0.508l3.238,8.394
			c0.069,0.181,0.258,0.281,0.442,0.245c0.022-0.004,0.045-0.01,0.067-0.019c0.202-0.078,0.304-0.306,0.226-0.508L223.881,66.262z"
			/>
	</g>
	
		<linearGradient id="SVGID_31_" gradientUnits="userSpaceOnUse" x1="-301.2433" y1="837.6251" x2="-299.0124" y2="843.7545" gradientTransform="matrix(1 0 0 -1 539.04 881.1949)">
		<stop  offset="0" style="stop-color:#273543"/>
		<stop  offset="0.2551" style="stop-color:#2A3947"/>
		<stop  offset="0.5082" style="stop-color:#344353"/>
		<stop  offset="0.7599" style="stop-color:#445567"/>
		<stop  offset="0.8333" style="stop-color:#4A5C6E"/>
		<stop  offset="0.8531" style="stop-color:#4E6073"/>
		<stop  offset="0.9294" style="stop-color:#586D80"/>
		<stop  offset="1" style="stop-color:#5C7184"/>
	</linearGradient>
	<path display="inline" fill="url(#SVGID_31_)" d="M237.081,36.368c0,0,0.212,2.221,0.212,3.49s-0.106,3.49-0.106,3.49
		s1.269-2.115,2.856-2.856c1.586-0.74,2.75-1.481,2.75-1.481s-2.433-1.269-3.067-1.481C239.091,37.32,237.081,36.368,237.081,36.368
		z"/>
	
		<radialGradient id="SVGID_32_" cx="-332.1669" cy="830.6047" r="26.3012" gradientTransform="matrix(1 0 0 -1 539.04 881.1949)" gradientUnits="userSpaceOnUse">
		<stop  offset="0" style="stop-color:#E4E1B2"/>
		<stop  offset="0.184" style="stop-color:#D7D39A"/>
		<stop  offset="0.3679" style="stop-color:#CEC98A"/>
		<stop  offset="0.5077" style="stop-color:#CBC684"/>
		<stop  offset="0.7957" style="stop-color:#DCD8A2"/>
		<stop  offset="1" style="stop-color:#E5E2B3"/>
	</radialGradient>
	<path display="inline" fill="url(#SVGID_32_)" d="M175.489,65.653c0,0,6.71,1.71,14.209,2.5c7.499,0.789,14.736,2.237,21.84,2.368
		c7.105,0.132,17.367,0.132,21.446-5.526c4.079-5.657,5.131-18.683,5.263-22.498s-0.921-10.789-7.763-11.71
		s-11.052,2.237-13.946,6.71s-7.631,15.525-11.183,20.656s-3.815,6.973-6.842,6.842c-3.026-0.132-10.657-3.158-12.631-3.815
		s-2.631-1.184-2.631-1.184s-2.763,1.447-4.079,2.368C177.857,63.285,175.489,65.653,175.489,65.653z"/>
	<g display="inline">
		
			<linearGradient id="SVGID_33_" gradientUnits="userSpaceOnUse" x1="-342.3956" y1="821.8457" x2="-301.7438" y2="845.3161" gradientTransform="matrix(1 0 0 -1 539.04 881.1949)">
			<stop  offset="0" style="stop-color:#6C5F51"/>
			<stop  offset="0.259" style="stop-color:#716455"/>
			<stop  offset="0.5869" style="stop-color:#817160"/>
			<stop  offset="0.782" style="stop-color:#8E7C69"/>
			<stop  offset="0.9204" style="stop-color:#907E6A"/>
			<stop  offset="0.9701" style="stop-color:#97836F"/>
			<stop  offset="1" style="stop-color:#A08B75"/>
		</linearGradient>
		<path fill="url(#SVGID_33_)" d="M219.696,58.776c11.578-7.631,9.736-13.288,9.078-15.262s-0.526-4.342,2.105-7.105
			c2.951-2.257,5.312-1.157,6.472-0.172c-1.014-2.677-3.188-5.104-6.999-5.617c-6.842-0.921-11.052,2.237-13.946,6.71
			s-7.631,15.525-11.183,20.656c-2.933,4.237-3.642,6.207-5.498,6.699C202.378,64.923,210.3,64.97,219.696,58.776z"/>
	</g>
	
		<linearGradient id="SVGID_34_" gradientUnits="userSpaceOnUse" x1="-346.6367" y1="813.8859" x2="-309.0034" y2="835.6135" gradientTransform="matrix(1 0 0 -1 539.04 881.1949)">
		<stop  offset="0" style="stop-color:#6C5F51"/>
		<stop  offset="0.3689" style="stop-color:#7A6B5B"/>
		<stop  offset="0.782" style="stop-color:#8E7C69"/>
		<stop  offset="0.9175" style="stop-color:#907E6A"/>
		<stop  offset="0.9662" style="stop-color:#97836D"/>
		<stop  offset="1" style="stop-color:#A28D73"/>
	</linearGradient>
	<path display="inline" fill="url(#SVGID_34_)" d="M195.734,73.078c0,0,16.204-4.442,21.605-7.716s11.621-7.856,12.766-13.421
		s-0.491-9.002-5.074-11.13c-4.583-2.128-9.166-0.327-11.948,2.782c-2.782,3.11-5.728,7.693-8.838,13.585
		S195.734,73.078,195.734,73.078z"/>
	
		<linearGradient id="SVGID_35_" gradientUnits="userSpaceOnUse" x1="-281.6519" y1="608.4182" x2="-272.8241" y2="659.924" gradientTransform="matrix(0.9649 -0.2627 -0.2627 -0.9649 606.2602 625.2657)">
		<stop  offset="0" style="stop-color:#643720"/>
		<stop  offset="0.5294" style="stop-color:#875637"/>
		<stop  offset="1" style="stop-color:#A16D48"/>
	</linearGradient>
	<path display="inline" fill="url(#SVGID_35_)" d="M179.05,111.507L179.05,111.507c-9.68,2.635-19.756-3.129-22.391-12.809
		l-4.205-15.445c-2.635-9.68,3.129-19.756,12.809-22.391l0,0c9.68-2.635,19.756,3.129,22.391,12.809l4.205,15.445
		C194.494,98.795,188.73,108.872,179.05,111.507z"/>
	<path display="inline" fill="#5D311B" d="M176.06,100.923L176.06,100.923c-5.702,1.552-11.637-1.843-13.189-7.545l-2.477-9.098
		c-1.552-5.702,1.843-11.637,7.545-13.189l0,0c5.702-1.552,11.637,1.843,13.189,7.545l2.477,9.098
		C185.157,93.435,181.762,99.37,176.06,100.923z"/>
	
		<linearGradient id="SVGID_36_" gradientUnits="userSpaceOnUse" x1="-451.6859" y1="962.1444" x2="-442.9238" y2="1013.2667" gradientTransform="matrix(0.9408 0.3389 0.3389 -0.9408 360.5054 1163.9449)">
		<stop  offset="0" style="stop-color:#643720"/>
		<stop  offset="0.5294" style="stop-color:#875637"/>
		<stop  offset="1" style="stop-color:#A16D48"/>
	</linearGradient>
	<path display="inline" fill="url(#SVGID_36_)" d="M265.587,107.626L265.587,107.626c-9.368-3.374-14.271-13.8-10.897-23.168
		l5.384-14.947c3.374-9.368,13.8-14.271,23.168-10.897l0,0c9.368,3.374,14.271,13.8,10.897,23.168l-5.384,14.947
		C285.38,106.097,274.954,111.001,265.587,107.626z"/>
	<path display="inline" fill="#5D311B" d="M269.188,97.322L269.188,97.322c-5.518-1.988-8.406-8.129-6.419-13.647l3.171-8.804
		c1.988-5.518,8.129-8.406,13.647-6.419l0,0c5.518,1.988,8.406,8.129,6.419,13.647l-3.171,8.804
		C280.847,96.421,274.706,99.31,269.188,97.322z"/>
	<path display="inline" fill="#663921" d="M242.122,432.529c0,0,1.63,42.315,7.167,78.841c6.434,42.44,3.18,58.687,48.56,62.986
		c19.185,1.817,34.083,1.118,49.393-0.135c15.715-1.286,18.967-20.248,9.496-26.936c-5.561-3.927-10.662-8.564-12.053-13.665
		c-2.953-10.829-0.242-41.737-0.242-66.394c0-18.506,1.207-52.61,1.207-64.264C345.65,337.109,235.757,347.595,242.122,432.529z"/>
	
		<linearGradient id="XMLID_47_" gradientUnits="userSpaceOnUse" x1="-441.8219" y1="544.3703" x2="-182.4926" y2="544.3703" gradientTransform="matrix(1 0 0 -1 539.04 881.1949)">
		<stop  offset="0" style="stop-color:#5E321C"/>
		<stop  offset="0.0724" style="stop-color:#704228"/>
		<stop  offset="0.1613" style="stop-color:#7E4E31"/>
		<stop  offset="0.2725" style="stop-color:#865536"/>
		<stop  offset="0.4744" style="stop-color:#885738"/>
		<stop  offset="0.7114" style="stop-color:#8A593A"/>
		<stop  offset="0.8433" style="stop-color:#92603F"/>
		<stop  offset="0.949" style="stop-color:#A06C48"/>
		<stop  offset="1" style="stop-color:#AA754E"/>
	</linearGradient>
	<path id="XMLID_30_" display="inline" fill="url(#XMLID_47_)" d="M224.688,469.743c5.454,0.219,11.087,0.343,16.93,0.343
		c93.726,0,118.001-84.29,114.63-151.047c-2.982-59.041-13.46-95.324-33.042-125.578c-14.321-22.125-21.256-21.63-26.299-42.412
		c-1.882-7.756-3.758-81.066-67.645-76.235c-63.887,4.832-76.235,37.58-81.067,53.686s-3.395,36.904-19.864,60.666
		C90.751,243.389,97.73,292.127,97.73,371.163c0,4.837,0.184,10.547,0.475,16.563c0.749,15.469,5.955,29.892,14.46,41.907
		c5.438,7.682,8.722,16.631,9.379,26.02c0.011,0.159,0.023,0.319,0.035,0.479c0,0,1.63,42.315,7.167,78.841
		c6.434,42.44,3.18,58.687,48.56,62.986c19.185,1.817,34.083,1.119,49.393-0.135c15.715-1.286,18.967-20.248,9.496-26.937
		c-5.561-3.927-10.662-8.564-12.053-13.665c-2.953-10.829-0.242-41.737-0.242-66.394
		C224.401,484.961,224.523,477.529,224.688,469.743z"/>
	<path id="XMLID_29_" display="inline" fill="#AA7D61" d="M235.974,167.691L235.974,167.691c-11.073,0-20.132-9.06-20.132-20.132
		v-14.495c0-11.073,9.06-20.132,20.132-20.132l0,0c11.073,0,20.132,9.06,20.132,20.132v14.495
		C256.106,158.631,247.046,167.691,235.974,167.691z"/>
	<path id="XMLID_28_" display="inline" fill="#412F25" d="M239.374,126.953h-6.979c-3.986,0-7.248-3.261-7.248-7.248l0,0
		c0-3.986,3.261-7.248,7.248-7.248h6.979c3.986,0,7.248,3.261,7.248,7.248l0,0C246.621,123.691,243.36,126.953,239.374,126.953z"/>
	<circle display="inline" fill="#412F25" cx="193.74" cy="128.962" r="3.898"/>
	<circle display="inline" fill="#412F25" cx="270.964" cy="125.064" r="3.898"/>
	<path id="XMLID_27_" display="inline" fill="#AA7D61" d="M335.002,330.072c0,48.737-14.484,88.245-61.155,88.245
		c-45.598,0-61.155-39.509-61.155-88.245s17.166-88.245,61.155-88.245C315.69,241.826,335.002,281.335,335.002,330.072z"/>
	
		<linearGradient id="XMLID_48_" gradientUnits="userSpaceOnUse" x1="-476.5639" y1="595.2623" x2="-375.8546" y2="595.2623" gradientTransform="matrix(1 0 0 -1 539.04 881.1949)">
		<stop  offset="0" style="stop-color:#5E321C"/>
		<stop  offset="0.0724" style="stop-color:#704228"/>
		<stop  offset="0.1613" style="stop-color:#7E4E31"/>
		<stop  offset="0.2725" style="stop-color:#865536"/>
		<stop  offset="0.4744" style="stop-color:#885738"/>
		<stop  offset="0.7114" style="stop-color:#8A593A"/>
		<stop  offset="0.8433" style="stop-color:#92603F"/>
		<stop  offset="0.949" style="stop-color:#A06C48"/>
		<stop  offset="1" style="stop-color:#AA754E"/>
	</linearGradient>
	<path id="XMLID_26_" display="inline" fill="url(#XMLID_48_)" d="M129.299,199.466c-15.832,4.262-28.771,23.459-36.536,34.1
		c-16.441,22.53-27.402,57.848-29.229,74.898c-2.358,22.006-1.827,48.714,12.787,59.066s29.837,4.871,35.927-2.436
		s6.089-26.184,8.525-43.234c2.436-17.05,7.916-42.016,21.921-56.021c16.881-16.881,23.139-35.318,19.486-47.496
		C158.469,205.971,143.999,195.509,129.299,199.466z"/>
	<g display="inline">
		<path fill="#663921" d="M73.064,366.152c-0.142,0-0.283-0.05-0.397-0.152c-0.246-0.219-0.268-0.596-0.049-0.843
			c0.637-0.714,1.213-1.462,1.713-2.22c2.216-3.37,3.017-7.227,2.198-10.582c-0.078-0.32,0.118-0.643,0.439-0.721
			c0.321-0.078,0.643,0.118,0.722,0.439c0.898,3.675,0.037,7.874-2.361,11.52c-0.531,0.807-1.143,1.602-1.818,2.36
			C73.392,366.085,73.229,366.152,73.064,366.152z"/>
	</g>
	<g display="inline">
		<path fill="#663921" d="M86.042,372.727c-0.131,0-0.262-0.043-0.373-0.131c-0.258-0.206-0.299-0.582-0.093-0.84
			c3.591-4.482,5.141-10.377,4.148-15.767c-0.06-0.324,0.155-0.636,0.479-0.696c0.324-0.052,0.636,0.155,0.695,0.479
			c1.055,5.728-0.587,11.982-4.391,16.731C86.391,372.65,86.217,372.727,86.042,372.727z"/>
	</g>
	<g display="inline">
		<path fill="#663921" d="M104.796,372.118c-0.047,0-0.094-0.006-0.141-0.016c-0.321-0.078-0.517-0.401-0.44-0.721
			c1.137-4.698,0.29-9.672-2.266-13.307c-0.19-0.271-0.125-0.643,0.145-0.833s0.642-0.124,0.832,0.145
			c2.751,3.913,3.666,9.25,2.449,14.276C105.31,371.935,105.066,372.118,104.796,372.118z"/>
	</g>
	<path display="inline" fill="#273543" d="M233.11,40.529c-0.89,0-1.613-0.723-1.613-1.613c0-0.165,0.134-0.299,0.299-0.299
		c0.164,0,0.299,0.134,0.299,0.299c0,0.56,0.456,1.015,1.016,1.015c0.56,0,1.015-0.456,1.015-1.015c0-0.165,0.134-0.299,0.299-0.299
		s0.299,0.134,0.299,0.299C234.722,39.805,233.998,40.529,233.11,40.529z"/>
	
		<animate  fill="remove" accumulate="none" restart="always" dur="1s" begin="0s" additive="replace" attributeName="display" calcMode="linear" values="none;none;none;none; none; inline; none; none" id="antonia6" keyTimes="0;0.125;0.25; 0.375; 0.5; 0.625; 0.75; 1" repeatCount="indefinite">
		</animate>
</g>
<g id="layer7" display="none">
	<path display="inline" fill="#273543" d="M219.458,66.262c-0.205,0.074-0.312,0.298-0.238,0.503l3.034,8.469
		c0.067,0.186,0.258,0.29,0.445,0.254c0.02-0.004,0.039-0.009,0.058-0.016c0.205-0.074,0.312-0.298,0.238-0.503l-3.033-8.469
		C219.887,66.295,219.662,66.192,219.458,66.262z"/>
	<path display="inline" fill="#273543" d="M223.881,66.262c-0.078-0.203-0.314-0.307-0.508-0.226
		c-0.202,0.078-0.304,0.306-0.226,0.508l3.238,8.394c0.069,0.181,0.258,0.281,0.442,0.245c0.022-0.004,0.045-0.01,0.067-0.019
		c0.202-0.078,0.304-0.306,0.226-0.508L223.881,66.262z"/>
	
		<linearGradient id="SVGID_37_" gradientUnits="userSpaceOnUse" x1="-301.2433" y1="837.6251" x2="-299.0124" y2="843.7545" gradientTransform="matrix(1 0 0 -1 539.04 881.1949)">
		<stop  offset="0" style="stop-color:#273543"/>
		<stop  offset="0.2551" style="stop-color:#2A3947"/>
		<stop  offset="0.5082" style="stop-color:#344353"/>
		<stop  offset="0.7599" style="stop-color:#445567"/>
		<stop  offset="0.8333" style="stop-color:#4A5C6E"/>
		<stop  offset="0.8531" style="stop-color:#4E6073"/>
		<stop  offset="0.9294" style="stop-color:#586D80"/>
		<stop  offset="1" style="stop-color:#5C7184"/>
	</linearGradient>
	<path display="inline" fill="url(#SVGID_37_)" d="M237.081,36.368c0,0,0.212,2.221,0.212,3.49s-0.106,3.49-0.106,3.49
		s1.269-2.115,2.856-2.856s2.75-1.481,2.75-1.481s-2.433-1.269-3.067-1.481C239.091,37.32,237.081,36.368,237.081,36.368z"/>
	
		<radialGradient id="SVGID_38_" cx="-332.1669" cy="830.6047" r="26.3012" gradientTransform="matrix(1 0 0 -1 539.04 881.1949)" gradientUnits="userSpaceOnUse">
		<stop  offset="0" style="stop-color:#E4E1B2"/>
		<stop  offset="0.184" style="stop-color:#D7D39A"/>
		<stop  offset="0.3679" style="stop-color:#CEC98A"/>
		<stop  offset="0.5077" style="stop-color:#CBC684"/>
		<stop  offset="0.7957" style="stop-color:#DCD8A2"/>
		<stop  offset="1" style="stop-color:#E5E2B3"/>
	</radialGradient>
	<path display="inline" fill="url(#SVGID_38_)" d="M175.489,65.653c0,0,6.71,1.71,14.209,2.5c7.499,0.789,14.736,2.237,21.84,2.368
		c7.105,0.132,17.367,0.132,21.446-5.526c4.079-5.657,5.131-18.683,5.263-22.498s-0.921-10.789-7.763-11.71
		s-11.052,2.237-13.946,6.71s-7.631,15.525-11.183,20.656s-3.815,6.973-6.842,6.842c-3.026-0.132-10.657-3.158-12.631-3.815
		s-2.631-1.184-2.631-1.184s-2.763,1.447-4.079,2.368S175.489,65.653,175.489,65.653z"/>
	
		<linearGradient id="SVGID_39_" gradientUnits="userSpaceOnUse" x1="-342.3956" y1="821.8457" x2="-301.7438" y2="845.3161" gradientTransform="matrix(1 0 0 -1 539.04 881.1949)">
		<stop  offset="0" style="stop-color:#6C5F51"/>
		<stop  offset="0.259" style="stop-color:#716455"/>
		<stop  offset="0.5869" style="stop-color:#817160"/>
		<stop  offset="0.782" style="stop-color:#8E7C69"/>
		<stop  offset="0.9204" style="stop-color:#907E6A"/>
		<stop  offset="0.9701" style="stop-color:#97836F"/>
		<stop  offset="1" style="stop-color:#A08B75"/>
	</linearGradient>
	<path display="inline" fill="url(#SVGID_39_)" d="M219.696,58.776c11.578-7.631,9.736-13.288,9.078-15.262
		s-0.526-4.342,2.105-7.105c2.951-2.257,5.312-1.157,6.472-0.172c-1.014-2.677-3.188-5.104-6.999-5.617
		c-6.842-0.921-11.052,2.237-13.946,6.71s-7.631,15.525-11.183,20.656c-2.933,4.237-3.642,6.207-5.498,6.699
		C202.378,64.923,210.3,64.97,219.696,58.776z"/>
	<circle display="inline" fill="#273543" cx="233.116" cy="38.944" r="0.892"/>
	
		<linearGradient id="SVGID_40_" gradientUnits="userSpaceOnUse" x1="-346.6367" y1="813.8859" x2="-309.0034" y2="835.6135" gradientTransform="matrix(1 0 0 -1 539.04 881.1949)">
		<stop  offset="0" style="stop-color:#6C5F51"/>
		<stop  offset="0.3689" style="stop-color:#7A6B5B"/>
		<stop  offset="0.782" style="stop-color:#8E7C69"/>
		<stop  offset="0.9175" style="stop-color:#907E6A"/>
		<stop  offset="0.9662" style="stop-color:#97836D"/>
		<stop  offset="1" style="stop-color:#A28D73"/>
	</linearGradient>
	<path display="inline" fill="url(#SVGID_40_)" d="M195.734,73.078c0,0,16.204-4.442,21.605-7.716s11.621-7.856,12.766-13.421
		s-0.491-9.002-5.074-11.13c-4.583-2.128-9.166-0.327-11.948,2.782c-2.782,3.11-5.728,7.693-8.838,13.585
		S195.734,73.078,195.734,73.078z"/>
	
		<linearGradient id="SVGID_41_" gradientUnits="userSpaceOnUse" x1="-281.6519" y1="608.4182" x2="-272.8241" y2="659.924" gradientTransform="matrix(0.9649 -0.2627 -0.2627 -0.9649 606.2602 625.2657)">
		<stop  offset="0" style="stop-color:#643720"/>
		<stop  offset="0.5294" style="stop-color:#875637"/>
		<stop  offset="1" style="stop-color:#A16D48"/>
	</linearGradient>
	<path display="inline" fill="url(#SVGID_41_)" d="M179.05,111.507L179.05,111.507c-9.68,2.635-19.756-3.129-22.391-12.809
		l-4.205-15.445c-2.635-9.68,3.129-19.756,12.809-22.391l0,0c9.68-2.635,19.756,3.129,22.391,12.809l4.205,15.445
		C194.494,98.795,188.73,108.872,179.05,111.507z"/>
	<path display="inline" fill="#5D311B" d="M176.06,100.923L176.06,100.923c-5.702,1.552-11.637-1.843-13.189-7.545l-2.477-9.098
		c-1.552-5.702,1.843-11.637,7.545-13.189l0,0c5.702-1.552,11.637,1.843,13.189,7.545l2.477,9.098
		C185.157,93.435,181.762,99.37,176.06,100.923z"/>
	
		<linearGradient id="SVGID_42_" gradientUnits="userSpaceOnUse" x1="-451.6859" y1="962.1444" x2="-442.9238" y2="1013.2667" gradientTransform="matrix(0.9408 0.3389 0.3389 -0.9408 360.5054 1163.9449)">
		<stop  offset="0" style="stop-color:#643720"/>
		<stop  offset="0.5294" style="stop-color:#875637"/>
		<stop  offset="1" style="stop-color:#A16D48"/>
	</linearGradient>
	<path display="inline" fill="url(#SVGID_42_)" d="M265.587,107.626L265.587,107.626c-9.368-3.374-14.271-13.8-10.897-23.168
		l5.384-14.947c3.374-9.368,13.8-14.271,23.168-10.897l0,0c9.368,3.374,14.271,13.8,10.897,23.168l-5.384,14.947
		C285.38,106.097,274.954,111.001,265.587,107.626z"/>
	<path display="inline" fill="#5D311B" d="M269.188,97.322L269.188,97.322c-5.518-1.988-8.406-8.129-6.419-13.647l3.171-8.804
		c1.988-5.518,8.129-8.406,13.647-6.419l0,0c5.518,1.988,8.406,8.129,6.419,13.647l-3.171,8.804
		C280.847,96.421,274.706,99.31,269.188,97.322z"/>
	<path display="inline" fill="#663921" d="M396.953,99.533c-7.289-9.243-14.652-10.356-19.163-8.969
		c-5.907,1.818-9.841,12.343-11.922,13.734c-0.314,0.209-0.615,0.423-0.923,0.632c-0.408-4.648-1.773-10.269-6.127-10.328
		c-5.521-0.076-10.076,20.976-12.044,31.739c-0.319,0.657-0.635,1.233-0.956,1.935c-6.588,14.418-17.928,35.032-33.939,43.749
		c-19.298,10.507-29.623,25.154-29.569,36.857c0.055,11.89,10.106,24.893,24.114,25.227c15.087,0.36,31.507-13.219,41.133-20.591
		c20.381-15.609,39.252-43.934,45.305-58.511C400.673,136.194,407.159,112.477,396.953,99.533z"/>
	<path display="inline" fill="#AA7D62" d="M369.225,112.153c-0.903-0.039-1.833-0.075-2.684,0.229
		c-2.519,0.9-3.147,4.146-3.115,6.821c0.059,5.031,1.502,10.732,5.966,13.053c6.493,3.377,13.815-2.903,14.483-9.506
		C384.69,114.693,375.491,112.427,369.225,112.153z"/>
	<path display="inline" fill="#663921" d="M242.122,432.529c0,0,1.63,42.315,7.167,78.841c6.434,42.44,3.18,58.687,48.56,62.986
		c19.185,1.817,34.083,1.118,49.393-0.135c15.715-1.286,18.967-20.248,9.496-26.936c-5.561-3.927-10.662-8.564-12.053-13.665
		c-2.953-10.829-0.242-41.737-0.242-66.394c0-18.506,1.207-52.61,1.207-64.264C345.65,337.109,235.757,347.595,242.122,432.529z"/>
	
		<linearGradient id="XMLID_49_" gradientUnits="userSpaceOnUse" x1="-441.8219" y1="544.3703" x2="-182.4926" y2="544.3703" gradientTransform="matrix(1 0 0 -1 539.04 881.1949)">
		<stop  offset="0" style="stop-color:#5E321C"/>
		<stop  offset="0.0724" style="stop-color:#704228"/>
		<stop  offset="0.1613" style="stop-color:#7E4E31"/>
		<stop  offset="0.2725" style="stop-color:#865536"/>
		<stop  offset="0.4744" style="stop-color:#885738"/>
		<stop  offset="0.7114" style="stop-color:#8A593A"/>
		<stop  offset="0.8433" style="stop-color:#92603F"/>
		<stop  offset="0.949" style="stop-color:#A06C48"/>
		<stop  offset="1" style="stop-color:#AA754E"/>
	</linearGradient>
	<path id="XMLID_35_" display="inline" fill="url(#XMLID_49_)" d="M224.688,469.743c5.454,0.219,11.087,0.343,16.93,0.343
		c93.726,0,118.001-84.29,114.63-151.047c-2.982-59.041-13.46-95.324-33.042-125.578c-14.321-22.125-21.256-21.63-26.299-42.412
		c-1.882-7.756-3.758-81.066-67.645-76.235c-63.887,4.832-76.235,37.58-81.067,53.686s-3.395,36.904-19.864,60.666
		C90.751,243.389,97.73,292.127,97.73,371.163c0,4.837,0.184,10.547,0.475,16.563c0.749,15.469,5.955,29.892,14.46,41.907
		c5.438,7.682,8.722,16.631,9.379,26.02c0.011,0.159,0.023,0.319,0.035,0.479c0,0,1.63,42.315,7.167,78.841
		c6.434,42.44,3.18,58.687,48.56,62.986c19.185,1.817,34.083,1.119,49.393-0.135c15.715-1.286,18.967-20.248,9.496-26.937
		c-5.561-3.927-10.662-8.564-12.053-13.665c-2.953-10.829-0.242-41.737-0.242-66.394
		C224.401,484.961,224.523,477.529,224.688,469.743z"/>
	<path id="XMLID_34_" display="inline" fill="#AA7D61" d="M235.974,167.691L235.974,167.691c-11.073,0-20.132-9.06-20.132-20.132
		v-14.495c0-11.073,9.06-20.132,20.132-20.132l0,0c11.073,0,20.132,9.06,20.132,20.132v14.495
		C256.106,158.631,247.046,167.691,235.974,167.691z"/>
	<path id="XMLID_33_" display="inline" fill="#412F25" d="M239.374,126.953h-6.979c-3.986,0-7.248-3.261-7.248-7.248l0,0
		c0-3.986,3.261-7.248,7.248-7.248h6.979c3.986,0,7.248,3.261,7.248,7.248l0,0C246.621,123.691,243.36,126.953,239.374,126.953z"/>
	<circle display="inline" fill="#412F25" cx="193.74" cy="128.962" r="3.898"/>
	<circle display="inline" fill="#412F25" cx="270.964" cy="125.064" r="3.898"/>
	<path id="XMLID_32_" display="inline" fill="#AA7D61" d="M335.002,330.072c0,48.737-14.484,88.245-61.155,88.245
		c-45.598,0-61.155-39.509-61.155-88.245s17.166-88.245,61.155-88.245C315.69,241.826,335.002,281.335,335.002,330.072z"/>
	
		<linearGradient id="XMLID_50_" gradientUnits="userSpaceOnUse" x1="-476.5639" y1="595.2623" x2="-375.8546" y2="595.2623" gradientTransform="matrix(1 0 0 -1 539.04 881.1949)">
		<stop  offset="0" style="stop-color:#5E321C"/>
		<stop  offset="0.0724" style="stop-color:#704228"/>
		<stop  offset="0.1613" style="stop-color:#7E4E31"/>
		<stop  offset="0.2725" style="stop-color:#865536"/>
		<stop  offset="0.4744" style="stop-color:#885738"/>
		<stop  offset="0.7114" style="stop-color:#8A593A"/>
		<stop  offset="0.8433" style="stop-color:#92603F"/>
		<stop  offset="0.949" style="stop-color:#A06C48"/>
		<stop  offset="1" style="stop-color:#AA754E"/>
	</linearGradient>
	<path id="XMLID_31_" display="inline" fill="url(#XMLID_50_)" d="M129.299,199.466c-15.832,4.262-28.771,23.459-36.536,34.1
		c-16.441,22.53-27.402,57.848-29.229,74.898c-2.358,22.006-1.827,48.714,12.787,59.066s29.837,4.871,35.927-2.436
		s6.089-26.184,8.525-43.234c2.436-17.05,7.916-42.016,21.921-56.021c16.881-16.881,23.139-35.318,19.486-47.496
		C158.469,205.971,143.999,195.509,129.299,199.466z"/>
	<path display="inline" fill="#663921" d="M73.064,366.152c-0.142,0-0.283-0.05-0.397-0.152c-0.246-0.219-0.268-0.596-0.049-0.843
		c0.637-0.714,1.213-1.462,1.713-2.22c2.216-3.37,3.017-7.227,2.198-10.582c-0.078-0.32,0.118-0.643,0.439-0.721
		c0.321-0.078,0.643,0.118,0.722,0.439c0.898,3.675,0.037,7.874-2.361,11.52c-0.531,0.807-1.143,1.602-1.818,2.36
		C73.392,366.085,73.229,366.152,73.064,366.152z"/>
	<path display="inline" fill="#663921" d="M86.042,372.727c-0.131,0-0.262-0.043-0.373-0.131c-0.258-0.206-0.299-0.582-0.093-0.84
		c3.591-4.482,5.141-10.377,4.148-15.767c-0.06-0.324,0.155-0.636,0.479-0.696c0.324-0.052,0.636,0.155,0.695,0.479
		c1.055,5.728-0.587,11.982-4.391,16.731C86.391,372.65,86.217,372.727,86.042,372.727z"/>
	<path display="inline" fill="#663921" d="M104.796,372.118c-0.047,0-0.094-0.006-0.141-0.016c-0.321-0.078-0.517-0.401-0.44-0.721
		c1.137-4.698,0.29-9.672-2.266-13.307c-0.19-0.271-0.125-0.643,0.145-0.833s0.642-0.124,0.832,0.145
		c2.751,3.913,3.666,9.25,2.449,14.276C105.31,371.935,105.066,372.118,104.796,372.118z"/>
	
		<animate  fill="remove" accumulate="none" restart="always" dur="1s" begin="0s" additive="replace" attributeName="display" calcMode="linear" values="none;none;none;none; none; none; inline; none" id="antonia7" keyTimes="0;0.125;0.25; 0.375; 0.5; 0.625; 0.75; 1" repeatCount="indefinite">
		</animate>
</g>
</svg>
