<svg xmlns="http://www.w3.org/2000/svg" viewBox="0 0 49 44">
<style>
/* <![CDATA[ */

#a1, #a2, #a3, #a4 {
visibility: hidden;
animation-duration: 0.7s;
animation-iteration-count: infinite;
animation-timing-function: steps(1);
}

/* ]]> */
</style>
  <defs>
    <linearGradient id="lg1" x1="37.948" x2="59.994" y1="44.65" y2="44.65" gradientTransform="rotate(18.359 48.18 39.928)" gradientUnits="userSpaceOnUse">
      <stop offset="0" stop-color="#f3ecba"/>
      <stop offset=".454" stop-color="#e1b690"/>
      <stop offset=".81" stop-color="#d59275"/>
      <stop offset="1" stop-color="#d1846a"/>
    </linearGradient>
    <linearGradient id="lg2" x1="43.959" x2="62.384" y1="29.083" y2="35.789" gradientTransform="rotate(18.359 48.18 39.928)" gradientUnits="userSpaceOnUse">
      <stop offset="0" stop-color="#eeeac1"/>
      <stop offset=".003" stop-color="#eeeac1"/>
      <stop offset=".296" stop-color="#e2c39b"/>
      <stop offset=".449" stop-color="#ddb48d"/>
      <stop offset=".479" stop-color="#dcb28b"/>
      <stop offset=".659" stop-color="#dbae87"/>
      <stop offset=".776" stop-color="#d9a480"/>
      <stop offset=".977" stop-color="#d2886d"/>
      <stop offset="1" stop-color="#d1846a"/>
    </linearGradient>
    <linearGradient id="lg3" x1="36.389" x2="59.43" y1="47.595" y2="47.595" gradientUnits="userSpaceOnUse">
      <stop offset="0" stop-color="#f3ecba"/>
      <stop offset=".454" stop-color="#e1b690"/>
      <stop offset=".81" stop-color="#d59275"/>
      <stop offset="1" stop-color="#d1846a"/>
    </linearGradient>
    <linearGradient id="lg4" x1="42.671" x2="61.928" y1="31.324" y2="38.334" gradientUnits="userSpaceOnUse">
        <stop offset="0" stop-color="#eeeac1"/>
        <stop offset=".003" stop-color="#eeeac1"/>
        <stop offset=".296" stop-color="#e2c39b"/>
        <stop offset=".449" stop-color="#ddb48d"/>
        <stop offset=".479" stop-color="#dcb28b"/>
        <stop offset=".659" stop-color="#dbae87"/>
        <stop offset=".776" stop-color="#d9a480"/>
        <stop offset=".977" stop-color="#d2886d"/>
        <stop offset="1" stop-color="#d1846a"/>
      </linearGradient>
      <linearGradient id="lg5" x1="31.641" x2="53.686" y1="6.017" y2="6.017" gradientTransform="matrix(1.1396 .0609 -.2511 .8641 -.46 36.925)" gradientUnits="userSpaceOnUse">
        <stop offset="0" stop-color="#f3ecba"/>
        <stop offset=".454" stop-color="#e1b690"/>
        <stop offset=".81" stop-color="#d59275"/>
        <stop offset="1" stop-color="#d1846a"/>
      </linearGradient>
      <linearGradient id="lg6" x1="37.651" x2="56.076" y1="-9.55" y2="-2.844" gradientTransform="matrix(1.1396 .0609 -.2511 .8641 -.46 36.925)" gradientUnits="userSpaceOnUse">
        <stop offset="0" stop-color="#eeeac1"/>
        <stop offset=".003" stop-color="#eeeac1"/>
        <stop offset=".296" stop-color="#e2c39b"/>
        <stop offset=".449" stop-color="#ddb48d"/>
        <stop offset=".479" stop-color="#dcb28b"/>
        <stop offset=".659" stop-color="#dbae87"/>
        <stop offset=".776" stop-color="#d9a480"/>
        <stop offset=".977" stop-color="#d2886d"/>
        <stop offset="1" stop-color="#d1846a"/>
      </linearGradient>
      <linearGradient id="lg7" x1="36.906" x2="59.948" y1="46.645" y2="46.645" gradientTransform="matrix(.8174 .0783 -.4261 1.1826 28.945 -12.405)" gradientUnits="userSpaceOnUse">
        <stop offset="0" stop-color="#f3ecba"/>
        <stop offset=".454" stop-color="#e1b690"/>
        <stop offset=".81" stop-color="#d59275"/>
        <stop offset="1" stop-color="#d1846a"/>
      </linearGradient>
      <linearGradient id="lg8" x1="43.188" x2="62.446" y1="30.375" y2="37.384" gradientTransform="matrix(.8174 .0783 -.4261 1.1826 28.945 -12.405)" gradientUnits="userSpaceOnUse">
        <stop offset="0" stop-color="#eeeac1"/>
        <stop offset=".003" stop-color="#eeeac1"/>
        <stop offset=".296" stop-color="#e2c39b"/>
        <stop offset=".449" stop-color="#ddb48d"/>
        <stop offset=".479" stop-color="#dcb28b"/>
        <stop offset=".659" stop-color="#dbae87"/>
        <stop offset=".776" stop-color="#d9a480"/>
        <stop offset=".977" stop-color="#d2886d"/>
        <stop offset="1" stop-color="#d1846a"/>
      </linearGradient>
      <linearGradient id="lg9" x1="38.234" x2="61.276" y1="27.407" y2="27.407" gradientTransform="matrix(-.0061 -.8211 -1.2155 .3205 87.546 84.663)" gradientUnits="userSpaceOnUse">
        <stop offset="0" stop-color="#f3ecba"/>
        <stop offset=".454" stop-color="#e1b690"/>
        <stop offset=".81" stop-color="#d59275"/>
        <stop offset="1" stop-color="#d1846a"/>
      </linearGradient>
      <linearGradient id="lg10" x1="44.517" x2="63.774" y1="11.137" y2="18.146" gradientTransform="matrix(-.0061 -.8211 -1.2155 .3205 87.546 84.663)" gradientUnits="userSpaceOnUse">
        <stop offset="0" stop-color="#eeeac1"/>
        <stop offset=".003" stop-color="#eeeac1"/>
        <stop offset=".296" stop-color="#e2c39b"/>
        <stop offset=".449" stop-color="#ddb48d"/>
        <stop offset=".479" stop-color="#dcb28b"/>
        <stop offset=".659" stop-color="#dbae87"/>
        <stop offset=".776" stop-color="#d9a480"/>
        <stop offset=".977" stop-color="#d2886d"/>
        <stop offset="1" stop-color="#d1846a"/>
      </linearGradient>
  </defs>
  
  <g transform="translate(-33 -19)">
  <g id="a1">
  <path fill="url(#lg1)" d="M43.449,36.39c0,0-0.82-0.062,3.568,0.512c4.388,0.574,11.912,8.152,11.912,8.152 s-5.92,3.286-11.075,4.264s-6.655,0.69-8.749,0.29c0,0,0.024-0.958-0.658-1.688c-0.682-0.73-1.464-1.032-1.464-1.032 s0.654-1.085,0.236-2.106s-0.998-1.297-0.998-1.297s0.806-0.531,1.057-1.413s0.35-1.816,0.35-1.816s1.021-0.165,1.953-0.822 c0.932-0.657,1.309-1.54,1.309-1.54s0.983,0.074,1.563-0.406C43.034,37.008,43.449,36.39,43.449,36.39z"/>
  <g fill="#CC7E61">
    <path d="M44.944,47.724c-1.308,0.016-2.617-0.085-3.915-0.265c-1.297-0.183-2.586-0.43-3.856-0.761 c2.513,0.755,5.141,1.146,7.771,1.169c1.319-0.015,2.622-0.169,3.932-0.242c1.309-0.078,2.618-0.165,3.93-0.193 c-1.313-0.028-2.625,0.026-3.936,0.098C47.56,47.588,46.25,47.725,44.944,47.724z"/>
    <path d="M40.732,44.678c-1.472-0.345-2.929-0.769-4.345-1.307c2.799,1.163,5.789,1.874,8.817,2.114 c1.509,0.094,3.015,0.263,4.509,0.505c1.493,0.244,2.981,0.531,4.455,0.885c-2.922-0.808-5.929-1.301-8.954-1.533 C43.706,45.246,42.205,45.022,40.732,44.678z"/>
    <path d="M46.686,42.992c-1.52-0.233-3.018-0.608-4.489-1.067c-1.468-0.466-2.92-0.99-4.34-1.593 c2.801,1.29,5.756,2.279,8.807,2.802c1.52,0.228,3.009,0.65,4.442,1.213c1.432,0.565,2.827,1.23,4.157,2.012 c-1.301-0.83-2.687-1.528-4.122-2.1C49.709,43.678,48.216,43.236,46.686,42.992z"/>
    <path d="M53.358,42.896c-1.292-0.713-2.691-1.2-4.096-1.628c-1.405-0.432-2.857-0.704-4.237-1.186 c-1.369-0.503-2.699-1.173-3.818-2.126c1.084,0.996,2.409,1.704,3.786,2.215c1.389,0.501,2.832,0.787,4.229,1.234 c1.404,0.412,2.801,0.881,4.091,1.575c0.648,0.342,1.241,0.772,1.815,1.228c0.561,0.461,1.177,0.901,1.56,1.529 c-0.364-0.642-0.968-1.103-1.516-1.584C54.603,43.689,54.007,43.248,53.358,42.896z"/>
    <path d="M51.212,40.063c1.348,0.398,2.669,0.948,3.787,1.809c0.568,0.418,1.045,0.941,1.516,1.466 c0.458,0.532,0.948,1.06,1.242,1.705c-0.273-0.656-0.748-1.202-1.189-1.751c-0.464-0.532-0.942-1.066-1.511-1.496 c-1.12-0.884-2.451-1.456-3.804-1.871c-1.355-0.418-2.773-0.616-4.08-1.134c-1.286-0.572-2.483-1.349-3.561-2.263 c1.041,0.956,2.226,1.768,3.522,2.35C48.459,39.419,49.87,39.631,51.212,40.063z"/>
  </g>
  <path fill="url(#lg2)" d="M55.597,24.207c0,0,2.654,4.661,3.908,8.857c1.254,4.196,0.819,8.546,0.657,9.542 c-0.162,0.996-0.589,2.157-0.589,2.157l-2.671,1.34c0,0-2.941-2.53-5.415-4.694c-2.474-2.165-4.241-3.423-5.124-4.304 s-1.2-1.322-1.2-1.322s0.503-0.631,0.729-1.438s0.161-2.131,0.161-2.131s1.185-0.153,1.662-1.213c0.478-1.06,0.4-2.093,0.4-2.093 s1.021-0.291,1.461-1.238c0.44-0.946,0.274-2.219,0.274-2.219s1.273-0.166,1.827-0.57c0.554-0.404,0.855-1.438,0.855-1.438 S53.958,24.588,55.597,24.207z"/>
  <g fill="#CC7E61">
    <path d="M57.587,33.703c0.56,1.82,0.914,3.704,1.182,5.591c0.241,1.889,0.416,3.803,0.262,5.709 c0.211-1.903,0.069-3.827-0.167-5.721c-0.253-1.895-0.59-3.783-1.139-5.621c-0.564-1.832-1.329-3.593-2.198-5.297 c-0.865-1.706-1.849-3.351-2.956-4.909c1.06,1.589,2.013,3.248,2.871,4.952C56.293,30.114,57.041,31.876,57.587,33.703z"/>
    <path d="M55.717,34.746c-0.745-1.667-1.694-3.226-2.657-4.768c-0.974-1.536-2.004-3.037-3.097-4.49 c1.045,1.488,2.048,3.004,3.015,4.541c0.95,1.547,1.873,3.117,2.611,4.773c0.744,1.65,1.208,3.421,1.702,5.165 c0.463,1.757,0.893,3.523,1.273,5.301c-0.33-1.788-0.725-3.564-1.183-5.324C56.901,38.191,56.453,36.422,55.717,34.746z"/>
    <path d="M54.024,36.694c-0.846-1.39-1.811-2.7-2.806-3.982c-0.994-1.283-2.037-2.528-3.128-3.729 c1.045,1.241,2.064,2.503,3.05,3.789c0.984,1.288,1.919,2.614,2.766,3.993c0.834,1.386,1.559,2.84,2.261,4.3 c0.689,1.467,1.358,2.945,1.981,4.443c-0.578-1.516-1.212-3.011-1.898-4.482C55.561,39.557,54.848,38.098,54.024,36.694z"/>
    <path d="M49.283,35.377c-1.048-1.043-2.124-2.057-3.23-3.038c2.122,2.056,4.24,4.121,6.195,6.334 c0.983,1.1,1.914,2.248,2.806,3.425c0.886,1.181,1.752,2.378,2.566,3.612c-1.549-2.519-3.335-4.889-5.268-7.129 C51.369,37.475,50.333,36.418,49.283,35.377z"/>
  </g>
  <g>
    <path fill="url(#lg3)" d="M41.222,40.708c0,0-0.833,0.208,3.708-0.667s14.5,4.167,14.5,4.167s-4.792,5.208-9.583,7.875 c-4.792,2.667-6.375,2.875-8.583,3.167c0,0-0.292-0.958-1.208-1.458s-1.792-0.542-1.792-0.542s0.292-1.292-0.458-2.167 s-1.417-0.958-1.417-0.958s0.625-0.792,0.583-1.75c-0.042-0.958-0.25-1.917-0.25-1.917s0.958-0.5,1.667-1.458 c0.708-0.958,0.792-1.958,0.792-1.958s1-0.25,1.417-0.917C41.014,41.458,41.222,40.708,41.222,40.708z"/>
    <g fill="#CC7E61">
      <path d="M46.435,51.46c-1.292,0.447-2.624,0.777-3.971,1.026c-1.347,0.245-2.707,0.424-4.076,0.514 c2.742-0.078,5.477-0.555,8.094-1.398c1.303-0.449,2.546-1.03,3.821-1.534c1.273-0.508,2.543-1.025,3.835-1.485 c-1.311,0.404-2.596,0.889-3.872,1.392C48.985,50.464,47.731,51.031,46.435,51.46z"/>
      <path d="M41.254,49.825c-1.574,0.143-3.159,0.201-4.741,0.134c3.159,0.233,6.359-0.046,9.442-0.804 c1.528-0.403,3.077-0.731,4.639-0.983c1.562-0.249,3.132-0.454,4.71-0.588c-3.164,0.16-6.31,0.661-9.387,1.426 C44.391,49.409,42.829,49.681,41.254,49.825z"/>
      <path d="M46.606,46.192c-1.585,0.269-3.195,0.39-4.804,0.419c-1.61,0.02-3.222-0.021-4.829-0.153 c3.203,0.357,6.46,0.366,9.659-0.119c1.583-0.275,3.199-0.346,4.805-0.259c1.606,0.089,3.209,0.29,4.786,0.628 c-1.564-0.395-3.168-0.632-4.78-0.727C49.831,45.878,48.204,45.931,46.606,46.192z"/>
      <path d="M53.193,43.902c-1.517-0.282-3.065-0.305-4.599-0.267c-1.536,0.034-3.066,0.242-4.593,0.218 c-1.524-0.049-3.064-0.276-4.487-0.852c1.403,0.632,2.95,0.897,4.484,0.952c1.542,0.04,3.069-0.151,4.601-0.168 c1.529-0.053,3.069-0.048,4.576,0.216c0.755,0.126,1.485,0.357,2.204,0.621c0.708,0.273,1.464,0.507,2.051,1.004 c-0.573-0.518-1.324-0.776-2.025-1.073C54.689,44.278,53.952,44.037,53.193,43.902z"/>
      <path d="M50.132,41.797c1.468-0.049,2.96,0.062,4.352,0.549c0.701,0.228,1.346,0.59,1.987,0.955 c0.629,0.377,1.289,0.739,1.794,1.282c-0.487-0.56-1.137-0.946-1.756-1.345c-0.635-0.375-1.285-0.747-1.991-0.986 c-1.402-0.508-2.91-0.638-4.389-0.604c-1.482,0.031-2.953,0.301-4.42,0.218c-1.464-0.144-2.907-0.521-4.277-1.073 c1.348,0.606,2.79,1.021,4.268,1.172C47.189,42.065,48.658,41.811,50.132,41.797z"/>
    </g>
    <g>
      <path fill="url(#lg4)" d="M49.264,24.625c0,0,4.167,3.75,6.792,7.5s3.625,8.208,3.792,9.25 c0.167,1.042,0.125,2.333,0.125,2.333l-2.208,2.208c0,0-3.75-1.542-6.917-2.875c-3.167-1.333-5.333-2-6.5-2.583 c-1.167-0.583-1.625-0.917-1.625-0.917s0.292-0.792,0.25-1.667C42.93,37,42.43,35.708,42.43,35.708s1.125-0.542,1.25-1.75 c0.125-1.208-0.292-2.208-0.292-2.208s0.917-0.625,1.042-1.708s-0.458-2.292-0.458-2.292s1.208-0.583,1.625-1.167 c0.417-0.583,0.375-1.708,0.375-1.708S47.764,25.542,49.264,24.625z"/>
      <g fill="#CC7E61">
        <path d="M54.363,33.39c1.154,1.621,2.125,3.374,3.012,5.158c0.861,1.795,1.664,3.636,2.138,5.577 c-0.417-1.957-1.191-3.819-2.049-5.621c-0.875-1.797-1.83-3.559-2.98-5.201c-1.163-1.631-2.501-3.127-3.923-4.531 c-1.419-1.408-2.938-2.716-4.548-3.897c1.575,1.227,3.066,2.559,4.478,3.968C51.899,30.255,53.22,31.758,54.363,33.39z"/>
        <path d="M52.851,35.04c-1.288-1.408-2.742-2.643-4.204-3.855c-1.472-1.204-2.987-2.353-4.55-3.435 c1.526,1.132,3.02,2.306,4.485,3.513c1.451,1.222,2.884,2.476,4.161,3.876c1.281,1.392,2.324,2.996,3.388,4.564 c1.037,1.59,2.045,3.201,3.007,4.839c-0.916-1.665-1.892-3.297-2.926-4.893C55.159,38.068,54.133,36.461,52.851,35.04z"/>
        <path d="M51.813,37.53c-1.296-1.101-2.685-2.082-4.094-3.026c-1.409-0.946-2.853-1.838-4.331-2.67 c1.445,0.887,2.871,1.804,4.273,2.755c1.4,0.953,2.764,1.962,4.058,3.051c1.283,1.1,2.481,2.304,3.659,3.521 c1.166,1.229,2.316,2.475,3.427,3.756c-1.072-1.314-2.193-2.588-3.358-3.822C54.28,39.864,53.093,38.651,51.813,37.53z"/>
        <path d="M46.676,37.784c-1.383-0.69-2.784-1.342-4.204-1.951c2.782,1.341,5.563,2.692,8.23,4.245 c1.337,0.768,2.639,1.6,3.911,2.474c1.268,0.88,2.521,1.783,3.734,2.739c-2.366-1.989-4.918-3.752-7.573-5.338 C49.436,39.179,48.061,38.47,46.676,37.784z"/>
      </g>
    </g>
  </g>
  <path fill="#6A5539" d="M62.936,36.419c-0.155-0.053-0.324,0.03-0.377,0.185c-0.053,0.154,0.03,0.321,0.183,0.375 c-0.079,0.406-0.316,1.522-0.777,2.873c-0.328,0.962-0.594,1.648-0.765,2.07c-0.038,0.031-0.076,0.064-0.115,0.098 c0.013-0.333,0.035-1.212-0.019-2.604c-0.057-1.48-0.249-2.642-0.316-3.017c0.085-0.055,0.15-0.135,0.146-0.244 c-0.006-0.164-0.144-0.292-0.308-0.285c-0.164,0.006-0.292,0.144-0.285,0.308c0.006,0.163,0.143,0.289,0.306,0.284 c0.072,0.407,0.252,1.534,0.308,2.96c0.068,1.76,0.016,2.703,0.014,2.738c-0.955,0.899-2.157,2.575-3,3.425 c-2.819,2.839-6.536,4.847-6.324,5.172c0.311,0.476,4.526-1.715,7.416-4.482c2.247-2.151,3.896-3.802,3.195-4.589 c-0.183-0.206-0.457-0.152-0.785,0.064c0.17-0.43,0.402-1.043,0.677-1.849c0.478-1.401,0.717-2.555,0.789-2.929 c0.099-0.021,0.189-0.072,0.224-0.175C63.174,36.641,63.091,36.472,62.936,36.419z"/>
  <g>
    <circle cx="61.353" cy="42.689" r=".436" fill="#EEE9D1"/>
    <circle cx="61.347" cy="42.708" r=".253" fill="#2D2B29"/>
  </g>
  </g>

  <g id="a2">
    <path fill="url(#lg5)" d="M41.012,38.639c0,0-0.959,0.124,4.204-0.335s14.809,4.289,14.809,4.289s-6.476,4.027-12.341,5.952 s-7.642,2.005-10.12,2.118c0,0-0.088-0.809-0.967-1.276c-0.879-0.467-1.823-0.552-1.823-0.552s0.628-1.051,0.021-1.818 s-1.314-0.875-1.314-0.875s0.872-0.618,1.056-1.413c0.185-0.795,0.188-1.599,0.188-1.599s1.165-0.358,2.168-1.109 c1.003-0.751,1.334-1.573,1.334-1.573s1.15-0.148,1.765-0.675C40.605,39.247,41.012,38.639,41.012,38.639z"/>
  <g fill="#CC7E61">
    <path d="M44.114,47.831c-1.516,0.294-3.048,0.489-4.576,0.617c-1.527,0.124-3.054,0.193-4.568,0.188 c3.008,0.095,6.105-0.139,9.161-0.684c1.529-0.295,3.024-0.704,4.535-1.046c1.51-0.346,3.019-0.699,4.538-1.004 c-1.527,0.258-3.044,0.584-4.556,0.925C47.133,47.156,45.63,47.552,44.114,47.831z"/>
    <path d="M38.858,46.177c-1.75,0.026-3.492-0.018-5.201-0.166c3.389,0.377,6.945,0.332,10.489-0.115 c1.763-0.244,3.531-0.425,5.294-0.542c1.763-0.115,3.525-0.193,5.277-0.212c-3.489-0.052-7.039,0.179-10.578,0.632 C42.378,46.016,40.609,46.15,38.858,46.177z"/>
    <path d="M45.565,43.486c-1.793,0.13-3.577,0.136-5.339,0.066c-1.76-0.077-3.509-0.205-5.229-0.407 c3.406,0.482,6.956,0.679,10.56,0.465c1.792-0.135,3.571-0.099,5.302,0.066c1.73,0.167,3.43,0.427,5.068,0.798 c-1.61-0.418-3.303-0.707-5.038-0.879C49.157,43.414,47.37,43.363,45.565,43.486z"/>
    <path d="M53.298,41.976c-1.586-0.322-3.269-0.431-4.95-0.489c-1.683-0.061-3.401,0.021-5.061-0.087 c-1.65-0.129-3.274-0.406-4.688-0.966c1.378,0.604,3.001,0.914,4.661,1.048c1.672,0.123,3.382,0.054,5.057,0.129 c1.68,0.045,3.357,0.139,4.938,0.445c0.793,0.148,1.533,0.382,2.254,0.642c0.706,0.267,1.475,0.504,1.995,0.949 c-0.5-0.461-1.257-0.719-1.95-1.005C54.839,42.374,54.093,42.132,53.298,41.976z"/>
    <path d="M50.466,40.058c1.613,0.045,3.212,0.224,4.613,0.707c0.709,0.229,1.326,0.566,1.937,0.906 c0.596,0.348,1.228,0.686,1.648,1.164c-0.396-0.492-1.013-0.848-1.592-1.214c-0.603-0.347-1.222-0.693-1.934-0.931 c-1.407-0.502-3.02-0.697-4.641-0.755c-1.623-0.06-3.293,0.077-4.872-0.078c-1.562-0.204-3.045-0.6-4.406-1.136 c1.324,0.579,2.797,1.007,4.372,1.218C47.193,40.108,48.856,39.983,50.466,40.058z"/>
  </g>
  <path fill="url(#lg6)" d="M53.644,25.811c0,0,3.642,3.343,5.604,6.596s1.981,6.997,1.912,7.868 c-0.068,0.871-0.424,1.936-0.424,1.936l-2.938,1.697c0,0-3.719-1.493-6.851-2.78c-3.133-1.287-5.335-1.964-6.467-2.514 c-1.132-0.55-1.552-0.852-1.552-0.852s0.508-0.637,0.673-1.363c0.165-0.726-0.07-1.823-0.07-1.823s1.357-0.382,1.783-1.374 c0.427-0.992,0.212-1.843,0.212-1.843s1.15-0.463,1.546-1.352c0.397-0.888,0.051-1.921,0.051-1.921s1.458-0.412,2.052-0.87 c0.594-0.458,0.819-1.39,0.819-1.39S51.788,26.481,53.644,25.811z"/>
  <g fill="#CC7E61">
    <path d="M57.099,33.354c0.869,1.408,1.507,2.913,2.045,4.44c0.508,1.534,0.941,3.103,0.992,4.735 c0.015-1.642-0.381-3.227-0.884-4.766c-0.522-1.536-1.141-3.049-2-4.473c-0.876-1.416-1.976-2.731-3.19-3.974 c-1.209-1.246-2.551-2.416-4.023-3.487c1.422,1.106,2.729,2.294,3.929,3.541C55.165,30.619,56.245,31.938,57.099,33.354z"/>
    <path d="M55.054,34.63c-1.066-1.239-2.355-2.344-3.658-3.432c-1.316-1.081-2.692-2.119-4.136-3.105 c1.392,1.025,2.739,2.082,4.047,3.166c1.289,1.095,2.55,2.215,3.606,3.446c1.062,1.225,1.814,2.612,2.598,3.97 c0.749,1.375,1.461,2.765,2.117,4.176c-0.599-1.43-1.271-2.836-2.015-4.215C56.843,37.268,56.11,35.879,55.054,34.63z"/>
    <path d="M53.324,36.628c-1.149-0.985-2.427-1.878-3.737-2.74c-1.309-0.864-2.669-1.686-4.08-2.46 c1.363,0.817,2.697,1.659,3.997,2.527c1.298,0.87,2.542,1.783,3.692,2.758c1.135,0.984,2.152,2.05,3.143,3.124 c0.976,1.084,1.931,2.181,2.835,3.305c-0.853-1.149-1.77-2.267-2.743-3.355C55.453,38.701,54.45,37.629,53.324,36.628z"/>
    <path d="M47.662,36.539c-1.342-0.651-2.714-1.271-4.116-1.857c2.711,1.271,5.418,2.55,7.954,3.989 c1.274,0.713,2.493,1.477,3.67,2.273c1.171,0.801,2.321,1.621,3.414,2.482c-2.102-1.782-4.461-3.388-6.974-4.854 C50.336,37.852,49.006,37.187,47.662,36.539z"/>
  </g>
  <g>
    <path fill="url(#lg7)" d="M46.122,37.88c0,0-0.77,0.181,3.315-0.498s10.077,6.062,10.077,6.062s-6.136,5.784-11.189,8.563 s-6.436,2.901-8.365,3.073c0,0,0.17-1.156-0.366-1.819s-1.234-0.781-1.234-0.781s0.789-1.505,0.549-2.598 c-0.24-1.093-0.75-1.244-0.75-1.244s0.848-0.887,1.222-2.024s0.612-2.286,0.612-2.286s0.996-0.516,1.984-1.594 c0.987-1.078,1.482-2.254,1.482-2.254s0.924-0.217,1.549-0.973S46.122,37.88,46.122,37.88z"/>
    <g fill="#CC7E61">
      <path d="M45.802,51.004c-1.247,0.427-2.476,0.713-3.682,0.902c-1.205,0.184-2.394,0.29-3.551,0.289 c2.274,0.123,4.713-0.227,7.212-1.019c1.257-0.429,2.52-1.019,3.777-1.515c1.257-0.501,2.516-1.013,3.767-1.456 c-1.244,0.375-2.501,0.849-3.758,1.343C48.31,50.025,47.044,50.597,45.802,51.004z"/>
      <path d="M42.264,48.664c-1.347,0.046-2.667-0.01-3.932-0.213c2.483,0.523,5.218,0.443,8.061-0.212 c1.421-0.357,2.827-0.624,4.211-0.799c1.383-0.172,2.754-0.292,4.101-0.327c-2.655-0.058-5.439,0.288-8.281,0.952 C45.005,48.418,43.612,48.618,42.264,48.664z"/>
      <path d="M48.186,44.787c-1.41,0.195-2.777,0.211-4.105,0.119c-1.325-0.102-2.625-0.277-3.883-0.558 c2.466,0.673,5.124,0.939,7.945,0.616c1.411-0.201,2.762-0.159,4.038,0.07c1.275,0.231,2.5,0.594,3.645,1.117 c-1.11-0.59-2.32-0.995-3.598-1.234C50.956,44.667,49.603,44.603,48.186,44.787z"/>
      <path d="M54.546,42.594c-1.12-0.452-2.375-0.601-3.645-0.676c-1.27-0.08-2.609,0.046-3.848-0.102 c-1.225-0.177-2.387-0.566-3.305-1.359c0.878,0.857,2.029,1.292,3.26,1.477c1.244,0.168,2.572,0.062,3.832,0.162 c1.272,0.057,2.529,0.184,3.649,0.614c0.564,0.208,1.062,0.538,1.537,0.907c0.462,0.378,0.981,0.714,1.249,1.348 c-0.248-0.657-0.751-1.021-1.198-1.427C55.609,43.156,55.109,42.813,54.546,42.594z"/>
      <path d="M52.941,39.865c1.221,0.057,2.393,0.305,3.323,0.99c0.476,0.324,0.849,0.803,1.217,1.285 c0.354,0.495,0.739,0.975,0.92,1.657c-0.159-0.701-0.527-1.208-0.862-1.728c-0.359-0.493-0.732-0.984-1.207-1.322 c-0.93-0.71-2.107-0.982-3.33-1.058c-1.225-0.079-2.542,0.125-3.706-0.089c-1.135-0.285-2.154-0.844-3.039-1.604 c0.843,0.822,1.845,1.426,2.989,1.72C50.421,39.952,51.73,39.766,52.941,39.865z"/>
    </g>
    <g>
      <path fill="url(#lg8)" d="M59.548,19.489c0,0,1.808,4.761,2.356,9.401c0.548,4.64-0.534,9.991-0.842,11.236 c-0.308,1.245-0.892,2.769-0.892,2.769l-2.746,2.439c0,0-2.408-2.117-4.429-3.941c-2.02-1.825-3.507-2.783-4.212-3.564 c-0.705-0.781-0.938-1.211-0.938-1.211s0.576-0.913,0.914-1.951s0.48-2.605,0.48-2.605s1.15-0.553,1.767-1.972 c0.617-1.419,0.703-2.634,0.703-2.634s1.016-0.667,1.579-1.939c0.564-1.271,0.602-2.746,0.602-2.746s1.236-0.595,1.825-1.253 c0.589-0.657,1.034-1.991,1.034-1.991S57.931,20.456,59.548,19.489z"/>
      <g fill="#CC7E61">
        <path d="M59.982,30.254c0.253,2.008,0.3,4.156,0.264,6.336c-0.061,2.19-0.189,4.43-0.629,6.763 c0.493-2.347,0.654-4.61,0.72-6.807c0.051-2.193,0.02-4.352-0.22-6.384c-0.255-2.02-0.712-3.894-1.276-5.665 c-0.56-1.776-1.244-3.442-2.057-4.965c0.764,1.575,1.416,3.267,1.97,5.043C59.303,26.354,59.743,28.234,59.982,30.254z"/>
        <path d="M58.043,32.087c-0.453-1.766-1.115-3.34-1.794-4.889c-0.69-1.539-1.439-3.016-2.256-4.418 c0.765,1.458,1.486,2.963,2.169,4.506c0.666,1.558,1.302,3.154,1.75,4.909c0.454,1.746,0.623,3.725,0.825,5.662 c0.17,1.962,0.308,3.946,0.396,5.958c-0.039-2.041-0.141-4.048-0.307-6.015C58.639,35.849,58.485,33.867,58.043,32.087z"/>
        <path d="M56.133,34.95c-0.591-1.403-1.308-2.672-2.057-3.9c-0.748-1.229-1.549-2.397-2.402-3.497 c0.803,1.162,1.578,2.358,2.319,3.593c0.738,1.237,1.423,2.536,2.017,3.925c0.58,1.401,1.046,2.919,1.49,4.451 c0.43,1.545,0.839,3.108,1.201,4.71c-0.316-1.638-0.69-3.232-1.116-4.783C57.155,37.904,56.701,36.377,56.133,34.95z"/>
        <path d="M51.826,34.849c-0.836-0.924-1.704-1.805-2.605-2.636c1.703,1.804,3.4,3.619,4.918,5.664 c0.766,1.013,1.475,2.099,2.142,3.232c0.661,1.14,1.301,2.306,1.885,3.532c-1.087-2.537-2.421-4.822-3.915-6.906 C53.487,36.714,52.665,35.769,51.826,34.849z"/>
      </g>
    </g>
  </g>
  <path fill="#6A5539" d="M62.936,35.419c-0.155-0.053-0.324,0.03-0.377,0.185c-0.053,0.154,0.03,0.321,0.183,0.375 c-0.079,0.406-0.316,1.522-0.777,2.873c-0.328,0.962-0.594,1.648-0.765,2.07c-0.038,0.031-0.076,0.064-0.115,0.098 c0.013-0.333,0.035-1.212-0.019-2.604c-0.057-1.48-0.249-2.642-0.316-3.017c0.085-0.055,0.15-0.135,0.146-0.244 c-0.006-0.164-0.144-0.292-0.308-0.285c-0.164,0.006-0.292,0.144-0.285,0.308c0.006,0.163,0.143,0.289,0.306,0.284 c0.072,0.407,0.252,1.534,0.308,2.96c0.068,1.76,0.016,2.703,0.014,2.738c-0.955,0.899-2.157,2.575-3,3.425 c-2.819,2.839-6.536,4.847-6.324,5.172c0.311,0.476,4.526-1.715,7.416-4.482c2.247-2.151,3.896-3.802,3.195-4.589 c-0.183-0.206-0.457-0.152-0.785,0.064c0.17-0.43,0.402-1.043,0.677-1.849c0.478-1.401,0.717-2.555,0.789-2.929 c0.099-0.021,0.189-0.072,0.224-0.175C63.174,35.641,63.091,35.472,62.936,35.419z"/>
  <g>
    <circle cx="61.353" cy="41.689" r=".436" fill="#EEE9D1"/>
    <circle cx="61.347" cy="41.708" r=".253" fill="#2D2B29"/>
  </g>
  </g>

  <g id="a3">
    <path fill="#6A5539" d="M62.936,34.419c-0.155-0.053-0.324,0.03-0.377,0.185c-0.053,0.154,0.03,0.321,0.183,0.375 c-0.079,0.406-0.316,1.522-0.777,2.873c-0.328,0.962-0.594,1.648-0.765,2.07c-0.038,0.031-0.076,0.064-0.115,0.098 c0.013-0.333,0.035-1.212-0.019-2.604c-0.057-1.48-0.249-2.642-0.316-3.017c0.085-0.055,0.15-0.135,0.146-0.244 c-0.006-0.164-0.144-0.292-0.308-0.285c-0.164,0.006-0.292,0.144-0.285,0.308c0.006,0.163,0.143,0.289,0.306,0.284 c0.072,0.407,0.252,1.534,0.308,2.96c0.068,1.76,0.016,2.703,0.014,2.738c-0.955,0.899-2.157,2.575-3,3.425 c-2.819,2.839-6.536,4.847-6.324,5.172c0.311,0.476,4.526-1.715,7.416-4.482c2.247-2.151,3.896-3.802,3.195-4.589 c-0.183-0.206-0.457-0.152-0.785,0.064c0.17-0.43,0.402-1.043,0.677-1.849c0.478-1.401,0.717-2.555,0.789-2.929 c0.099-0.021,0.189-0.072,0.224-0.175C63.174,34.641,63.091,34.472,62.936,34.419z"/>
  <path fill="#4C3D2A" d="M61.051,41.004c-0.032,0-0.062-0.021-0.072-0.055c-0.011-0.04,0.012-0.081,0.052-0.093 c0.243-0.069,0.404-0.173,0.479-0.309c0.069-0.123,0.04-0.229,0.038-0.233c-0.011-0.04,0.012-0.081,0.051-0.093 c0.045-0.009,0.081,0.011,0.093,0.049c0.003,0.007,0.05,0.167-0.048,0.346c-0.094,0.174-0.287,0.304-0.572,0.385 C61.065,41.003,61.058,41.004,61.051,41.004z"/>
  <path fill="url(#lg9)" d="M62.34,55.876c0,0-0.248,0.751,0.788-3.259s-5.153-10.571-5.153-10.571s-6.301,5.604-9.514,10.393 c-3.212,4.789-3.456,6.156-3.797,8.063c0,0,1.167-0.068,1.78,0.525c0.613,0.592,0.669,1.298,0.669,1.298s1.568-0.653,2.636-0.318 c1.068,0.335,1.173,0.856,1.173,0.856s0.958-0.767,2.124-1.04c1.165-0.273,2.331-0.409,2.331-0.409s0.602-0.947,1.762-1.836 c1.161-0.889,2.376-1.278,2.376-1.278s0.298-0.901,1.106-1.457C61.43,56.287,62.34,55.876,62.34,55.876z"/>
  <g fill="#CC7E61">
    <path d="M49.24,55.041c-0.535,1.204-0.928,2.404-1.222,3.589c-0.289,1.184-0.499,2.359-0.6,3.511 c0.078-2.276,0.641-4.675,1.65-7.094c0.537-1.214,1.237-2.421,1.842-3.629c0.609-1.208,1.231-2.417,1.781-3.625 c-0.483,1.206-1.065,2.417-1.668,3.626C50.435,52.628,49.754,53.839,49.24,55.041z"/>
    <path d="M51.259,58.771c-0.164,1.338-0.225,2.658-0.133,3.935c-0.302-2.519,0.018-5.237,0.92-8.011 c0.481-1.384,0.87-2.761,1.166-4.124c0.293-1.362,0.533-2.718,0.686-4.056c-0.175,2.649-0.765,5.393-1.676,8.165 C51.746,56.062,51.424,57.432,51.259,58.771z"/>
    <path d="M55.642,53.213c-0.318,1.388-0.454,2.748-0.48,4.079c-0.015,1.328,0.046,2.639,0.215,3.917 c-0.454-2.515-0.484-5.187,0.085-7.969c0.324-1.388,0.401-2.737,0.285-4.029c-0.118-1.29-0.372-2.542-0.792-3.729 c0.49,1.158,0.787,2.399,0.913,3.692C56.005,50.464,55.95,51.817,55.642,53.213z"/>
    <path d="M58.386,47.07c0.352,1.155,0.39,2.419,0.353,3.691c-0.032,1.272-0.275,2.595-0.237,3.842 c0.069,1.235,0.354,2.427,1.064,3.411c-0.776-0.949-1.109-2.135-1.184-3.377c-0.058-1.254,0.165-2.568,0.176-3.832 c0.055-1.272,0.039-2.535-0.29-3.688c-0.157-0.58-0.443-1.105-0.769-1.611c-0.336-0.494-0.625-1.04-1.233-1.362 c0.633,0.304,0.951,0.838,1.316,1.319C57.919,45.962,58.217,46.49,58.386,47.07z"/>
    <path d="M60.963,48.909c0.05-1.221-0.094-2.41-0.694-3.397c-0.281-0.502-0.725-0.916-1.173-1.325 c-0.462-0.396-0.906-0.822-1.569-1.062c0.684,0.22,1.157,0.631,1.646,1.011c0.46,0.401,0.916,0.816,1.211,1.319 c0.626,0.989,0.793,2.185,0.761,3.41c-0.029,1.227-0.348,2.521-0.238,3.699c0.184,1.156,0.651,2.22,1.331,3.168 c-0.745-0.912-1.258-1.963-1.451-3.129C60.655,51.411,60.955,50.123,60.963,48.909z"/>
  </g>
  <g>
    <path fill="url(#lg10)" d="M81.841,44.119c0,0-4.583-2.22-9.158-3.173c-4.574-0.954-9.999-0.346-11.266-0.149 c-1.267,0.197-2.837,0.645-2.837,0.645l-2.671,2.521c0,0,1.897,2.585,3.537,4.758c1.64,2.173,2.463,3.738,3.18,4.509 c0.716,0.771,1.124,1.041,1.124,1.041s0.96-0.493,2.024-0.739c1.064-0.246,2.637-0.25,2.637-0.25s0.652-1.097,2.119-1.587 c1.468-0.49,2.686-0.468,2.686-0.468s0.754-0.953,2.07-1.403s2.788-0.358,2.788-0.358s0.702-1.179,1.408-1.708 c0.706-0.529,2.074-0.855,2.074-0.855S80.736,45.644,81.841,44.119z"/>
    <g fill="#CC7E61">
      <path d="M71.156,42.74c-1.978-0.428-4.114-0.664-6.288-0.82c-2.187-0.132-4.429-0.201-6.792,0.032 c2.381-0.284,4.649-0.246,6.844-0.119c2.189,0.142,4.337,0.362,6.34,0.78c1.99,0.432,3.816,1.052,5.531,1.77 c1.72,0.714,3.319,1.542,4.765,2.485c-1.501-0.9-3.129-1.698-4.85-2.405C74.981,43.759,73.147,43.156,71.156,42.74z"/>
      <path d="M69.159,44.511c1.719,0.606,3.229,1.405,4.712,2.217c1.472,0.823,2.878,1.699,4.203,2.635 c-1.385-0.89-2.821-1.741-4.297-2.557c-1.494-0.8-3.027-1.575-4.736-2.174c-1.7-0.606-3.656-0.948-5.568-1.319 c-1.939-0.342-3.903-0.654-5.901-0.919c2.029,0.218,4.019,0.497,5.965,0.835C65.464,43.586,67.425,43.914,69.159,44.511z"/>
      <path d="M66.139,46.161c1.346,0.712,2.547,1.537,3.704,2.392c1.158,0.853,2.251,1.753,3.272,2.7 c-1.087-0.902-2.21-1.779-3.375-2.626c-1.167-0.844-2.401-1.641-3.733-2.355c-1.345-0.701-2.816-1.299-4.303-1.876 c-1.501-0.564-3.022-1.109-4.586-1.61c1.604,0.459,3.159,0.972,4.666,1.532C63.287,44.884,64.769,45.47,66.139,46.161z"/>
      <path d="M65.862,50.46c0.847,0.914,1.648,1.856,2.397,2.827c-1.647-1.855-3.306-3.705-5.21-5.397 c-0.942-0.852-1.961-1.654-3.031-2.418c-1.078-0.759-2.182-1.499-3.352-2.188c2.432,1.305,4.591,2.836,6.535,4.507 C64.15,48.641,65.019,49.544,65.862,50.46z"/>
    </g>
  </g>
  </g>
</g>
<style>
/* <![CDATA[ */

#a1 {animation-name: a1}
#a2 {animation-name: a2}
#a3 {animation-name: a3}

@keyframes a1 {0.00%{visibility: visible} 25.00%{visibility: hidden}}
@keyframes a2 {25.00%, 75.00%{visibility: visible} 50.00%, 100.00%{visibility: hidden}}
@keyframes a3 {50.00%{visibility: visible} 75.00%{visibility: hidden}}

/* ]]> */
</style>
</svg>
