<?xml version="1.0" encoding="utf-8"?>
<!-- Generator: Adobe Illustrator 24.1.0, SVG Export Plug-In . SVG Version: 6.00 Build 0)  -->
<svg version="1.1" id="Camada_1" xmlns="http://www.w3.org/2000/svg" xmlns:xlink="http://www.w3.org/1999/xlink" x="0px" y="0px"
	 viewBox="0 0 361.8 229.2" style="enable-background:new 0 0 361.8 229.2;" xml:space="preserve">
<style type="text/css">
	.st0{fill:url(#SVGID_1_);}
	.st1{fill:url(#SVGID_2_);}
	.st2{fill:url(#SVGID_3_);}
	.st3{fill:url(#SVGID_4_);}
	.st4{fill:url(#SVGID_5_);}
	.st5{fill:url(#SVGID_6_);}
	.st6{fill:url(#SVGID_7_);}
	.st7{fill:url(#SVGID_8_);}
	.st8{fill:#5D7B46;}
	.st9{fill:#286C49;}
	.st10{fill:#E2B937;}
	.st11{fill:url(#SVGID_9_);}
	.st12{fill:url(#SVGID_10_);}
	.st13{fill:url(#SVGID_11_);}
	.st14{fill:url(#SVGID_12_);}
	.st15{fill:url(#SVGID_13_);}
	.st16{fill:url(#SVGID_14_);}
	.st17{fill:url(#SVGID_15_);}
	.st18{fill:url(#SVGID_16_);}
	.st19{fill:url(#SVGID_17_);}
	.st20{fill:url(#SVGID_18_);}
	.st21{fill:url(#SVGID_19_);}
	.st22{fill:url(#SVGID_20_);}
	.st23{fill:url(#SVGID_21_);}
	.st24{fill:url(#SVGID_22_);}
	.st25{fill:url(#SVGID_23_);}
	.st26{fill:url(#SVGID_24_);}
	.st27{fill:url(#SVGID_25_);}
	.st28{fill:url(#SVGID_26_);}
	.st29{fill:url(#SVGID_27_);}
	.st30{fill:url(#SVGID_28_);}
	.st31{fill:url(#SVGID_29_);}
	.st32{fill:url(#SVGID_30_);}
	.st33{fill:url(#SVGID_31_);}
	.st34{fill:url(#SVGID_32_);}
	.st35{fill:url(#SVGID_33_);}
	.st36{fill:url(#SVGID_34_);}
	.st37{fill:url(#SVGID_35_);}
	.st38{fill:url(#SVGID_36_);}
	.st39{fill:url(#SVGID_37_);}
	.st40{fill:url(#SVGID_38_);}
	.st41{fill:url(#SVGID_39_);}
	.st42{fill:url(#SVGID_40_);}
	.st43{fill:url(#SVGID_41_);}
	.st44{fill:url(#SVGID_42_);}
	.st45{fill:url(#SVGID_43_);}
	.st46{fill:url(#SVGID_44_);}
	.st47{fill:url(#SVGID_45_);}
	.st48{fill:url(#SVGID_46_);}
	.st49{fill:url(#SVGID_47_);}
	.st50{fill:url(#SVGID_48_);}
	.st51{fill:url(#SVGID_49_);}
	.st52{fill:url(#SVGID_50_);}
	.st53{fill:url(#SVGID_51_);}
	.st54{fill:url(#SVGID_52_);}
	.st55{fill:url(#SVGID_53_);}
	.st56{fill:url(#SVGID_54_);}
	.st57{fill:url(#SVGID_55_);}
	.st58{fill:url(#SVGID_56_);}
	.st59{fill:url(#SVGID_57_);}
	.st60{fill:url(#SVGID_58_);}
	.st61{fill:url(#SVGID_59_);}
	.st62{fill:url(#SVGID_60_);}
	.st63{fill:url(#SVGID_61_);}
	.st64{fill:url(#SVGID_62_);}
	.st65{fill:url(#SVGID_63_);}
	.st66{fill:url(#SVGID_64_);}
	.st67{fill:url(#SVGID_65_);}
	.st68{fill:url(#SVGID_66_);}
	.st69{fill:url(#SVGID_67_);}
	.st70{fill:url(#SVGID_68_);}
	.st71{fill:url(#SVGID_69_);}
	.st72{fill:url(#SVGID_70_);}
	.st73{fill:url(#SVGID_71_);}
	.st74{fill:url(#SVGID_72_);}
	.st75{fill:url(#SVGID_73_);}
	.st76{fill:url(#SVGID_74_);}
	.st77{fill:url(#SVGID_75_);}
	.st78{fill:url(#SVGID_76_);}
	.st79{fill:url(#SVGID_77_);}
	.st80{fill:url(#SVGID_78_);}
	.st81{fill:url(#SVGID_79_);}
	.st82{fill:url(#SVGID_80_);}
	.st83{fill:url(#SVGID_81_);}
	.st84{fill:url(#SVGID_82_);}
	.st85{fill:url(#SVGID_83_);}
	.st86{fill:url(#SVGID_84_);}
	.st87{fill:url(#SVGID_85_);}
	.st88{fill:url(#SVGID_86_);}
	.st89{fill:url(#SVGID_87_);}
	.st90{fill:url(#SVGID_88_);}
	.st91{opacity:0.7;fill:#AADDE0;}
</style>
<linearGradient id="SVGID_1_" gradientUnits="userSpaceOnUse" x1="240.8468" y1="130.4754" x2="240.8468" y2="178.4588">
	<stop  offset="0" style="stop-color:#BA8354"/>
	<stop  offset="0.1924" style="stop-color:#B47C4E"/>
	<stop  offset="0.6949" style="stop-color:#A86D40"/>
	<stop  offset="1" style="stop-color:#A5693D"/>
</linearGradient>
<path class="st0" d="M223.1,178.5c0,0-0.9-13.2,0.5-15.6c1.4-2.3,5.1-2.4,5.4-4.2c0.3-1.8,0.3-4.7,0.4-6.3s-0.7-10,0.3-10.9
	c1-1,2.3-0.2,3.1-0.9c0.8-0.7,1.5-4.1,2.2-5.9c0.7-1.9,2-0.3,2.7-1.2c0.8-0.9,0.8-2.8,3.1-3c2.3-0.1,2.2,1.6,3.3,2.2
	c1.1,0.5,2.4-0.3,2.8,2.5c0.4,2.8,0,6.6,0.7,7.1c0.7,0.5,0.7,5.5,1.1,9.3c0.4,3.8,0.4,6.8,2.1,6.6c1.6-0.2,0.2-2.7,0.9-3.5
	c0.7-0.8,1-1.2,1-2.8c0-1.6,0.2-4.4,2.3-4.5c1.4-0.1,1.2,1.4,1.3,3.1c0.1,1.6,0.4,6.2,0.9,8.2s1.3,5.4,1.5,8.6s0.1,6.7,0.1,6.7
	L223.1,178.5z"/>
<linearGradient id="SVGID_2_" gradientUnits="userSpaceOnUse" x1="292.6466" y1="145.1487" x2="292.6466" y2="174.9232">
	<stop  offset="0" style="stop-color:#BA8354"/>
	<stop  offset="0.1924" style="stop-color:#B47C4E"/>
	<stop  offset="0.6949" style="stop-color:#A86D40"/>
	<stop  offset="1" style="stop-color:#A5693D"/>
</linearGradient>
<path class="st1" d="M280.3,174.9c0,0,0.5-2.2,0.5-6.5s-0.5-7.1,1.6-7.1s2,2.8,3.2,2.8c1.2,0,1.8-1.4,1.9-4.2s0-8.2,1.4-10.7
	c1.4-2.5,2.8-0.4,3.3-1.2c0.4-0.8,1-3,2.6-3c1.6,0,2.6,0.7,3.4,3.1s1.4,5.9,2.1,5.7s3.2-0.2,3.2,2.6c0.3,2.2,1.5,10.4,1.5,10.4
	L280.3,174.9z"/>
<linearGradient id="SVGID_3_" gradientUnits="userSpaceOnUse" x1="338.6823" y1="150.7314" x2="338.6823" y2="173.8286">
	<stop  offset="0" style="stop-color:#BA8354"/>
	<stop  offset="0.1924" style="stop-color:#B47C4E"/>
	<stop  offset="0.6949" style="stop-color:#A86D40"/>
	<stop  offset="1" style="stop-color:#A5693D"/>
</linearGradient>
<path class="st2" d="M330.8,172.3c0,0,0.4-2.4-0.2-6s-0.3-8.1,1.3-8.1c1.6,0,1.2,3.1,2.4,3.1c1.2,0,1.1-3.8,1.1-6.9
	c0-3.1,3.1-2.2,3.1-2.2s0.9-1.4,2.1-1.4c1.2,0,2.3,2.6,2.3,2.6s1.2-0.1,2.1,1.1s0.9,5.6,0.9,5.6s1.1,0.3,1,2.7s0.2,4.9,0.2,4.9
	l-12.7,6.1L330.8,172.3z"/>
<linearGradient id="SVGID_4_" gradientUnits="userSpaceOnUse" x1="52.5971" y1="153.6871" x2="52.5971" y2="175.9044">
	<stop  offset="0" style="stop-color:#CA573D"/>
	<stop  offset="1.287580e-02" style="stop-color:#C8553B"/>
	<stop  offset="0.1285" style="stop-color:#BD442D"/>
	<stop  offset="0.271" style="stop-color:#B63823"/>
	<stop  offset="0.4697" style="stop-color:#B1311E"/>
	<stop  offset="1" style="stop-color:#B02F1C"/>
</linearGradient>
<path class="st3" d="M105.2,169.4c0,0-4.9-4.6-7.7-8.4c-2.8-3.7-3.5-6.3-4.4-7.2c-0.9-0.9-20.4,2.6-29.3,3s-28.3,1.4-34.8,1.9
	s-17.4,0.7-23.2-0.5C0,157.1,0,157.1,0,157.1V173l40.6,0.5l24.2,2.3L105.2,169.4z"/>
<linearGradient id="SVGID_5_" gradientUnits="userSpaceOnUse" x1="93.3232" y1="151.4373" x2="79.3173" y2="230.8685">
	<stop  offset="0" style="stop-color:#CA573D"/>
	<stop  offset="0.6167" style="stop-color:#BB402A"/>
	<stop  offset="1" style="stop-color:#B02F1C"/>
</linearGradient>
<path class="st4" d="M99.8,166.8c-6.1,0.2-15.1,0.2-24.4,1.4C66.2,169.4,0,173,0,173l0,43.8l154.9-30.8l22.8-5.1c0,0-3-5.3-5.6-7.2
	c-2.6-1.9-4.9-4.9-6.3-6.7c-1.4-1.9-0.5-3.7-5.6-3.5c-5.1,0.2-14.9,2.3-27.4,2.3C120.3,165.9,105.9,166.6,99.8,166.8"/>
<linearGradient id="SVGID_6_" gradientUnits="userSpaceOnUse" x1="347.4998" y1="164.926" x2="347.4998" y2="176.8333">
	<stop  offset="0" style="stop-color:#F1D192"/>
	<stop  offset="5.878943e-02" style="stop-color:#ECC889"/>
	<stop  offset="0.3341" style="stop-color:#D6A465"/>
	<stop  offset="0.5911" style="stop-color:#C78A4B"/>
	<stop  offset="0.8208" style="stop-color:#BD7A3B"/>
	<stop  offset="1" style="stop-color:#BA7435"/>
</linearGradient>
<path class="st5" d="M333.2,173.4c0,0,9.8-5.8,14.2-7.2c4.4-1.4,5.6-1.9,10,0c4.4,1.9,4.4,1.9,4.4,1.9v8.8L333.2,173.4z"/>
<linearGradient id="SVGID_7_" gradientUnits="userSpaceOnUse" x1="317.3116" y1="165.0808" x2="317.3116" y2="189.4344">
	<stop  offset="0" style="stop-color:#F1D192"/>
	<stop  offset="8.983796e-03" style="stop-color:#EFCE8F"/>
	<stop  offset="6.218698e-02" style="stop-color:#E6BF80"/>
	<stop  offset="0.1245" style="stop-color:#E1B677"/>
	<stop  offset="0.2179" style="stop-color:#DFB374"/>
	<stop  offset="0.3124" style="stop-color:#DAAA6B"/>
	<stop  offset="0.7642" style="stop-color:#C38344"/>
	<stop  offset="1" style="stop-color:#BA7435"/>
</linearGradient>
<path class="st6" d="M272.8,176.4c0,0,25.5-7.4,30.7-9.3c5.1-1.9,6.3-2.8,11.1-1.2s14.2,5.6,26.9,7.4c12.8,1.9,20.2,3.5,20.2,3.5
	v12.6l-39.9-2.2l-27.6-1.2L272.8,176.4z"/>
<linearGradient id="SVGID_8_" gradientUnits="userSpaceOnUse" x1="180.8905" y1="170.6064" x2="180.8905" y2="229.2489">
	<stop  offset="0" style="stop-color:#F1D192"/>
	<stop  offset="1.300008e-02" style="stop-color:#EFCE8F"/>
	<stop  offset="8.998822e-02" style="stop-color:#E6BF80"/>
	<stop  offset="0.1802" style="stop-color:#E1B677"/>
	<stop  offset="0.3154" style="stop-color:#DFB374"/>
	<stop  offset="0.3981" style="stop-color:#DAAA6B"/>
	<stop  offset="0.7936" style="stop-color:#C38344"/>
	<stop  offset="1" style="stop-color:#BA7435"/>
</linearGradient>
<path class="st7" d="M126.8,185.4c17.2-2.1,30.4-2.6,39.5-3.7c9.1-1.2,25.3-6,35.1-6.3c9.8-0.2,23-0.2,33.4-2.6
	c10.4-2.3,23.5-3,29.5-1.4s14.4,5.6,20.7,7c3.7,0.9,8.4,4.9,12.1,4.9c3.7,0,6.7,1.2,12.3,1.2c5.6,0,12.3-0.7,17.6-1.2
	c18.7-1.6,34.8,0.7,34.8,0.7v45.2H0v-19.4C0,209.8,109.6,187.5,126.8,185.4z"/>
<path class="st8" d="M304.6,170.1c-0.8,0.1-1.2,0.5-1.2,2.8c0,2.3,0,2.4-0.5,2.5c-0.4,0-0.7-0.6-0.7-2c0-1.4-0.5-1.5-0.8-1.5
	s-1.1,0-1,2c0.1,2.1,0,4.1,1.7,5c0.8,0.5,1.2,0.3,1.7,0.5c0.5,0.3,0.4,0.7,0.4,1.9c0,1.2-0.2,2.2,1,2.4s1.7-0.4,1.6-1.4
	s-0.3-2.4,0.1-2.8s1.4-0.7,1.7-1.7c0.4-1.7,0.2-2.7,0.1-3.2c-0.1-1-0.6-1.3-1.1-1.3c-0.6,0-0.7,0.5-0.8,1.3c0,0.8,0,1.2-0.6,1.2
	c-0.6-0.1-0.4-1.5-0.4-3.2C305.8,170.8,305.5,170,304.6,170.1z"/>
<g>
	
		<image style="overflow:visible;" width="82" height="75" xlink:href="7DC046765B9DCFF7.png"  transform="matrix(1 0 0 1 177.5484 158.7218)">
	</image>
</g>
<path class="st8" d="M216.4,188.5c0.7,0,0.4-2,0.4-3.8s0.2-2.9,1.2-2.9c1.1,0,1.8,0.4,2.2,2.8c0.3,2.4,0.1,3.4,0.9,3.5
	c0.7,0.1-0.4-2.8,1.6-2.9c2-0.1,1.6,2.2,1.4,3.3c-0.1,1.1-0.4,2.2-2.6,3c-1.5,0.3-1,2-0.9,3.7c0.2,2.1-3.8,2.3-3.7,0.1
	c0.1-2.1,0.5-2.9-0.7-3.2s-3.7-0.7-3.7-4.4c0.1-2.4,1.1-2.7,1.7-2.8c0.8-0.1,1.3,0.5,1.4,1.8C215.7,187.9,215.8,188.6,216.4,188.5z"
	/>
<g>
	
		<image style="overflow:visible;" width="84" height="77" xlink:href="7DC046765B9DCFF5.png"  transform="matrix(1 0 0 1 234.5484 169.7218)">
	</image>
</g>
<g>
	
		<image style="overflow:visible;" width="84" height="77" xlink:href="7DC046765B9DCFFB.png"  transform="matrix(1 0 0 1 207.5484 174.7218)">
	</image>
</g>
<path class="st8" d="M246.8,192.9c-1.3,0.1-2,0.6-1.6,4.7c0.4,4.2,1.2,6.7,0.3,6.8c-1,0.1-0.9-2.6-2.5-2c-1.4,0.4-1.2,2.4-0.7,4
	c0.5,1.6,1.2,3.4,3.5,3.5c1.3,0.1,1.5,0.2,1.5,1c0,1.1,0.2,3,2.5,3s2.5-2.3,2.4-3.9c-0.1-1.6-0.9-3.3,0.4-4.2c1.3-1,3-2,2.7-4.9
	c-0.3-2.9-0.6-4-2-4c-1.3-0.1-1.5,1-1.6,2.2c0,1.2,0.2,2.4-0.9,2.4s-1.4-0.8-1.6-4.2C249,194.6,248.3,192.8,246.8,192.9z"/>
<path class="st8" d="M273.9,186.3c-1,0-1.8,0.4-1.1,4.4c0.4,2.9,0.1,3.4-0.6,3.4c-0.7,0-1-0.7-1.1-3.1c0-1.5-0.7-1.9-1.4-1.9
	s-1.7,0.5-1.6,3.2c0.1,2.7,0.3,5.2,3,6c2.7,0.8,3,1.3,3.1,3.1c0.2,1.8,0,5.6,0.2,6.2c0.2,0.6,0.8,1.3,2.1,1.3c1.3,0,2-0.6,2.1-1.6
	s-0.8-6.1-0.7-7.2c0.1-1.1,0.1-1.4,1-2.1c1.2-0.8,1.6-2.4,1.3-6.3c-0.1-1.7-0.7-2.4-1.7-2.2c-0.7,0.1-1.1,0.6-1.1,2.6
	c0,1-0.3,1.8-1,1.8c-0.7,0-0.8-2.1-0.8-4.4C275.6,187.2,274.9,186.3,273.9,186.3z"/>
<g>
	
		<image style="overflow:visible;" width="86" height="75" xlink:href="7DC046765B9DCFFD.png"  transform="matrix(1 0 0 1 124.5484 170.7218)">
	</image>
</g>
<path class="st10" d="M164.8,205.4c1.3,0.1,2.6-0.5,3.4-1.6c0,0,0,0,0,0c0.7-0.3,1.4-0.7,2.1-1.2c0.7-0.6,1.2-1.5,1.5-2.5
	c0,0,0,0,0,0l0.1,0c0-0.1,0-0.2,0-0.3c0,0,0,0,0,0c0.6-0.2,1.1-0.5,1.3-1.1c0.2-0.5,0.1-0.9,0-1.4c-0.2-0.9-0.5-1.9-1.3-2.3
	l-0.1-0.1l-0.1,0.1c-0.1,0.1-0.2,0.1-0.2,0.2c-0.2-0.1-0.4-0.2-0.7-0.3c-0.1-0.2-0.2-0.4-0.3-0.5c-0.9-1.3-2.1-2.1-3.3-2.2
	c-0.3-0.2-0.7-0.4-1-0.4c-0.9-0.1-1.6,0.6-2.1,1.3c-0.8,0.5-1.4,1.3-1.9,2.1c-0.4,0.6-0.6,1.3-0.7,2c-0.3,0.6-0.5,1.2-0.5,1.7
	c0,0.5,0,1,0.2,1.5c-0.1,0.8,0,1.6,0.4,2.3c0.2,0.4,0.6,0.8,1.1,1.1c0,0.2,0.1,0.4,0.1,0.6C163,204.9,164,205.3,164.8,205.4z
	 M169.9,202.1c-0.3,0.3-0.7,0.5-1,0.7c0.1-0.1,0.2-0.2,0.3-0.4c0.2-0.1,0.3-0.1,0.5-0.2c0.4-0.3,0.6-0.6,0.9-1
	c0-0.1,0.1-0.1,0.1-0.2l0.1-0.1C170.6,201.5,170.3,201.8,169.9,202.1z M163.8,199.3c-0.1,0.1-0.1,0.2-0.2,0.4c0,0.1-0.1,0.2-0.1,0.3
	c-0.2-0.3-0.3-0.6-0.4-1C163.3,199.1,163.5,199.2,163.8,199.3z M164.2,199.7c0-0.1,0.1-0.2,0.1-0.3c0.1,0,0.1,0,0.2,0
	C164.4,199.5,164.3,199.6,164.2,199.7z M165.2,199.5C165.2,199.5,165.2,199.5,165.2,199.5c0.1,0,0.1,0.1,0.2,0.1
	c-0.2,0.2-0.4,0.3-0.7,0.4C164.8,199.8,165,199.6,165.2,199.5z M165.9,199.8C165.9,199.8,166,199.9,165.9,199.8
	c0,0.1-0.1,0.2-0.2,0.3c-0.4,0.3-0.9,0.6-1.3,0.8c-0.1-0.1-0.2-0.2-0.2-0.2c0,0,0,0,0-0.1C164.7,200.6,165.3,200.3,165.9,199.8z
	 M166,200.5c0.2-0.2,0.4-0.3,0.5-0.5c0.1,0,0.2,0.1,0.3,0.1c0.4,0.1,0.8,0.1,1.2,0.1c0.3,0.5,0.4,1.1,0.3,1.7c0,0.1,0,0.1-0.1,0.2
	c0,0,0,0,0,0c-1.2,0.2-2.4-0.2-3.4-0.9C165.3,201.1,165.7,200.8,166,200.5z M168.5,195.1c0.3-0.1,0.5-0.1,0.8-0.1
	c0.4,0.3,0.8,0.6,1.1,1.1c-0.2,0.3-0.3,0.6-0.5,0.9c-0.1,0-0.2,0-0.3,0c0-0.1-0.1-0.1-0.1-0.2C169.3,196.2,168.9,195.6,168.5,195.1z
	 M167.5,194.9C167.4,194.9,167.4,194.9,167.5,194.9C167.4,194.9,167.5,194.9,167.5,194.9C167.5,194.9,167.5,194.9,167.5,194.9z
	 M167.9,194.6c-0.1-0.1-0.2-0.2-0.4-0.3c0.1,0,0.2,0,0.4,0.1C167.9,194.4,167.9,194.5,167.9,194.6z M168.4,194.6
	C168.4,194.6,168.4,194.6,168.4,194.6C168.4,194.6,168.4,194.6,168.4,194.6C168.4,194.6,168.4,194.6,168.4,194.6z M170.4,197.1
	c0.1-0.2,0.2-0.4,0.3-0.6c0.2,0.3,0.3,0.6,0.4,1C170.9,197.3,170.7,197.2,170.4,197.1z M168,197.1c0.1-0.1,0.1-0.3,0.2-0.5
	c0.1-0.3,0.2-0.6,0.2-0.9c0.3,0.4,0.5,0.8,0.7,1.2c-0.2,0-0.5,0.1-0.7,0.2c-0.1,0.1-0.3,0.1-0.4,0.2C168,197.2,168,197.2,168,197.1z
	 M167.4,197.1c-0.2-0.2-0.4-0.5-0.7-0.6c0-0.1,0-0.3,0-0.4c0.2-0.1,0.3-0.2,0.5-0.3c0.2,0.4,0.2,0.8,0.2,1.3
	C167.4,197,167.4,197,167.4,197.1z M167.8,195.7c0-0.1-0.1-0.2-0.1-0.3c0.1,0,0.1-0.1,0.2-0.1C167.9,195.5,167.8,195.6,167.8,195.7z
	 M167,195.2c-0.1,0.1-0.2,0.1-0.2,0.2c0-0.1,0-0.1,0-0.2c0-0.2-0.1-0.3-0.2-0.5C166.7,194.8,166.9,195,167,195.2z M166.2,195.3
	c0,0.1,0.1,0.3,0.1,0.4c-0.1,0.1-0.2,0.1-0.2,0.2c-0.6-0.3-1.2-0.5-1.9-0.5c0.5-0.5,1-0.8,1.5-1.1
	C165.9,194.7,166.1,195,166.2,195.3z M166.1,196.6C166.1,196.6,166.1,196.7,166.1,196.6c0,0.3-0.2,0.6-0.3,1c-0.2,0.5-0.5,0.8-0.8,1
	c-0.1-0.1-0.1-0.1-0.2-0.2C165.1,197.8,165.6,197.2,166.1,196.6z M166.7,198.3c-0.2,0-0.4,0-0.7,0.1c0.1-0.2,0.2-0.3,0.3-0.5
	c0.1-0.3,0.2-0.6,0.3-0.8c0.2,0.2,0.4,0.4,0.5,0.6C167,197.8,166.8,198.1,166.7,198.3z M167.7,198.4c0.1,0.3,0.3,0.5,0.4,0.8
	c-0.1-0.2-0.3-0.4-0.5-0.5C167.6,198.6,167.6,198.5,167.7,198.4z M168.9,200.3c0.2,0,0.4,0,0.6-0.1c-0.1,0.6-0.3,1.1-0.5,1.6
	c0,0,0,0.1-0.1,0.1C169,201.4,169,200.8,168.9,200.3z M167,199.6c0.1-0.1,0.2-0.3,0.3-0.4c0.1,0.1,0.2,0.3,0.3,0.4
	c0,0,0.1,0.1,0.1,0.2C167.5,199.7,167.2,199.7,167,199.6C167,199.6,167,199.6,167,199.6z M166.2,198.9c-0.1,0.1-0.2,0.2-0.3,0.3
	c-0.1,0-0.1-0.1-0.2-0.1C165.8,199,166,198.9,166.2,198.9z M171,200.1c-0.3,0.3-0.6,0.6-0.8,0.9c-0.1,0.2-0.2,0.3-0.4,0.5
	c0.2-0.4,0.3-0.9,0.3-1.3c0.4-0.1,0.7-0.1,1-0.2L171,200.1z M170.5,199.5c-0.1,0-0.3,0.1-0.4,0.1c0-0.1,0-0.2,0-0.3
	C170.3,199.4,170.4,199.4,170.5,199.5z M169.6,199.7c-0.3,0-0.5,0.1-0.8,0.1c0-0.2-0.1-0.4-0.2-0.5c-0.2-0.5-0.4-0.9-0.6-1.3
	c0.2-0.1,0.4-0.2,0.6-0.3c0.2-0.1,0.5-0.1,0.7-0.2C169.5,198.2,169.6,198.9,169.6,199.7z M171.4,199
	C171.4,199,171.4,199.1,171.4,199c-0.2,0.1-0.3,0.1-0.5,0c-0.3-0.1-0.5-0.2-0.6-0.4c-0.1-0.2-0.1-0.5-0.1-0.9c0,0,0-0.1,0-0.1
	c0.3,0.1,0.6,0.3,0.8,0.6c0.1,0.2,0.2,0.4,0.3,0.6C171.4,198.9,171.4,199,171.4,199z M172.4,197.2c0.1,0.5,0,1.2-0.4,1.6
	c0,0,0,0,0,0c0-0.2,0-0.4-0.1-0.6c0,0,0,0,0,0c-0.1-0.8-0.3-1.6-0.6-2.3c0,0,0.1-0.1,0.1-0.1C171.9,196.1,172.2,196.6,172.4,197.2z
	 M170.5,195.4c-0.1-0.1-0.2-0.2-0.3-0.3c0,0,0.1,0,0.1,0C170.4,195.2,170.5,195.3,170.5,195.4z M167.7,192.6
	c0.8,0.3,1.6,0.9,2.2,1.9c0,0,0,0,0,0c-0.1,0-0.2,0-0.3,0c-0.1,0-0.2,0-0.3,0c-0.1,0-0.1-0.1-0.2-0.1c-0.3-0.2-0.6-0.3-0.9-0.4
	c-0.1-0.3-0.2-0.7-0.4-1C167.9,192.8,167.8,192.7,167.7,192.6z M164.4,193.2c0.4-0.2,0.8-0.5,1.2-0.6c0.5-0.2,0.9-0.2,1.3-0.2
	c0.3,0.2,0.5,0.5,0.6,0.8c0.1,0.2,0.2,0.4,0.2,0.6c-0.5-0.1-1-0.1-1.5,0c-0.2,0-0.4-0.1-0.7-0.1c-0.3-0.1-0.6-0.2-1-0.2
	c-0.1,0-0.2,0.1-0.4,0.1C164.2,193.5,164.3,193.4,164.4,193.2z M163.5,194C163.5,194,163.5,194,163.5,194c0,0.1,0,0.1-0.1,0.2
	c-0.2,0.2-0.3,0.3-0.4,0.5c-0.2,0.1-0.3,0.3-0.5,0.4C162.8,194.7,163.1,194.3,163.5,194z M163.7,196.1c0.6-0.1,1.3,0,1.9,0.3
	c-0.5,0.5-0.9,1.1-1.2,1.7c-0.2-0.2-0.3-0.5-0.5-0.8C163.8,196.9,163.7,196.5,163.7,196.1z M162.3,197
	C162.3,197,162.3,197,162.3,197C162.3,197.1,162.3,197.1,162.3,197C162.3,197.1,162.3,197,162.3,197z M163.2,196.7
	c0,0.3,0.1,0.6,0.2,0.8c0.2,0.4,0.4,0.8,0.7,1.1c0,0.1-0.1,0.1-0.1,0.2c-0.4-0.1-0.8-0.4-1.1-0.7c0-0.1,0-0.2,0-0.3
	C162.9,197.4,163.1,197,163.2,196.7z M161.8,197.4C161.8,197.4,161.8,197.4,161.8,197.4c0,0.1,0.1,0.2,0.1,0.3
	c-0.1,0.1-0.1,0.2-0.2,0.3C161.7,197.8,161.8,197.6,161.8,197.4z M161.8,199.1c0.1-0.3,0.3-0.6,0.4-0.9c0,0,0,0,0,0
	c0,0.1,0,0.3,0,0.4c0.1,0.6,0.3,1.2,0.9,1.6c0,0.1,0.1,0.1,0.1,0.2c0,0,0,0,0.1,0.1c0,0.2-0.1,0.4-0.1,0.5c0,0,0,0,0,0
	c-0.3,0-0.5-0.1-0.8-0.2C162.1,200.3,161.9,199.7,161.8,199.1z M163.7,201.6c0.2,0,0.4-0.1,0.5-0.1c1,0.8,2.3,1.3,3.6,1.2
	c-0.2,0.1-0.3,0.2-0.5,0.3c-0.7,0.3-1.6,0.4-2.4,0.1c-0.5-0.2-0.9-0.5-1.1-0.8C163.8,202.1,163.7,201.9,163.7,201.6z M162.8,201.6
	C162.9,201.6,162.9,201.6,162.8,201.6C162.9,201.6,162.9,201.7,162.8,201.6C162.9,201.7,162.9,201.6,162.8,201.6z M161.9,202.1
	c-0.2-0.3-0.3-0.8-0.4-1.2c0.1,0.1,0.1,0.1,0.2,0.2c0.1,0.1,0.2,0.1,0.3,0.2c0.2,0.3,0.4,0.6,0.6,0.9c-0.1,0.2-0.1,0.4-0.1,0.6
	C162.2,202.6,162,202.4,161.9,202.1z M163.1,202.7c0.3,0.3,0.5,0.5,0.8,0.7c0.1,0.1,0.3,0.2,0.4,0.3c-0.3-0.1-0.6-0.2-0.9-0.4
	c-0.2-0.1-0.3-0.2-0.4-0.2C163,203,163,202.9,163.1,202.7z M163.2,203.9C163.2,203.9,163.2,203.9,163.2,203.9
	c0.6,0.3,1.2,0.5,1.7,0.6c0.6,0.1,1.2,0,1.8-0.1c0.1,0,0.2,0,0.3-0.1c-0.6,0.4-1.4,0.6-2.1,0.6C164.3,204.8,163.5,204.5,163.2,203.9
	z"/>
<path class="st91" d="M82.1,206.7c1.2-3.5,2.9-6.9,5.2-9.9c2.2-3,5-5.7,8.1-7.9c5.9-4.7,12.8-8.3,20.1-10.6c7.3-2.3,15-3.5,22.7-3.7
	c3.8-0.1,7.7,0,11.5,0.2c3.8,0.2,7.6,0.6,11.4,1.2c7.5,1.1,14.9,2.8,22.1,4.8c7.2,1.9,14.3,4.2,21.4,6.3c7,2.2,14.1,4.3,21.1,6.2
	c7.1,1.9,14.3,3.5,21.7,4.9c-7.4,1.2-15.1,1.3-22.6,0.6c-7.6-0.6-15-1.9-22.3-3.6c-7.3-1.6-14.5-3.5-21.7-5.3
	c-7.1-1.9-14.2-3.7-21.3-5.2c-3.5-0.7-7.1-1.4-10.7-2c-3.6-0.6-7.1-1-10.7-1.2c-7.2-0.3-14.4,0-21.5,1.3c-7.1,1.4-14,3.7-20.5,7.3
	c-3.1,1.9-5.9,4.3-8.3,7.1C85.5,200,83.6,203.2,82.1,206.7z"/>
</svg>
