<?xml version="1.0" encoding="utf-8"?>
<!-- Generator: Adobe Illustrator 17.0.0, SVG Export Plug-In . SVG Version: 6.00 Build 0)  -->
<!DOCTYPE svg PUBLIC "-//W3C//DTD SVG 1.1//EN" "http://www.w3.org/Graphics/SVG/1.1/DTD/svg11.dtd">
<svg version="1.1" id="Layer_1" xmlns="http://www.w3.org/2000/svg" xmlns:xlink="http://www.w3.org/1999/xlink" x="0px" y="0px"
	 width="200.637px" height="109.416px" viewBox="0 0 200.637 109.416" enable-background="new 0 0 200.637 109.416"
	 xml:space="preserve">
<g>
	<path id="Path_48" fill="#020202" d="M139.77,69.178h-0.125c-10.971,0-28.238,4.8-44.944,9.475c-1.5,0.436-2.93,0.81-4.426,1.247
		c-7.979-4.738-16.27-9.537-25.246-9.787c-7.73-0.249-13.153,1.06-16.02,3.865c-1.454,1.382-2.286,3.294-2.306,5.3
		c0.023,1.902,0.836,3.709,2.244,4.987c2.618,2.556,7.044,3.99,12.156,3.865c6.358-0.125,17.08-2.93,28.862-6.171
		c2.493,1.5,4.987,2.93,7.418,4.239c-0.881,0.62-1.696,1.331-2.431,2.119c-2.651,2.694-4.032,6.388-3.8,10.161
		c0.374,7.979,3.553,10.909,6.171,11.158c0.736,0.052,1.476-0.033,2.182-0.249c0.907-0.373,1.718-0.949,2.369-1.683
		c2.618-2.93,4.052-8.852,2.493-11.408s-5.673-2.618-5.3-2.057s0.5-0.374,1.995,2.057c0.538,0.968,0.777,2.075,0.686,3.179
		c-0.052,1.033-0.22,2.058-0.5,3.054c-0.448,1.807-1.4,3.449-2.743,4.738c-0.53,0.52-1.332,0.645-1.995,0.312
		c-1.683-0.81-3.241-3.865-3.491-9.039c-0.218-3.257,0.961-6.453,3.241-8.789c0.895-0.928,1.9-1.745,2.992-2.431
		c4.114,1.995,8.1,3.366,12.093,3.428c3.179,0.062,5.3-1.683,5.486-4.551c0.105-1.064-0.233-2.124-0.935-2.93
		c-1-1.122-2.805-1.683-5.3-1.683c-4.018,0.328-7.914,1.541-11.408,3.553c-2.182-1.122-4.426-2.431-6.732-3.74
		c0.873-0.249,1.808-0.5,2.68-0.748c15.771-4.426,33.6-9.413,44.321-9.413h0.249c6.795,0,10.1,1.87,10.1,5.673
		c0,0.312-0.187,2.057-2.618,2.68c-4.3,1.06-8.1-0.062-9.662-2.431c-1.5-2.369-0.686-2.057-1-2.68s-2.057,3.117-0.436,5.673
		c1.247,1.932,4.987,3.3,8.353,3.3c2.493,0,7.169-1.371,7.293-6.483C151.863,71.734,147.749,69.178,139.77,69.178z M58.795,85.448
		c-4.3-0.686-7.667-3.179-7.73-6.919c-0.062-4.052,6.047-5.735,9.475-6.3c1.488-0.196,2.987-0.3,4.488-0.312
		c7.979,0.249,15.522,4.364,22.815,8.665c-7.106,1.932-13.714,3.678-19.075,4.675C65.469,85.787,62.112,85.851,58.795,85.448z
		 M110.659,83.204c1.87,0,3.3,0.374,3.927,1.06c0.374,0.403,0.535,0.959,0.436,1.5c-0.187,2.369-2.057,2.867-3.615,2.867
		c-3.522-0.193-6.964-1.128-10.1-2.743C104.235,84.43,107.404,83.521,110.659,83.204z"/>
	<path id="Path_49" fill="#800000018000000180000001" d="M16.343,26.166H16.22c-0.172,0.019-0.34,0.061-0.5,0.125
		C15.921,26.22,16.131,26.178,16.343,26.166z"/>
	<path id="Path_50" fill="#800000018000000180000001" d="M57.548,50.166"/>
	<path id="Path_51" fill="#800000018000000180000001" d="M82.919,25.48c-0.062,0-0.125,0.062-0.187,0.062l0,0
		c0.125-0.062,0.312-0.062,0.5-0.125L82.919,25.48z"/>
	<path id="Path_52" fill="#800000018000000180000001" d="M16.655,26.104L16.655,26.104z"/>
	<path id="Path_53" fill="#800000018000000180000001" d="M170.813,25.855c-0.062,0-0.125,0.062-0.249,0.062
		c-0.235,0.065-0.464,0.148-0.686,0.249c0.384-0.141,0.78-0.245,1.184-0.312L170.813,25.855z"/>
	<path id="Path_54" fill="#800000018000000180000001" d="M145.255,25.855c-0.062,0-0.125,0.062-0.249,0.062
		c-0.235,0.065-0.464,0.148-0.686,0.249c0.384-0.141,0.78-0.245,1.184-0.312L145.255,25.855z"/>
	<path id="Path_55" fill="#800000018000000180000001" d="M145.317,25.792l0.187-0.062C145.455,25.778,145.386,25.801,145.317,25.792
		z"/>
	<path id="Path_56" fill="#800000018000000180000001" d="M170.938,25.792l0.187-0.062C171.076,25.778,171.007,25.801,170.938,25.792
		z"/>
	<path id="Path_57" fill="#800000018000000180000001" d="M52.374,45.677l-0.062,0.062c0.298-0.191,0.611-0.358,0.935-0.5
		c-0.062,0.062-0.125,0.062-0.249,0.125C52.784,45.456,52.576,45.56,52.374,45.677z"/>
	<path id="Path_58" fill="#800000018000000180000001" d="M168.444,45.428c0,0.062,0.062,0.062,0.062,0.125
		C168.471,45.521,168.449,45.476,168.444,45.428z"/>
	<path id="Path_59" fill="#800000018000000180000001" d="M82.981,25.418l0.374-0.062C83.233,25.388,83.108,25.408,82.981,25.418z"/>
	<path id="Path_60" fill="#800000018000000180000001" d="M143.322,45.241L143.322,45.241z"/>
	<path id="Path_61" fill="#800000018000000180000001" d="M120.57,42.436c-0.048,0.004-0.093,0.026-0.125,0.062
		C120.478,42.463,120.522,42.441,120.57,42.436z"/>
	<path id="Path_62" fill="#800000018000000180000001" d="M182.22,45.864l-0.062,0.062c0.298-0.191,0.611-0.358,0.935-0.5
		c-0.062,0.062-0.125,0.062-0.249,0.125C182.63,45.643,182.422,45.747,182.22,45.864z"/>
	<path id="Path_63" fill="#800000018000000180000001" d="M119.635,43.059c-0.062,0-0.062,0.062-0.125,0.125
		c0.062-0.062,0.125-0.125,0.187-0.125H119.635z"/>
	<path id="Path_64" fill="#800000018000000180000001" d="M143.51,45.304"/>
	<path id="Path_65" fill="#800000018000000180000001" d="M119.947,42.81c0.187-0.125,0.436-0.312,0.623-0.436
		c-0.062,0.062-0.187,0.125-0.249,0.187C120.218,42.673,120.09,42.758,119.947,42.81z"/>
	<path id="Path_66" fill="#800000018000000180000001" d="M79.739,44.556c-0.062,0-0.062,0-0.125-0.062c-0.062,0-0.062,0-0.125-0.062
		c0.069,0.066,0.155,0.109,0.249,0.125L79.739,44.556z"/>
	<path id="Path_67" fill="#800000018000000180000001" d="M186.833,68.368h0.5c-0.251,0.01-0.502-0.01-0.748-0.062h0.125
		C186.758,68.311,186.801,68.333,186.833,68.368z"/>
	<path id="Path_73" fill="#800000018000000180000001" d="M90.15,57.396l0.686-2.057l1.5-4.114c0.5-1.371,1-2.805,1.5-4.114
		c-0.048,0.101-0.09,0.205-0.125,0.312c-0.623,1.247-1.184,2.431-1.683,3.678c-0.623,1.371-1.122,2.743-1.621,4.114
		s-0.935,2.805-1.309,4.239c-0.093,0.368-0.155,0.744-0.187,1.122c0,0.187-0.062,0.374-0.062,0.561v0.561
		c0.045,0.388,0.151,0.766,0.312,1.122c0.167,0.372,0.451,0.679,0.81,0.873c0.178,0.074,0.368,0.116,0.561,0.125
		c0,0-0.125,0-0.436-0.249c-0.284-0.216-0.483-0.525-0.561-0.873c-0.122-0.319-0.186-0.658-0.187-1
		c-0.019-0.719,0.087-1.436,0.312-2.119C89.751,58.836,89.915,58.105,90.15,57.396z"/>
	<path id="Path_74" fill="#800000018000000180000001" d="M79.989,44.68L79.989,44.68c-0.125-0.062-0.187-0.062-0.249-0.125h-0.062
		c-0.08-0.031-0.164-0.052-0.249-0.062c0.973,0.315,1.708,1.121,1.932,2.119c0.279,0.951,0.343,1.952,0.187,2.93
		c-0.121,0.988-0.308,1.967-0.561,2.93c-0.249,1-0.5,1.932-0.81,2.867c-0.582,1.913-1.535,3.692-2.805,5.236
		c-0.971,1.265-2.127,2.378-3.428,3.3c-0.623,0.436-1.5,0.935-1.5,0.935c0.665-0.221,1.294-0.536,1.87-0.935
		c0.222-0.124,0.43-0.27,0.623-0.436l0.623-0.5c0.818-0.631,1.551-1.364,2.182-2.182c1.257-1.632,2.226-3.466,2.867-5.423
		c0.312-1,0.561-1.932,0.81-2.93c0.232-1.006,0.399-2.026,0.5-3.054c0.092-1.033-0.036-2.074-0.374-3.054
		C81.234,45.59,80.683,45.018,79.989,44.68z"/>
	<path id="Path_75" fill="#800000018000000180000001" d="M57.548,50.166c-0.114,0.181-0.219,0.368-0.312,0.561l0,0
		c-0.5,0.873-1,1.808-1.434,2.743l-0.436,0.81l-0.374,0.873l-0.748,1.745l-0.561,1.808c-0.203,0.592-0.37,1.196-0.5,1.808
		c-0.124,0.616-0.187,1.242-0.187,1.87c0.011,0.315,0.053,0.628,0.125,0.935c0.081,0.319,0.23,0.617,0.436,0.873l0,0
		c-0.088-0.285-0.151-0.577-0.187-0.873c-0.062-0.413-0.062-0.834,0-1.247c0.062-0.561,0.187-0.873,0.312-1.5
		c0.129-0.592,0.296-1.175,0.5-1.745l0.561-1.745c0.436-1.122,0.873-2.306,1.309-3.428C56.613,52.472,57.111,51.288,57.548,50.166z"
		/>
	<g>
		<path fill="#020202" d="M200.797,54.592c-0.873-4.239-6.421-6.234-6.171-5.3s0.81-0.249,1.683,3.74
			c0.873,3.989-2.93,10.784-8.727,13.527c-4.052,1.932-3.054-2.93-2.805-3.74c0.873-2.992,4.052-9.787,4.3-10.909
			c0.156-1.23-0.369-2.448-1.371-3.179c0.238-0.969,0.195-1.985-0.125-2.93c-0.374-1.309-1.434-2.369-3.8-1.995
			c-5.548,0.81-10.6,5.548-13.589,13.652c-0.561,0.81-1.122,1.683-2.244,3.054c-0.911,1.183-2.307,1.893-3.8,1.932
			c-1.06-0.062-2.68-0.5-4.177-2.743c-0.81-1.247-1.683-2.493-2.431-3.678c2.244-2.431,4.738-4.8,6.732-6.732
			c1-1,1.745-1.247,1.621-0.873c-0.368,1.156-0.619,2.346-0.748,3.553c-0.062,1.5,1.87,2.68,2.68,2.68
			c0.81-0.062,0.5-1.434,0.686-2.244c0.125-0.748,2.431-2.743,2.493-4.488s-0.81-4.114-2.244-4.114c-1.184,0-2.618,0.873-7.605,5.86
			c-1.184,1.184-2.369,2.431-3.366,3.491c1.371-4.052,3.054-8.789,5.049-13.776c4.925-0.125,8.603-1.309,11.034-3.553
			c1.875-1.762,2.935-4.222,2.93-6.795c0.089-1.743-0.975-3.339-2.618-3.927c-0.282-0.112-0.575-0.195-0.873-0.249
			c-1.008-0.199-2.046-0.199-3.054,0c-4.925,0.686-8.228,4.613-11.47,12.592c-3.553-0.447-6.96-1.682-9.974-3.616
			c-0.125-0.062-0.312-0.187-0.436-0.249c1.309-1.87,2.431-4.177,1.932-6.109c-0.402-1.657-1.849-2.851-3.553-2.93
			c-4.052-0.062-7.106,1.745-9.787,5.673h-0.508c-2.171,0.105-4.287,0.724-6.171,1.808c-3.366,1.808-6.234,5.423-5.86,5.8
			c0.374,0.377,2.68-2.119,6.795-4.114c1.454-0.741,3.008-1.266,4.613-1.558c-2.415,4.693-4.397,9.596-5.922,14.649
			c-0.312,0.873-0.561,1.683-0.81,2.493c-2.057,2.119-4.675,4.675-7.418,7.044c-0.935-2.743-2.68-5.922-2.369-7.231
			c0.374-1.808,4.052-4.364,4.052-5.049c-0.062-1.995-1.5-4.426-2.618-4.426c-1.118,0-5.3,4.925-5.423,7.854
			c-1,1.683-2.119,3.616-3.366,5.486c-0.873,1.309-6.234,8.789-7.979,7.48c-0.935-0.748,4.613-10.847,4.613-12.717
			s-1.558-3.8-2.93-3.8c-0.623,0-2.057,3.241-3.428,7.044c-0.034-0.001-0.061,0.026-0.062,0.06c0,0.001,0,0.001,0,0.002
			c0,0-1.184,1.621-4.551,5.423c-3.366,3.865-4.675,4.613-5.61,3.99c-1-0.623,4.613-10.847,4.613-12.717s-1.621-3.8-2.93-3.8
			c-0.5,0-1.5,2.057-2.618,4.8c-1.309,0.436-3.927,1.371-6.982,2.618c0.073-0.412,0.114-0.829,0.125-1.247
			c0.125-2.306-0.312-3.865-1.309-4.8c-0.907-1.012-2.296-1.443-3.616-1.122c-1.745,0.312-5.174,3.428-7.293,5.548
			c0.935-2.743,1.87-5.361,2.493-7.293c3.525-0.571,6.825-2.102,9.537-4.426c5.049,1.808,9.911,3.179,13.714,3.179
			c5.973-0.116,11.679-2.5,15.958-6.67c2.992-2.805,4.925-6.67,4.488-6.919c-0.437-0.249-2.867,2.805-5.673,5.423
			c-3.3,3.054-8.291,6.3-14.774,6.3c-3.3,0-7.667-1.184-12.218-2.743c2.68-3.054,3.553-6.421,3.179-8.415
			c-0.067-0.391-0.193-0.769-0.374-1.122c-0.641-1.315-1.912-2.209-3.366-2.369c-4.613-0.436-7.979,2.306-10.909,7.48
			c-5.3-2.057-9.787-3.8-12.841-4.114c-3.553-0.374-6.358,0.312-8.1,1.932c-1.263,1.168-1.947,2.833-1.87,4.551
			c0.062,4.8,5.112,7.418,15.958,8.228c0.81,0.062,1.558,0.062,2.306,0.062c-0.436,1.309-0.935,2.618-1.371,4.052
			c-1,3.054-1.808,5.486-2.493,7.48c-1.309,1.558-2.493,2.93-3.366,3.865c-1.775,2.088-3.759,3.989-5.922,5.673
			c-0.312,0.249-0.81,0.623-1.122,0.561c-1-0.187,4.052-10.909,4.364-12.28c0.156-1.23-0.369-2.448-1.371-3.179
			c0.248-0.972,0.182-1.997-0.187-2.93c-0.374-1.309-1.371-2.306-3.74-1.995c-5.049-0.623-13.4,1.683-17.142,2.805
			c-0.727-1.879-2.478-3.166-4.488-3.3c2.743-3.428,5.3-7.917,5.3-12.28c-0.062-2.992-1-4.675-2.119-5.673
			c-0.65-0.544-1.419-0.928-2.244-1.122c-2.431-0.561-5.922,1.122-10.6,4.987c-0.187-0.312-1.995-4.488-6.358-4.8
			c-1.398-0.006-2.781,0.292-4.052,0.873c-5.174,2.369-10.472,9.35-9.849,13.589c0.4,2.033,1.617,3.814,3.366,4.925
			c-0.402-0.44-0.758-0.92-1.06-1.434c-0.554-0.987-0.813-2.111-0.748-3.241c0.026-1.12,0.281-2.223,0.748-3.241
			c0.438-1.042,1.003-2.026,1.683-2.93l1.06-1.309l0.5-0.623l0.561-0.623l1.184-1.184c0.436-0.374,0.873-0.748,1.309-1.06
			c0.915-0.628,1.898-1.15,2.93-1.558c0.249-0.062,0.5-0.187,0.81-0.249l0.623-0.125c0.125,0,0.187-0.062,0.312-0.062
			c0.246-0.052,0.497-0.072,0.748-0.062h0.873c-0.546,0.001-1.09,0.063-1.621,0.187c-0.249,0.062-0.5,0.125-0.81,0.187l-0.748,0.312
			l-0.748,0.312c-0.236,0.111-0.465,0.236-0.686,0.374c-0.461,0.276-0.899,0.589-1.309,0.935l-1.247,1.06
			c-0.374,0.374-0.748,0.81-1.122,1.184l-0.561,0.561l-0.5,0.623l-1,1.309c-1.358,1.696-2.182,3.757-2.369,5.922
			c-0.049,1.081,0.187,2.156,0.686,3.117c0.483,0.908,1.14,1.713,1.932,2.369c0.686,0.312,1.184,0.312,1.122,0.062
			C8.486,43.948,7.8,45.07,7.239,41.018c-0.561-4.052,3.74-10.535,9.662-12.841c0.451-0.204,0.939-0.31,1.434-0.312
			c1.621-0.125,2.244,2.493,2.182,3.927c-0.062,0.062-0.125,0.125-0.187,0.125c-4.3,3.927-9.662,12.156-13.278,18.514
			C5.431,53.298,0.32,62.649,0.257,66.638c-0.002,0.916,0.281,1.809,0.81,2.556h0.062c1.864-0.636,3.552-1.704,4.925-3.117
			c0.686-0.686,1.371-1.434,1.995-2.182c0.624-0.748,1.184-1.621,1.745-2.369c1.174-1.6,2.256-3.265,3.241-4.987
			c0.5-0.873,0.935-1.745,1.434-2.618c0.499-0.873,0.935-1.745,1.371-2.618c1.808-3.553,3.366-7.169,4.862-10.847
			c0.388-0.914,0.722-1.851,1-2.805c0.292-0.951,0.46-1.936,0.5-2.93c0.064-0.981,0.001-1.965-0.187-2.93
			c-0.166-0.976-0.527-1.909-1.06-2.743c0.444,0.626,0.782,1.321,1,2.057c-0.009,0.068,0.014,0.137,0.062,0.187
			c0.062,0.249,0.125,0.5,0.187,0.81c0,0.125,0.062,0.187,0.062,0.312c0.062,0.312,0.062,0.623,0.125,1
			c0.129,1.8-0.126,3.606-0.748,5.3c-0.561,1.683-1.309,3.366-1.932,5.049c-1.371,3.366-2.867,6.608-4.551,9.849l-1.309,2.369
			c-0.436,0.81-0.935,1.558-1.371,2.306c-0.5,0.748-0.935,1.558-1.434,2.306c-0.499,0.748-1,1.5-1.558,2.182
			c-1.105,1.437-2.313,2.791-3.615,4.052c-1.297,1.255-2.881,2.174-4.613,2.68c0.778,0.609,1.759,0.899,2.743,0.81
			c7.106,0.062,20.2-29.049,20.571-33.288c0.303-2.072,0.023-4.188-0.81-6.109c5.236-4.364,8.041-5.112,9.475-4.862
			c0.81,0.249,1.5,0.5,1.5,2.431c-0.025,0.909-0.172,1.81-0.436,2.68c-1,3.491-6.795,13.34-10.161,13.776
			c-0.748,0.062-0.5,1.5,0.187,2.68c0.506-0.165,0.988-0.395,1.434-0.686c0.422-0.299,0.818-0.634,1.184-1
			c0.748-0.748,1.5-1.5,2.244-2.306c1.465-1.55,2.799-3.218,3.99-4.987c1.248-1.728,2.216-3.643,2.867-5.673
			c0.327-1.028,0.496-2.1,0.5-3.179c0.046-1.076-0.285-2.134-0.935-2.992l0.062,0.062l0.125,0.125
			c0.062,0.062,0.062,0.125,0.125,0.187c0.063,0.062,0.062,0.125,0.125,0.187l0.187,0.374c0,0.062,0.062,0.125,0.062,0.187
			c0.07,0.136,0.113,0.284,0.125,0.436c-0.009,0.068,0.014,0.137,0.062,0.187c0.062,0.187,0.062,0.312,0.125,0.5
			c0.054,0.266,0.075,0.539,0.062,0.81v0.187c0.003,1.625-0.315,3.236-0.935,4.738c-0.34,0.907-0.757,1.783-1.247,2.618
			c-0.561,0.81-1,1.683-1.621,2.431c-1.144,1.579-2.394,3.078-3.74,4.488c-0.686,0.748-1.371,1.371-2.119,2.057
			c-0.715,0.689-1.595,1.183-2.556,1.434c0.5,0.81,1.122,1.434,1.683,1.434c0.561,0,2.244-1.184,4.177-3.179
			c0.612-0.263,1.267-0.411,1.932-0.436c0.686,0,1.621,0.935,2.057,2.369c-1.371,0.561-2.805,1.184-4.239,1.808
			c-9.1,4.177-13.527,7.73-14.213,11.532c-0.166,0.804-0.145,1.636,0.062,2.431c0.227,1.086,0.605,2.135,1.122,3.117l0.249,0.187
			c0.615,0.457,1.353,0.718,2.119,0.748c0.773,0.031,1.548-0.032,2.306-0.187c1.516-0.287,2.971-0.836,4.3-1.621
			c2.657-1.61,4.95-3.756,6.732-6.3c0.881-1.273,1.633-2.63,2.244-4.052c0.64-1.42,1.041-2.937,1.184-4.488
			c0.073-0.768,0.052-1.543-0.062-2.306c-0.126-0.764-0.379-1.501-0.748-2.182c-0.36-0.689-0.873-1.286-1.5-1.745
			c-0.629-0.458-1.41-0.659-2.182-0.561v-0.062c0.634-0.103,1.285-0.016,1.87,0.249c0.57,0.268,1.063,0.675,1.434,1.184
			c0.119,0.134,0.223,0.28,0.312,0.436l0.062,0.062v0.062c0.125,0.187,0.187,0.312,0.312,0.5c0,0.062,0.062,0.125,0.062,0.187
			c0.062,0.187,0.187,0.374,0.249,0.561v0.062c0.049,0.073,0.071,0.161,0.062,0.249c0.062,0.187,0.125,0.312,0.187,0.5
			c0.062,0.249,0.125,0.561,0.187,0.873c0.052,0.309,0.072,0.622,0.062,0.935c0,2.207-0.513,4.384-1.5,6.358
			c-1.022,2.309-2.411,4.436-4.114,6.3c-1.676,1.891-3.738,3.4-6.047,4.426c-1.153,0.512-2.369,0.869-3.616,1.06
			c-0.62,0.083-1.246,0.104-1.87,0.062c-0.321-0.002-0.638-0.065-0.935-0.187c-0.249-0.062-0.436-0.187-0.686-0.249
			c1.019,1.428,2.672,2.266,4.426,2.244c4.488,0,15.646-7.73,15.958-17.329c0.087-1.465-0.039-2.935-0.374-4.364
			c0.436-0.187,2.369-0.81,2.867-0.935c2.901-0.823,5.86-1.428,8.852-1.808c-4.551,2.68-9.039,8.041-9.413,14.462
			c-0.124,2.102,0.902,4.107,2.68,5.236c1.87,1.371,6.857-3.678,9.039-6.234l0.561-0.561c-1.621,4.925-0.748,8.166,2.431,8.228
			c0.732-0.059,1.429-0.342,1.995-0.81c0.686-0.5,2.992-2.68,3.678-3.366c0.873-0.81,1.808-1.87,2.93-3.054
			c0.187-0.249,0.436-0.5,0.686-0.81c-1.122,3.3-1.247,3.865-1.06,4.3c0.185,0.326,0.393,0.639,0.623,0.935
			c0.882-1.565,1.652-3.189,2.306-4.862c0.623-1.683,1.184-3.428,1.808-5.174l1.558-5.3l1.683-5.236
			c1.144-3.504,2.54-6.92,4.177-10.223c0.828-1.651,1.876-3.183,3.117-4.551c0.965-1.025,2.104-1.869,3.366-2.493
			c0.173-0.07,0.34-0.154,0.5-0.249c0.19-0.111,0.403-0.175,0.623-0.187c0.198-0.081,0.409-0.124,0.623-0.125
			c-0.909,0.195-1.775,0.555-2.556,1.06c-0.772,0.497-1.484,1.082-2.119,1.745c-1.274,1.355-2.345,2.888-3.179,4.551
			c-0.873,1.621-1.5,3.428-2.244,5.112c-0.686,1.745-1.309,3.491-1.87,5.236c-1.184,3.553-2.182,7.106-3.241,10.66
			c-0.623,1.745-1.184,3.553-1.87,5.3c-0.684,1.741-1.496,3.429-2.431,5.049v0.062c0.426,0.614,1.075,1.039,1.808,1.184
			c0.125,0,0.249-0.312,0.5-0.81c0.148,0.258,0.338,0.49,0.561,0.686c1.247,1.184,3.74,1.122,3.927,1.184
			c5.548,0,11.1-4.364,12.9-13.4c2.556-1,4.862-1.87,6.483-2.431c-1.745,4.675-3.491,10.223-3.428,11.408
			c0.062,2.119,1.683,4.613,2.867,4.613c2.244,0,5.86-4.551,8.041-7.169c0.935-1.122,1.808-2.306,2.68-3.428
			c-0.715,1.96-1.237,3.985-1.558,6.047c0.062,2.119,1.683,4.613,2.867,4.613c2.244,0,5.984-4.426,8.041-7.169
			c0.686-0.935,2.182-3.3,3.678-5.673c0.873-1.434,1.745-2.743,2.431-3.99c0.873,1.995,2.369,3.865,2.182,6.234
			c-0.187,3.3-4.364,6.545-5.984,6.483s-2.805-1.87-2.805-0.125c0.253,2.275,2.082,4.052,4.364,4.239c3.927,0,8.6-4.551,8.727-7.418
			c0.017-0.399-0.025-0.798-0.125-1.184c1.995-1.745,3.99-3.491,5.735-5.236c-2.867,8.665-3.3,9.537-2.992,10.1
			c0.212,0.324,0.441,0.636,0.686,0.935c1.67-3.23,3.027-6.612,4.052-10.1l1.621-5.236c0.561-1.745,1.122-3.491,1.745-5.236
			c0.623-1.745,1.247-3.428,1.995-5.112c0.374-0.873,0.686-1.683,1.06-2.556c0.374-0.81,0.81-1.621,1.247-2.431
			c0.842-1.62,1.913-3.111,3.179-4.426c1-1.023,2.185-1.848,3.491-2.431c0.15-0.051,0.296-0.113,0.436-0.187
			c0.213-0.045,0.421-0.107,0.623-0.187c0.163-0.042,0.331-0.062,0.5-0.062c-1.804,0.446-3.432,1.424-4.675,2.805
			c-1.292,1.317-2.366,2.832-3.179,4.488c-0.857,1.641-1.627,3.326-2.306,5.049c-0.312,0.873-0.686,1.683-1,2.556l-0.935,2.618
			c-0.623,1.745-1.184,3.491-1.745,5.236l-1.683,5.3c-1.056,3.555-2.497,6.983-4.3,10.223v0.062c0.561,0.623,1.247,1.247,1.87,1.247
			c0.249,0,0.686-0.748,1.184-2.119c1.122-1.745,3.241-5.174,5.61-8.478c1.922-2.88,4.137-5.554,6.608-7.979
			c0.873-0.81,1.06-0.125,0.81,0.436c-1.961,4.8-3.565,9.738-4.8,14.774c-0.312,2.743,1.683,4.613,2.867,4.613
			c4.364-0.125,10.161-10.472,11.719-12.841c1.247-1.933,2.306-3.679,3.179-5.236c-4.177,12.717-4.8,13.776-4.426,14.4
			c0.125,0.187,0.374,0.561,0.686,1c1.67-3.23,3.027-6.612,4.052-10.1l1.621-5.236c0.561-1.745,1.122-3.491,1.745-5.236
			c0.623-1.745,1.247-3.428,1.995-5.112c0.374-0.873,0.686-1.683,1.06-2.556c0.374-0.81,0.81-1.621,1.247-2.431
			c0.842-1.62,1.913-3.111,3.179-4.426c1-1.023,2.185-1.848,3.491-2.431c0.15-0.051,0.296-0.113,0.436-0.187
			c0.213-0.045,0.421-0.107,0.623-0.187c0.163-0.042,0.331-0.062,0.5-0.062c-1.804,0.446-3.432,1.424-4.675,2.805
			c-1.288,1.311-2.358,2.819-3.171,4.467c-0.857,1.641-1.627,3.326-2.306,5.049c-0.312,0.873-0.686,1.683-1,2.556l-0.935,2.618
			c-0.623,1.745-1.184,3.491-1.745,5.236l-1.683,5.3c-1.056,3.555-2.497,6.983-4.3,10.223v0.062c0.561,0.623,1.247,1.247,1.87,1.247
			c0.561,0,1.5-2.93,3.054-7.605c2.057,3.117,4.738,7.044,5.984,8.228c0.395,0.354,0.904,0.553,1.434,0.561h0.249
			c1.683-0.187,3.678-2.244,5.86-4.987c0.365,1.501,1.276,2.813,2.556,3.678c1.87,1.371,6.857-3.678,9.039-6.234l0.561-0.561
			c-0.44,1.354-0.712,2.757-0.81,4.177c-0.282,3.838,2.601,7.179,6.439,7.461c0.16,0.012,0.32,0.018,0.48,0.019
			c1.188-0.083,2.36-0.314,3.491-0.686C195.997,67.62,201.732,58.768,200.797,54.592z M166.948,50.228
			c0.254-0.539,0.545-1.06,0.873-1.558l0.5-0.748c0.191-0.22,0.339-0.474,0.436-0.748c0.148-0.58,0.034-1.195-0.312-1.683
			l0.125,0.125c0.401,0.415,0.606,0.982,0.561,1.558c-0.008,0.317-0.118,0.623-0.312,0.873c-0.125,0.249-0.312,0.561-0.436,0.81
			c-0.312,0.5-0.623,1.06-0.935,1.558c-0.15,0.258-0.275,0.529-0.374,0.81c-0.161,0.397-0.182,0.836-0.062,1.247
			c-0.233-0.13-0.394-0.359-0.436-0.623C166.526,51.283,166.656,50.716,166.948,50.228z M15.164,45.491
			c-5.05,11.22-11.221,19.698-13.091,21.007c-0.124,0.104-0.276,0.169-0.436,0.187c-0.249-0.061-0.187-0.312-0.187-0.561
			c0.12-1.621,1.554-6.047,6.047-14.4c4.114-7.418,8.789-14.15,12.28-17.828C19.278,35.954,17.969,39.32,15.164,45.491z
			 M34.421,49.48L34.421,49.48c0.01,0.458-0.011,0.916-0.061,1.371c-0.436,5.174-9.413,14.275-13.465,14.275
			c-1.434,0-4.364-0.436-3.678-3.616c0.686-3.117,4.987-6.483,13.34-10.348C31.803,50.602,33.112,50.041,34.421,49.48z
			 M43.086,62.259L43.086,62.259c0.206,0.326,0.458,0.62,0.749,0.873c-0.67-0.2-1.204-0.71-1.434-1.371
			c-0.25-0.657-0.377-1.354-0.374-2.057c-0.003-0.927,0.123-1.85,0.374-2.743c0.568-1.75,1.387-3.409,2.431-4.925
			c1.064-1.49,2.322-2.832,3.74-3.99c1.115-0.937,2.327-1.752,3.615-2.431c0.062,0,0.062-0.062,0.125-0.062
			c0.561-0.249,0.873-0.374,0.873-0.374c-1.566,0.874-3.03,1.919-4.364,3.117c-1.313,1.21-2.503,2.546-3.553,3.99
			c-0.516,0.732-0.974,1.503-1.371,2.306c-0.187,0.374-0.374,0.81-0.561,1.184c-0.187,0.436-0.249,0.873-0.436,1.247
			c-0.292,0.844-0.46,1.726-0.5,2.618C42.425,60.555,42.66,61.451,43.086,62.259z M52.249,55.647l0.001,0.004l-2.244,2.244
			c-1.808,1.621-3.927,3.241-4.613,3.117c-1.683-0.374,0.374-4.239,2.68-7.605c2.93-4.3,6.171-7.169,7.48-7.356
			c0.19,0.026,0.365,0.113,0.5,0.249c0.315,0.844,0.315,1.774,0,2.618c-1.247,1.309-2.493,4.862-3.428,6.171
			C52.545,55.302,52.416,55.493,52.249,55.647z M54.307,58.768c-0.187,0.561-0.374,1.184-0.5,1.745
			c-0.125,0.623-0.249,0.935-0.312,1.5c-0.062,0.413-0.062,0.834,0,1.247c0.036,0.296,0.099,0.588,0.187,0.873
			c-0.229-0.241-0.381-0.545-0.436-0.873c-0.072-0.307-0.114-0.62-0.125-0.935c0-0.628,0.063-1.254,0.187-1.87
			c0.13-0.612,0.297-1.216,0.5-1.808l0.561-1.808l0.748-1.745l0.374-0.873l0.436-0.81c0.436-0.935,0.935-1.808,1.434-2.743
			c0.094-0.193,0.198-0.38,0.312-0.561c-0.5,1.122-0.935,2.244-1.371,3.428c-0.5,1.122-0.873,2.306-1.309,3.428L54.307,58.768z
			 M69.891,40.628c-0.873,0-1.808,0-2.805-0.062c-14.15-1-14.15-5.049-14.213-6.358c-0.045-1.199,0.432-2.359,1.309-3.179
			c1.442-1.102,3.239-1.636,5.049-1.5c0.541-0.009,1.082,0.011,1.621,0.062c2.743,0.249,7.231,1.932,12.093,3.865
			C71.948,35.517,70.95,37.886,69.891,40.628z M84.54,26.665L84.54,26.665c0.608-0.106,1.231,0.079,1.683,0.5
			c0.378,0.475,0.557,1.078,0.5,1.683c-0.265,2.363-1.293,4.575-2.93,6.3l-0.374,0.374c-1.808-0.623-3.616-1.371-5.361-2.057
			C80.361,29.159,82.545,27.164,84.54,26.665z M75.376,39.008h0.001c0.561-1.434,1.184-2.743,1.745-3.865
			c1.558,0.623,3.117,1.184,4.675,1.808c-2.017,1.511-4.334,2.574-6.795,3.117C75.189,39.569,75.314,39.195,75.376,39.008z
			 M70.389,53.407l0.001,0.001c0.374-0.436,0.81-0.935,1.247-1.371c1.334-1.491,2.771-2.886,4.3-4.177
			c0.836-0.851,1.832-1.529,2.93-1.995c0.623,0.062,1.06,3.3-0.187,7.418c-3.584,1.464-6.992,3.325-10.161,5.548
			C69.08,57.147,69.704,55.277,70.389,53.407z M69.58,64.067c-0.623,0-2.305-0.312-2.181-1.5c0.125-0.748,1.371-2.992,10.41-7.106
			c-0.241,0.585-0.533,1.149-0.873,1.683C75.314,60.077,72.884,64.067,69.58,64.067z M81.984,49.48l-0.004,0
			c-0.075,1.031-0.243,2.053-0.5,3.054c-0.249,1-0.5,1.995-0.81,2.93c-0.641,1.957-1.61,3.791-2.867,5.423
			c-0.631,0.818-1.364,1.551-2.182,2.182l-0.623,0.5c-0.187,0.125-0.436,0.312-0.623,0.436c-0.583,0.386-1.211,0.7-1.87,0.935
			c0,0,0.873-0.561,1.5-0.935c1.286-0.94,2.439-2.05,3.428-3.3c1.212-1.582,2.159-3.351,2.805-5.236
			c0.328-0.938,0.598-1.896,0.81-2.867c0.247-0.964,0.434-1.943,0.561-2.93c0.158-0.978,0.094-1.98-0.187-2.93
			c-0.243-0.988-0.97-1.786-1.932-2.119c0.085,0.01,0.169,0.031,0.249,0.062h0.062c0.062,0,0.187,0.062,0.249,0.062
			c0.75,0.375,1.33,1.021,1.621,1.808C81.966,47.5,82.072,48.494,81.984,49.48z M89.461,62.633c0.127,0.326,0.318,0.622,0.561,0.873
			c0.312,0.249,0.436,0.249,0.436,0.249c-0.193-0.004-0.384-0.046-0.561-0.125c-0.359-0.194-0.643-0.501-0.81-0.873
			c-0.161-0.356-0.267-0.734-0.312-1.122v-0.561c0-0.187,0.062-0.374,0.062-0.561c0.032-0.378,0.094-0.754,0.187-1.122
			c0.342-1.44,0.779-2.857,1.309-4.239c0.561-1.371,1.06-2.743,1.621-4.114c0.561-1.247,1.122-2.493,1.683-3.678
			c0.069-0.091,0.112-0.199,0.125-0.312c-0.5,1.309-1,2.743-1.5,4.114l-1.5,4.114l-0.686,2.057
			c-0.245,0.695-0.453,1.402-0.623,2.119c-0.225,0.683-0.331,1.4-0.312,2.119C89.21,61.936,89.318,62.292,89.461,62.633z
			 M102.115,57.397c-0.245,0.695-0.453,1.402-0.623,2.119c-0.225,0.683-0.331,1.4-0.312,2.119c-0.005,0.342,0.059,0.682,0.187,1
			c0.073,0.253,0.2,0.488,0.374,0.686c0.133,0.138,0.258,0.283,0.374,0.436c-0.47-0.175-0.865-0.505-1.122-0.935
			c-0.161-0.356-0.266-0.734-0.312-1.122v-0.561c0-0.187,0.062-0.374,0.062-0.561c0.032-0.378,0.094-0.754,0.187-1.122
			c0.342-1.44,0.779-2.857,1.309-4.239c0.561-1.371,1.06-2.743,1.621-4.114c0.5-1.184,1.06-2.431,1.683-3.616
			c0.072-0.141,0.134-0.287,0.187-0.436c-0.5,1.309-1,2.743-1.5,4.114l-1.5,4.114L102.115,57.397z M120.009,57.958h-0.003
			c-0.173,1.15-0.622,2.241-1.309,3.179c-0.679,0.958-1.549,1.765-2.556,2.369c-1.014,0.6-2.193,0.862-3.366,0.748
			c-0.368,0.005-0.733-0.08-1.06-0.249c0.642,0.069,1.29,0.069,1.932,0c1.019-0.154,1.983-0.562,2.805-1.184
			c0.884-0.655,1.626-1.482,2.182-2.431c0.607-0.903,0.933-1.966,0.935-3.054c-0.093-1.11-0.345-2.202-0.748-3.241l-1.06-3.179
			c-0.374-1.048-0.625-2.135-0.748-3.241c0.006-1.117,0.355-2.205,1-3.117c0.387-0.502,0.826-0.961,1.309-1.371L119.509,43
			c0.212-0.171,0.442-0.317,0.686-0.436c0.187-0.125,0.249-0.125,0.249-0.125c-0.984,0.589-1.816,1.401-2.431,2.369
			c-0.646,0.949-0.913,2.105-0.748,3.241c0.095,0.567,0.22,1.129,0.374,1.683c0.187,0.561,0.374,1.06,0.561,1.621
			c0.374,1.06,0.81,2.119,1.184,3.241C119.871,55.645,120.086,56.802,120.009,57.958z M146.377,26.665h-0.003
			c0.617-0.191,1.29-0.023,1.745,0.436c0.127,0.173,0.232,0.362,0.312,0.561c0.249,1.122-0.374,2.805-1.808,4.8
			c-1.558-0.841-3.211-1.489-4.925-1.932C143.385,28.224,144.943,26.977,146.377,26.665z M137.274,39.008
			c0.907-2.365,2.034-4.64,3.366-6.795c1.697,0.343,3.334,0.931,4.862,1.745c-0.187,0.249-0.436,0.5-0.623,0.748
			c-1.06,1.184-5.922,5.86-9.6,9.475c0.563-1.682,1.249-3.428,1.997-5.173H137.274z M140.765,57.085l-0.436,1.184
			c-0.133,0.408-0.237,0.825-0.312,1.247c-0.216,0.815-0.341,1.651-0.374,2.493c-0.082,0.82,0.305,1.615,1,2.057
			c-0.474,0.003-0.909-0.263-1.122-0.686c-0.198-0.408-0.305-0.855-0.312-1.309v-0.686l0.062-0.623
			c0.032-0.44,0.094-0.878,0.187-1.309l0.312-1.247c0.117-0.425,0.263-0.841,0.436-1.247l0.873-2.431l1.995-4.738
			c0.173-0.384,0.318-0.78,0.436-1.184c0.162-0.404,0.287-0.821,0.374-1.247c0.1-0.408,0.142-0.828,0.125-1.247
			c-0.004-0.221-0.069-0.437-0.187-0.623c-0.023-0.052-0.066-0.088-0.106-0.126c0.035,0.023,0.074,0.038,0.106,0.064
			c0.134,0.16,0.22,0.354,0.249,0.561c0.062,0.434,0.062,0.875,0,1.309c-0.067,0.424-0.171,0.841-0.312,1.247
			c-0.096,0.424-0.221,0.84-0.374,1.247c-0.623,1.621-1.247,3.179-1.87,4.8L140.765,57.085z M143.448,45.24h0.062
			c0.025,0.011,0.045,0.029,0.069,0.041C143.536,45.265,143.496,45.241,143.448,45.24z M156.351,42h-0.002
			c0,0.062-2.867,5.486-6.3,10.784c-0.873,1.309-6.234,8.789-7.979,7.48c-0.623-0.5,2.68-7.293,3.428-9.226
			c0.748-1.933,1.745-3.99,0.81-5.548c-0.784-1.112-2.067-1.766-3.428-1.745c-1.371-0.125-3.74,0.935-10.161,9.974l-1.683,2.431
			c0.748-2.369,1.683-5.112,2.743-8.041c3.428-3.3,10.971-10.6,12.343-12.156c0.312-0.312,0.623-0.686,0.935-1.06
			c0.249,0.125,0.436,0.249,0.686,0.374c3.067,1.997,6.536,3.295,10.161,3.8C157.099,40.628,156.413,41.813,156.351,42z
			 M172.309,26.603l-0.002-0.003c0.465-0.044,0.934,0.021,1.371,0.187c0.766,0.385,1.213,1.205,1.122,2.057
			c-0.003,2.045-0.835,4.002-2.306,5.423c-1.932,1.808-4.925,2.867-8.976,3.054C166.761,30.094,169.753,27.039,172.309,26.603z
			 M172.931,62.444c0.125,0.125,0.187,0.312,0.312,0.436c-0.277-0.147-0.513-0.361-0.686-0.623
			c-0.457-0.658-0.697-1.443-0.686-2.244c-0.003-0.927,0.123-1.85,0.374-2.743c0.568-1.75,1.387-3.409,2.431-4.925
			c1.064-1.49,2.322-2.832,3.74-3.99c0.686-0.561,1.434-1.122,2.182-1.621c0.456-0.307,0.936-0.577,1.434-0.81
			c0.062,0,0.062-0.062,0.125-0.062c0.561-0.249,0.873-0.374,0.873-0.374c-1.566,0.874-3.03,1.919-4.364,3.117
			c-1.298,1.224-2.487,2.559-3.553,3.99c-0.516,0.732-0.974,1.503-1.371,2.306c-0.187,0.374-0.374,0.81-0.561,1.184
			c-0.187,0.436-0.249,0.873-0.436,1.247c-0.292,0.844-0.46,1.726-0.5,2.618C172.28,60.822,172.515,61.675,172.931,62.444z
			 M181.971,55.647l-0.002,0.001l-2.244,2.244c-1.808,1.621-3.927,3.241-4.613,3.117c-1.683-0.374,0.374-4.239,2.68-7.605
			c2.93-4.3,6.171-7.169,7.48-7.356c0.19,0.026,0.365,0.113,0.5,0.249c0.315,0.844,0.315,1.774,0,2.618
			c-1.247,1.309-2.493,4.862-3.428,6.171C182.265,55.3,182.137,55.492,181.971,55.647z M198.677,56.587l-0.002-0.004
			c-0.347,2.017-1.134,3.932-2.306,5.61c-1.132,1.704-2.569,3.183-4.239,4.364c-0.422,0.292-0.859,0.563-1.309,0.81
			c-0.438,0.266-0.896,0.495-1.371,0.686c-0.744,0.33-1.556,0.479-2.369,0.436c-0.088,0.009-0.176-0.013-0.249-0.062h-0.062
			c-0.055,0-0.111-0.044-0.166-0.055c0.47,0.07,0.948,0.072,1.417-0.007c0.478-0.101,0.94-0.269,1.371-0.5
			c0.449-0.226,0.886-0.475,1.309-0.748c0.433-0.234,0.832-0.528,1.184-0.873c1.567-1.213,2.934-2.664,4.052-4.3
			c1.139-1.597,1.906-3.429,2.244-5.361c0.166-0.972,0.145-1.966-0.062-2.93c-0.129-0.512-0.296-1.013-0.5-1.5
			c-0.203-0.429-0.432-0.846-0.686-1.247c0.832,0.654,1.407,1.581,1.621,2.618C198.815,54.525,198.857,55.569,198.677,56.587z"/>
		<polygon fill="#020202" points="172.932,62.447 172.931,62.444 172.93,62.443 		"/>
	</g>
	<path id="Path_84" fill="#800000018000000180000001" d="M105.796,47.049c0,0-0.062,0.125-0.187,0.436
		c-0.561,1.184-1.122,2.369-1.683,3.616c-0.623,1.371-1.122,2.743-1.621,4.114c-0.53,1.382-0.967,2.798-1.309,4.239
		c-0.093,0.368-0.155,0.744-0.187,1.122c0,0.187-0.062,0.374-0.062,0.561v0.561c0.045,0.388,0.151,0.766,0.312,1.122
		c0.146,0.385,0.437,0.699,0.81,0.873l0,0l0.125-0.312c-0.285-0.173-0.504-0.436-0.623-0.748c-0.122-0.319-0.186-0.658-0.187-1
		c-0.019-0.719,0.087-1.436,0.312-2.119c0.187-0.686,0.374-1.371,0.623-2.119l0.686-2.057l1.5-4.114
		C104.799,49.854,105.298,48.42,105.796,47.049z"/>
	<path id="Path_85" fill="#800000018000000180000001" d="M187.021,50.54c-0.114,0.181-0.219,0.368-0.312,0.561v0.062
		c-0.5,0.935-1,1.932-1.434,2.93l-0.436,0.873l-0.374,0.935l-0.748,1.87l-0.561,1.87c-0.203,0.634-0.37,1.279-0.5,1.932
		c-0.124,0.658-0.187,1.326-0.187,1.995c0.011,0.336,0.053,0.671,0.125,1c0.054,0.347,0.205,0.671,0.436,0.935l0,0
		c-0.151-0.611-0.214-1.241-0.187-1.87c0.062-0.623,0.187-1.434,0.312-2.057s0.312-1.247,0.5-1.87l0.561-1.87
		c0.436-1.247,0.873-2.493,1.309-3.678C186.086,52.971,186.584,51.724,187.021,50.54z"/>
	<path id="Path_87" fill="#800000018000000180000001" d="M118.326,51.288c-0.187-0.561-0.374-1.06-0.561-1.621
		c-0.154-0.554-0.279-1.116-0.374-1.683c-0.165-1.136,0.102-2.292,0.748-3.241c0.632-0.954,1.461-1.762,2.431-2.369l-0.249,0.125
		c-0.187,0.125-0.436,0.249-0.686,0.436l-0.187,0.187c-0.512,0.378-0.955,0.842-1.309,1.371c-0.671,0.899-1.023,1.996-1,3.117
		c0.093,1.111,0.345,2.202,0.748,3.241l1.06,3.179c0.374,1.048,0.625,2.135,0.748,3.241c-0.003,1.088-0.328,2.151-0.935,3.054
		c-0.573,0.937-1.312,1.761-2.182,2.431c-0.828,0.612-1.789,1.018-2.805,1.184c-0.642,0.069-1.29,0.069-1.932,0
		c0.332,0.155,0.693,0.24,1.06,0.249c1.171,0.083,2.34-0.177,3.366-0.748c0.995-0.62,1.863-1.423,2.558-2.367
		c0.712-0.924,1.164-2.021,1.309-3.179c0.063-1.17-0.128-2.339-0.561-3.428C119.136,53.474,118.762,52.41,118.326,51.288z"/>
	<path id="Path_89" fill="#800000018000000180000001" d="M143.884,48.604c0.133-0.408,0.237-0.825,0.312-1.247
		c0.062-0.434,0.062-0.875,0-1.309c-0.045-0.202-0.129-0.393-0.249-0.561c-0.061-0.116-0.183-0.187-0.314-0.183h-0.062
		c0.138,0.061,0.265,0.145,0.374,0.249c0.127,0.183,0.192,0.401,0.187,0.623c0.055,0.42,0.012,0.846-0.125,1.247
		c-0.096,0.424-0.221,0.84-0.374,1.247c-0.118,0.404-0.263,0.8-0.436,1.184l-1.995,4.738l-0.873,2.431
		c-0.125,0.436-0.312,0.81-0.436,1.247l-0.312,1.247c-0.093,0.431-0.155,0.869-0.187,1.309l-0.062,0.623v0.686
		c0.007,0.454,0.114,0.901,0.312,1.309c0.213,0.423,0.648,0.689,1.122,0.686c-0.695-0.442-1.082-1.237-1-2.057
		c0.002-0.845,0.128-1.685,0.374-2.493c0.125-0.436,0.187-0.81,0.312-1.247l0.436-1.184l0.873-2.431
		c0.623-1.621,1.247-3.179,1.87-4.8C143.655,49.471,143.74,49.028,143.884,48.604z"/>
	<path id="Path_93" fill="#800000018000000180000001" d="M79.49,44.493L79.49,44.493z"/>
	<path id="Path_94" fill="#800000018000000180000001" d="M23.637,47.485l0.374,0.062l0,0l0.062,0.125l0.125-0.062h0.062
		c-0.062-0.125-0.125-0.187-0.187-0.312L23.637,47.485z"/>
	<g id="Group_78" transform="translate(119 84)">
		<path id="Path_95" fill="#020202" d="M-78.716-80.648c0,0.249-0.249,0.374-0.5,0.374c-0.217,0.018-0.42-0.109-0.5-0.312
			c-0.039-0.811-0.018-1.623,0.062-2.431c0-0.187,0.125-0.561,0.748-0.561c1.621,0.125,7.231,0.062,8.789,0
			c0.343-0.031,0.648,0.218,0.686,0.561c0.062,0.5,0.062,1.87,0.062,2.369c0,0.249-0.312,0.374-0.561,0.374
			s-0.561-0.125-0.561-0.436c0.043-0.993-0.727-1.833-1.72-1.877c-0.091-0.004-0.182-0.001-0.272,0.009
			c-0.748,0-0.81,0.312-0.873,0.81c-0.062,1.558-0.062,5.236,0.125,7.48c0.062,0.436,0.249,0.748,1.06,0.623
			c0.312-0.062,0.5,0.249,0.5,0.5c0.009,0.29-0.211,0.537-0.5,0.561c-1.184-0.062-3.865-0.062-4.738,0
			c-0.288,0.022-0.539-0.194-0.561-0.482c-0.002-0.026-0.002-0.053,0-0.079c0-0.312,0.187-0.561,0.436-0.5
			c0.561,0.062,1.122-0.062,1.184-0.623c0.125-2.244,0.125-5.61,0.125-7.418c0-0.686-0.125-0.873-0.873-0.873
			c-1.034-0.128-1.977,0.607-2.105,1.641C-78.714-80.842-78.719-80.745-78.716-80.648z"/>
		<path id="Path_96" fill="#020202" d="M-59.08-74.29c0.062-0.872,0.062-1.746,0-2.618c-0.062-0.436-0.249-0.5-0.561-0.561
			c-1.392-0.07-2.788-0.05-4.177,0.062c-0.344,0.001-0.622,0.279-0.623,0.623c-0.048,0.915-0.027,1.831,0.062,2.743
			c0.062,0.436,0.125,0.561,0.873,0.5c0.312-0.062,0.5,0.249,0.5,0.5c0.009,0.29-0.211,0.537-0.5,0.561
			c-1.247-0.062-3.179-0.062-4.364,0c-0.28,0.028-0.53-0.176-0.559-0.456c-0.001-0.014-0.002-0.029-0.003-0.044
			c-0.004-0.272,0.212-0.496,0.484-0.5c0.005,0,0.011,0,0.016,0c0.436,0.062,1,0.062,1.06-0.623
			c0.062-3.553,0.062-7.543-0.062-7.979c-0.062-0.312-0.249-0.5-0.748-0.436c-0.249,0.062-0.436-0.249-0.436-0.5
			c-0.032-0.242,0.138-0.464,0.38-0.496c0.019-0.002,0.037-0.004,0.056-0.004c1.558,0.062,2.992,0.062,3.99,0
			c0.28-0.028,0.53,0.176,0.559,0.456c0.001,0.014,0.002,0.029,0.003,0.044c0,0.312-0.187,0.623-0.5,0.561
			c-0.623-0.062-0.748,0-0.748,0.561c0,0-0.062,1.995,0,2.68c0,0.374,0.062,0.623,0.5,0.686c0.5,0.062,3.491,0,4.364-0.062
			c0.312-0.062,0.561-0.312,0.561-0.5c0-1.184,0-2.556-0.062-2.93c-0.062-0.374-0.312-0.561-0.81-0.5
			c-0.255-0.024-0.447-0.244-0.436-0.5c0-0.249,0.187-0.561,0.5-0.5c1.287,0.095,2.578,0.095,3.865,0c0.436,0,0.561,0.249,0.561,0.5
			c0,0.251-0.187,0.561-0.374,0.561c-0.623-0.062-0.686,0.062-0.748,0.374c-0.062,0.249-0.125,6.919,0,8.041
			c0.062,0.436,0.187,0.561,0.873,0.5c0.261-0.046,0.509,0.128,0.555,0.389c0.006,0.037,0.009,0.074,0.006,0.111
			c0.029,0.28-0.175,0.53-0.454,0.558c-0.015,0.002-0.03,0.002-0.046,0.003c-1.06-0.062-3.678,0-4.364,0
			c-0.251,0.025-0.475-0.158-0.5-0.41c-0.003-0.03-0.003-0.06,0-0.09c0-0.249,0.187-0.561,0.5-0.5
			C-59.641-73.48-59.142-73.48-59.08-74.29z"/>
		<path id="Path_97" fill="#020202" d="M-48.857-73.542c0.292,0.013,0.585-0.008,0.873-0.062c0.968-0.069,1.765-0.789,1.932-1.745
			c0.043-0.279,0.278-0.489,0.561-0.5c0.363-0.001,0.658,0.292,0.66,0.654c0,0.074-0.012,0.148-0.037,0.219
			c-0.226,0.713-0.393,1.442-0.5,2.182c-0.068,0.212-0.279,0.345-0.5,0.312c-2.119,0-2.493-0.062-5.8-0.062
			c-0.561,0-1.371,0.062-1.683,0.062c-0.261,0.046-0.509-0.128-0.555-0.389c-0.006-0.037-0.009-0.074-0.006-0.111
			c0-0.312,0.187-0.623,0.5-0.561c0.412,0.095,0.823-0.163,0.918-0.575c0.018-0.077,0.023-0.156,0.017-0.235
			c0.062-1.371,0.125-6.234,0-7.854c0-0.312-0.374-0.374-0.873-0.312c-0.312,0.062-0.5-0.249-0.5-0.561
			c-0.004-0.272,0.212-0.496,0.484-0.5c0.005,0,0.011,0,0.016,0c1.371,0.062,5.548,0.125,7.231,0
			c0.623-0.062,0.873,0.187,0.81,0.561c-0.062,0.436-0.125,1.434-0.187,1.683c-0.053,0.299-0.319,0.513-0.623,0.5
			c-0.249,0-0.5-0.125-0.5-0.374c0.062-1.06-0.561-1.309-2.618-1.309c-0.686,0-0.81,0.374-0.81,0.748
			c-0.062,0.872-0.062,1.746,0,2.618c0,0.249,0.062,0.5,0.436,0.5h1.309c0.5-0.062,0.686-0.187,0.686-0.873
			c0.003-0.281,0.234-0.506,0.515-0.503c0.015,0,0.031,0.001,0.046,0.003c0.288-0.022,0.539,0.194,0.561,0.482
			c0.002,0.026,0.002,0.053,0,0.079c-0.063,0.872-0.063,1.746,0,2.618c0.044,0.297-0.16,0.573-0.456,0.618
			c-0.035,0.005-0.07,0.007-0.105,0.005c-0.28,0.029-0.53-0.175-0.558-0.454c-0.002-0.015-0.002-0.03-0.003-0.046
			c0.091-0.382-0.144-0.766-0.526-0.857c-0.032-0.008-0.064-0.013-0.097-0.016c-0.434-0.062-0.875-0.062-1.309,0
			c-0.249,0.062-0.374,0.187-0.374,0.561c-0.041,0.873-0.02,1.748,0.062,2.618C-49.916-73.853-49.667-73.542-48.857-73.542z"/>
		<path id="Path_98" fill="#020202" d="M-38.634-73.48c0.006-0.648,0.069-1.295,0.187-1.932c0.062-0.249,0.436-0.374,0.686-0.374
			s0.561,0.125,0.561,0.374c-0.053,1.048,0.754,1.94,1.802,1.993c0.023,0.001,0.045,0.002,0.068,0.002
			c0.835,0.091,1.586-0.513,1.676-1.348c0.003-0.029,0.005-0.057,0.007-0.086c0-2.057-4.862-2.618-4.862-5.86
			c0-1.5,1.122-2.992,3.8-2.992c1.075-0.064,2.149,0.151,3.117,0.623c0.179,0.713,0.242,1.449,0.187,2.182
			c0,0.374-0.436,0.623-0.748,0.623c-0.242,0.032-0.464-0.138-0.496-0.38c-0.002-0.019-0.004-0.037-0.004-0.056
			c0.039-0.993-0.734-1.831-1.727-1.87c-0.048-0.002-0.095-0.002-0.143,0c-0.794-0.098-1.518,0.466-1.616,1.26
			c-0.002,0.016-0.004,0.032-0.005,0.049c0,2.306,5.112,2.68,5.112,5.8c0,1.683-1.309,3.3-4.052,3.3
			C-36.951-72.358-38.572-72.919-38.634-73.48z"/>
		<path id="Path_99" fill="#020202" d="M-28.971-80.648c0,0.249-0.249,0.374-0.5,0.374c-0.217,0.018-0.42-0.109-0.5-0.312
			c-0.039-0.811-0.018-1.623,0.062-2.431c0-0.187,0.125-0.561,0.748-0.561c1.621,0.125,7.231,0.062,8.789,0
			c0.343-0.031,0.648,0.218,0.686,0.561c0.062,0.5,0.062,1.87,0.062,2.369c0,0.249-0.312,0.374-0.561,0.374
			s-0.561-0.125-0.561-0.436c0.043-0.993-0.727-1.833-1.72-1.877c-0.091-0.004-0.182-0.001-0.272,0.009
			c-0.748,0-0.81,0.312-0.873,0.81c-0.062,1.558-0.062,5.236,0.125,7.48c0.062,0.436,0.249,0.748,1.06,0.623
			c0.312-0.062,0.5,0.249,0.5,0.5c0.009,0.29-0.211,0.537-0.5,0.561c-1.184-0.062-3.865-0.062-4.738,0
			c-0.288,0.022-0.539-0.194-0.561-0.482c-0.002-0.026-0.002-0.053,0-0.079c0-0.312,0.187-0.561,0.436-0.5
			c0.561,0.062,1.122-0.062,1.184-0.623c0.125-2.244,0.125-5.61,0.125-7.418c0-0.686-0.125-0.873-0.873-0.873
			c-1.034-0.128-1.977,0.607-2.105,1.641C-28.969-80.842-28.974-80.745-28.971-80.648z"/>
		<path id="Path_100" fill="#020202" d="M-12.64-83.765c3.74,0,6.047,2.119,6.047,5.61c0,3.366-2.369,5.8-6.047,5.8
			c-3.74,0-5.984-2.306-5.984-5.8C-18.562-81.459-16.193-83.765-12.64-83.765z M-12.204-73.542c1.87,0,2.992-1.683,2.992-3.99
			c0-3.179-1.745-5.049-3.74-5.049c-1.87,0-2.992,1.434-2.992,3.8C-15.944-75.537-14.198-73.542-12.204-73.542L-12.204-73.542z"/>
		<path id="Path_101" fill="#020202" d="M5.252-73.478c0.187,0,0.312,0.187,0.312,0.436c0.017,0.233-0.105,0.453-0.312,0.561
			c-0.553,0.123-1.117,0.186-1.683,0.187c-1.745,0-3.241-3.179-3.927-4.114c-0.119-0.242-0.354-0.407-0.623-0.436h-0.187
			c-0.187,0-0.312,0.062-0.312,0.374c0,0.5,0.062,1.745,0.062,2.119c0.062,0.81,0.436,0.81,1.122,0.748
			c0.31,0.037,0.531,0.318,0.494,0.628c-0.031,0.259-0.235,0.463-0.494,0.494c-1.184-0.062-3.179-0.062-4.551,0
			c-0.28,0.028-0.53-0.176-0.559-0.456c-0.001-0.015-0.002-0.029-0.003-0.044c0-0.312,0.187-0.623,0.561-0.561
			s0.873,0.062,0.935-0.686c0.125-1.995,0.062-6.67,0-7.605c-0.062-0.623-0.249-0.561-0.873-0.5c-0.312,0.062-0.5-0.249-0.5-0.561
			c0-0.249,0.125-0.561,0.436-0.561c1.373-0.123,3.68-0.123,4.179-0.123c3.054,0,4.675,0.873,4.675,2.93
			c-0.086,1.299-0.875,2.447-2.057,2.992c-0.312,0.125-0.312,0.374-0.125,0.623C2.509-76.285,4.129-73.478,5.252-73.478z
			 M-0.795-77.966c1.289-0.047,2.295-1.13,2.248-2.419c-0.001-0.025-0.002-0.049-0.004-0.074c0-1.558-0.935-2.119-2.369-2.119
			c-0.623,0-0.623,0.312-0.623,0.5c-0.042,1.185-0.022,2.371,0.062,3.553c0.062,0.436,0.062,0.623,0.374,0.623
			c0.095-0.052,0.204-0.075,0.312-0.066V-77.966z"/>
		<path id="Path_102" fill="#020202" d="M12.046-74.165c0.062,0.5,0.312,0.686,1.122,0.623c0.374-0.062,0.5,0.249,0.5,0.5
			c0.029,0.28-0.175,0.53-0.454,0.558c-0.015,0.002-0.03,0.002-0.046,0.003c-1.247-0.062-3.428-0.062-4.8,0
			c-0.279,0.06-0.554-0.117-0.614-0.396c-0.012-0.054-0.015-0.11-0.009-0.165c0-0.249,0.187-0.561,0.5-0.5
			c0.436,0,1.122,0.062,1.184-0.5c0.108-1.121,0.087-2.25-0.062-3.366c-0.812-1.516-1.729-2.975-2.743-4.364
			c-0.179-0.433-0.592-0.724-1.06-0.748c-0.281-0.003-0.506-0.234-0.503-0.515c0-0.015,0.001-0.031,0.003-0.046
			c-0.004-0.272,0.212-0.496,0.484-0.5c0.005,0,0.011,0,0.016,0c1.411,0.094,2.828,0.094,4.239,0c0.436,0,0.623,0.249,0.623,0.5
			c0,0.251-0.187,0.561-0.436,0.561c-0.686-0.062-0.873,0.312-0.623,0.748c0.456,0.797,0.957,1.567,1.5,2.306
			c0.092,0.172,0.306,0.237,0.478,0.145c0.062-0.033,0.112-0.084,0.145-0.145c0.374-0.5,1.122-1.558,1.558-2.306
			c0.249-0.5,0.125-0.935-0.686-0.81c-0.312,0.062-0.5-0.249-0.5-0.561c-0.032-0.242,0.138-0.464,0.38-0.496
			c0.019-0.002,0.037-0.004,0.056-0.004c1.245,0.094,2.495,0.094,3.74,0c0.374,0,0.561,0.187,0.561,0.5
			c0,0.249-0.187,0.561-0.436,0.561c-0.566,0.016-1.084,0.322-1.371,0.81c-1.003,1.24-1.879,2.577-2.618,3.99
			C11.933-76.591,11.89-75.369,12.046-74.165z"/>
		<path id="Path_103" fill="#020202" d="M27.567-83.765c3.74,0,6.047,2.119,6.047,5.61c0,3.366-2.369,5.8-6.047,5.8
			c-3.74,0-5.984-2.306-5.984-5.8C21.583-81.459,24.014-83.765,27.567-83.765z M28.003-73.542c1.87,0,2.992-1.683,2.992-3.99
			c0-3.179-1.745-5.049-3.74-5.049c-1.87,0-2.992,1.434-2.992,3.8C24.263-75.537,25.947-73.542,28.003-73.542L28.003-73.542z"/>
		<path id="Path_104" fill="#020202" d="M35.361-72.482c-0.272,0.004-0.496-0.212-0.5-0.484c0-0.005,0-0.011,0-0.016
			c-0.009-0.29,0.211-0.537,0.5-0.561c0.873,0.062,0.935-0.374,1-0.81c0.125-2.119,0.062-5.049,0-7.792
			c0-0.436-0.312-0.5-0.873-0.436c-0.312,0.062-0.5-0.249-0.5-0.5s0.187-0.561,0.5-0.5c1.371,0.125,5.735,0.062,7.169,0
			c0.748-0.062,0.748,0.249,0.748,0.561c-0.062,0.374-0.125,1.371-0.187,1.87c-0.062,0.561-1.184,0.561-1.122,0
			c0.062-1.122-0.5-1.371-2.431-1.371c-0.686,0-0.81,0.312-0.873,0.748c0,0.5-0.062,2.68-0.062,3.054
			c-0.025,0.216,0.131,0.411,0.347,0.436c0.03,0.003,0.059,0.003,0.089,0h1c0.873-0.062,1-0.249,1-0.935
			c0-0.249,0.249-0.374,0.561-0.374c0.274-0.034,0.524,0.161,0.557,0.435c0.003,0.021,0.004,0.043,0.004,0.065
			c-0.063,0.872-0.063,1.746,0,2.618c0.062,0.436-0.249,0.561-0.561,0.561c-0.249,0-0.561-0.125-0.561-0.374c0-0.623-0.187-1-0.81-1
			h-1.122c-0.256-0.011-0.476,0.181-0.5,0.436c-0.062,0.748,0.062,2.182,0.062,2.493c0.062,0.561,0.312,0.748,1.5,0.686
			c0.374-0.062,0.561,0.249,0.561,0.561s-0.187,0.623-0.561,0.561C39.474-72.544,36.295-72.544,35.361-72.482z"/>
	</g>
</g>
</svg>
