<svg xmlns="http://www.w3.org/2000/svg" xmlns:xlink="http://www.w3.org/1999/xlink" viewBox="0 0 256 222">
<style>
/* <![CDATA[ */

#a1, #a2, #a3, #a4, #a5, #a6, #a7, #a8 {
visibility: hidden;
animation-duration: 1.6s;
animation-iteration-count: infinite;
animation-timing-function: steps(1);
}

/* ]]> */
</style>
<defs>
<clipPath id="clp">
  <rect width="256" height="222"/>
</clipPath>

<g id="f1">
  <linearGradient id="lg1" x1="32.971" x2="32.971" y1="192.825" y2="110.041" gradientUnits="userSpaceOnUse">
    <stop offset="0" stop-color="#375c3c"/>
    <stop offset=".039" stop-color="#3c6742"/>
    <stop offset=".103" stop-color="#417448"/>
    <stop offset=".165" stop-color="#43784a"/>
    <stop offset=".433" stop-color="#489152"/>
    <stop offset=".535" stop-color="#4a9c56"/>
    <stop offset="1" stop-color="#5fa25e"/>
  </linearGradient>
  <path fill="url(#lg1)" d="M34.4,192.8c0,0,6.8-8.8,9.1-23.8s2.2-23-4.9-34.4s-8.5-16.9-7.9-24.6c-0.2-0.3-9.1,16.7-9.6,25.5 c-0.5,8.8,0.9,13.9,8.4,28.9C37.4,178.3,34.4,192.8,34.4,192.8z"/>
  <linearGradient id="lg2" x1="79.903" x2="79.903" y1="79.411" y2="17.095" gradientUnits="userSpaceOnUse">
    <stop offset="0" stop-color="#375c3c"/>
    <stop offset=".039" stop-color="#3c6742"/>
    <stop offset=".103" stop-color="#417448"/>
    <stop offset=".165" stop-color="#43784a"/>
    <stop offset=".433" stop-color="#489152"/>
    <stop offset=".535" stop-color="#4a9c56"/>
    <stop offset="1" stop-color="#5fa25e"/>
  </linearGradient>
  <path fill="url(#lg2)" d="M87.5,17.1c0,0-11.8,12.5-16.4,29.3s-0.3,23.8,1.4,26.6c1.7,2.7,5.9,6.5,5.9,6.5s2.3-1.9,7.9-9.3 s4.7-21.5,3-27.9S86,30.6,86.2,24.8C86.5,20.4,87.5,17.1,87.5,17.1z"/>
  <linearGradient id="lg3" x1="156.544" x2="156.544" y1="80.73" y2="8.735" gradientUnits="userSpaceOnUse">
    <stop offset="0" stop-color="#375c3c"/>
    <stop offset=".039" stop-color="#3c6742"/>
    <stop offset=".103" stop-color="#417448"/>
    <stop offset=".165" stop-color="#43784a"/>
    <stop offset=".433" stop-color="#489152"/>
    <stop offset=".535" stop-color="#4a9c56"/>
    <stop offset="1" stop-color="#5fa25e"/>
  </linearGradient>
  <path fill="url(#lg3)" d="M128.9,80.7c0,0,11-8.8,13.4-18.5s2.5-19.6,9.5-28.7s19-13.2,24.3-16.8s8-8,8-8s0.1,5.3-1.6,11.3 s-1.8,9.6-4.7,17.8C175,46,174.2,51.4,166,59s-23.9,14.4-27.5,16.8C135,78.1,128.9,80.7,128.9,80.7z"/>
  <linearGradient id="lg4" x1="-.659" x2="161.176" y1="191.268" y2="29.433" gradientUnits="userSpaceOnUse">
    <stop offset="0" stop-color="#375c3c"/>
    <stop offset=".039" stop-color="#3c6742"/>
    <stop offset=".103" stop-color="#417448"/>
    <stop offset=".165" stop-color="#43784a"/>
    <stop offset=".433" stop-color="#489152"/>
    <stop offset=".535" stop-color="#4a9c56"/>
    <stop offset="1" stop-color="#5fa25e"/>
  </linearGradient>
  <path fill="url(#lg4)" d="M146,67.3c-3.6,3.4-7.4,6.4-11.4,9.2c-4,2.8-8.3,5.2-12.6,7.6c-8.6,4.7-17.5,8.8-26.1,13.7 c-4.3,2.4-8.5,5-12.6,7.9c-2,1.4-4,3-5.9,4.5c-0.6,0.6-1.3,1.1-2,1.7c0.4-1,0.7-2,1.1-3c1.1-3.3,2-6.7,2.7-10.1 c0.7-3.4,1.1-6.9,1-10.4c0-1.8-0.1-3.5-0.3-5.2c-0.2-1.7-0.6-3.4-0.9-5.1c-1.3-6.7-0.4-13.5,0.5-20.3c0.5-3.4,0.9-6.8,1.3-10.2 c0.2-1.7,0.4-3.4,0.6-5.1c0.1-1.7,0.3-3.4,0.3-5.1c0,1.7-0.3,3.4-0.5,5.1c-0.2,1.7-0.5,3.4-0.7,5.1c-0.5,3.4-1.1,6.8-1.7,10.2 L78,62.6c-0.2,1.7-0.5,3.4-0.6,5.1c-0.3,3.4-0.3,7,0.2,10.4c0.2,1.7,0.5,3.4,0.7,5.1c0.1,1.7,0.2,3.3,0.1,5 c-0.1,3.4-0.6,6.7-1.4,10c-1.5,6.3-3.9,12.5-6.8,18.3c-1.3,1.3-2.5,2.6-3.7,3.9c-0.8,0.9-1.6,1.9-2.4,2.9c-0.4,0.5-0.8,1-1.2,1.5 l-1.1,1.5c-1.5,2-2.8,4.2-4,6.4l-1.7,3.3c-0.6,1.1-1,2.3-1.5,3.4c-2,4.6-3.5,9.4-4.7,14.2c-1.2,4.8-2.2,9.7-3.1,14.5 c-1.4,7.7-2.7,15.4-4.3,22.9c-0.1,0.2-0.1,0.3-0.2,0.5l0,0c-0.4,1.8-0.8,3.6-1.2,5.4c-1.1,4.6-2.4,9.2-3.8,13.7 c-0.1-0.2-0.1-0.4-0.2-0.6c-0.4-1.4-0.7-2.7-1.2-4.1c-0.4-1.3-0.8-2.6-1-3.8c-0.5-2.5-0.5-5.1-0.1-7.8c0.4-2.6,1.1-5.3,1.9-7.9 c0.8-2.6,1.5-5.4,1.9-8.2c0.4-2.8,0.5-5.6,0.4-8.4c-0.4-5.6-1.9-11-3.6-16.2c1.4,5.3,2.5,10.8,2.6,16.2c0,2.7-0.3,5.4-0.8,8.1 c-0.6,2.7-1.4,5.2-2.4,7.8c-0.9,2.6-1.8,5.3-2.4,8.1c-0.6,2.8-0.8,5.8-0.4,8.7c0.2,1.4,0.5,2.9,0.8,4.2c0.3,1.3,0.6,2.6,0.9,4 c0.4,2.2,0.8,4.4,1,6.6c0,0.1-0.1,0.2-0.1,0.2c-0.5,1.1-1,2.2-1.5,3.2c-0.3,0.5-0.5,1-0.8,1.5c-0.1,0.2-0.3,0.5-0.4,0.7 c-0.1,0.2-0.3,0.5-0.4,0.5l3.9,3.2c0.3-0.4,0.5-0.7,0.7-1c0.2-0.3,0.4-0.6,0.5-0.9c0.3-0.6,0.6-1.2,0.9-1.8 c0.6-1.2,1.1-2.3,1.6-3.5c1-2.4,1.8-4.7,2.5-7.1c1.5-4.8,2.7-9.6,3.7-14.5c0.7-3.1,1.3-6.3,1.8-9.4c0.4-1.2,0.8-2.4,1.2-3.6 c0.9-2.5,2-4.9,3.3-7.2c1.2-2.4,2.7-4.6,4.2-6.7c0.8-1,1.6-2.1,2.5-3.1l1.3-1.5l1.4-1.4c3.9-3.7,8.1-7.1,12.5-10.2 c2.2-1.6,4.4-3.2,6.3-5.3c1.9-2,3.4-4.2,4.9-6.5c-1.6,2.2-3.3,4.3-5.3,6.2c-2,1.9-4.2,3.3-6.5,4.8c-4.6,2.9-9.1,6-13.3,9.6 l-1.6,1.4l-1.5,1.5c-1,1-1.9,2-2.8,3.1c-1.7,2.1-3.3,4.3-4.8,6.6c0.4-2.4,0.7-4.8,1.1-7.2c0.8-4.8,1.6-9.6,2.7-14.4 c1.1-4.7,2.5-9.4,4.2-13.8c0.5-1.1,0.9-2.2,1.4-3.3l1.6-3.2c1.2-2.1,2.3-4.2,3.7-6.2l1-1.5c0.3-0.5,0.7-1,1.1-1.4 c0.8-0.9,1.5-1.9,2.2-2.8c1.2-1.3,4.5-4.5,4.7-5c0.1-0.1,0.2-0.2,0.3-0.3c1.7-1.7,3.5-3.3,5.3-5c1.9-1.5,3.7-3.1,5.7-4.5 c3.9-2.9,8-5.6,12.2-8.1c8.4-5,17.3-9.3,25.8-14.2c4.3-2.5,8.5-5,12.5-7.9c4-2.9,7.8-6,11.3-9.5c7-6.9,13.1-14.8,17.7-23.5 C159.4,52.8,153.1,60.5,146,67.3z"/>
</g>
<g id="f2">
  <linearGradient id="lg5" x1="171.193" x2="174.294" y1="62.245" y2="-.669" gradientTransform="rotate(-2.819 2251.536 627.371) scale(1.00001)" gradientUnits="userSpaceOnUse">
    <stop offset=".184" stop-color="#236e49"/>
    <stop offset=".349" stop-color="#2f774d"/>
    <stop offset=".65" stop-color="#508e59"/>
    <stop offset=".974" stop-color="#7aac67"/>
  </linearGradient>
  <path fill="url(#lg5)" d="M149.3,102.3c0,0-15,12.5-16.3,27.4c-1.8,20,7.9,22,9.7,27.7s0.4,7.9,0.4,7.9s16.7-9.7,15.9-29.7 c-1.1-10.9-4.9-10.8-8.9-24.5C148.5,105.9,149.3,102.3,149.3,102.3z"/>
  <linearGradient id="lg6" x1="191.166" x2="203.757" y1="162.575" y2="91.167" gradientUnits="userSpaceOnUse">
    <stop offset=".16" stop-color="#236e49"/>
    <stop offset=".703" stop-color="#609a5e"/>
    <stop offset=".974" stop-color="#7aac67"/>
  </linearGradient>
  <path fill="url(#lg6)" d="M183.6,160.4c0,0,27-6.8,29-30.7c0.2-15.5-4.1-17-6.3-24.4c-2.2-7.4-0.4-13.7-0.4-13.7s-13.9,5.9-21.1,24.2 c-4.6,10-3.9,18.5-1.3,24c2.6,5.5,2.8,17.9-3.1,20.7C180.3,161.1,183.6,160.4,183.6,160.4z"/>
  <linearGradient id="lg7" x1="80.986" x2="227.134" y1="168.109" y2="168.109" gradientUnits="userSpaceOnUse">
    <stop offset="0" stop-color="#375c3c"/>
    <stop offset=".039" stop-color="#3c6742"/>
    <stop offset=".103" stop-color="#417448"/>
    <stop offset=".165" stop-color="#43784a"/>
    <stop offset=".433" stop-color="#489152"/>
    <stop offset=".535" stop-color="#4a9c56"/>
    <stop offset="1" stop-color="#5fa25e"/>
  </linearGradient>
  <path fill="url(#lg7)" d="M226.5,127.4c-4.3,8.1-10,15.4-17.1,21.2c-4.4,3.5-9.4,6.5-14.8,8.2c-2.7,0.8-5.4,1.5-8.2,1.9 c1.6-1,3.1-2.1,4.5-3.5c2.6-2.7,4.6-5.9,6.1-9.2c0.2-0.4,0.4-0.8,0.6-1.3l0.5-1.3c0.3-0.9,0.7-1.7,0.9-2.6l0.7-2.7 c0.2-0.9,0.3-1.8,0.5-2.7c0.3-1.8,0.6-3.6,0.7-5.4c0.1-1.8,0-3.7-0.2-5.5c-0.4-3.6-1.2-7.2-1.5-10.7c-0.3-3.6,0.3-7.2,1.3-10.6 c0.6-2,1.3-4,2.1-5.9l-0.3-0.2c-0.9,2-1.7,3.9-2.3,6c-1.1,3.5-1.7,7.1-1.6,10.8c0.1,3.7,0.9,7.2,1.2,10.8 c0.2,1.8,0.2,3.6,0.1,5.3c-0.1,1.8-0.5,3.5-0.8,5.3c-0.2,0.9-0.3,1.8-0.5,2.6l-0.7,2.6c-0.2,0.9-0.6,1.7-0.9,2.5l-0.5,1.2 c-0.2,0.4-0.4,0.8-0.6,1.2c-1.5,3.2-3.5,6.2-6,8.6l-0.9,0.9l-1,0.8c-0.7,0.6-1.4,1-2.1,1.6c-1.3,0.9-2.8,1.6-4.2,2.1 c-1.2,0.1-2.3,0.3-3.5,0.4c-10.5,1.1-21.1,1.4-31.6,3.4c0.1-0.2,0.2-0.3,0.3-0.5c0.6-1.2,1.2-2.5,1.6-3.8c0.9-2.6,1.6-5.3,1.9-8 c0.3-2.7,0.3-5.5-0.1-8.2c-0.4-2.7-1.4-5.3-2.3-7.8c-0.9-2.5-1.8-4.9-2.1-7.5c-0.4-2.6-0.4-5.2-0.2-7.8c0.3-5.2,1.3-10.5,3-15.5 c-1.9,4.9-3.2,10.1-3.8,15.4c-0.3,2.6-0.4,5.3-0.2,8c0.2,2.7,1,5.3,1.8,7.8c0.8,2.5,1.6,5,1.9,7.5c0.2,2.5,0.1,5.1-0.3,7.6 c-0.4,2.5-1.1,5-2.1,7.3c-0.5,1.2-1,2.3-1.7,3.4c-0.5,0.9-1.1,1.8-1.7,2.6c-5.3,1.2-10.5,2.8-15.5,5.1c-2.7,1.2-5.2,2.7-7.7,4.2 l-1.9,1.1l-1.8,1.2l-1.8,1.2l-1.8,1.3c-4.7,3.5-9.1,7.5-12.9,12c-3.8,4.5-7.1,9.4-9.8,14.7c-2.7,5.3-4.7,10.9-6.1,16.6 c-0.7,2.9-1.2,5.8-1.6,8.7c-0.2,1.5-0.3,3-0.4,4.4c-0.1,1.5-0.1,2.9,0,4.6l5-0.4c-0.1-1.2-0.1-2.7,0-4c0-1.4,0.2-2.8,0.3-4.1 c0.3-2.8,0.7-5.5,1.3-8.2c1.2-5.4,3-10.7,5.4-15.7c2.4-5,5.4-9.7,8.9-14.1c3.5-4.3,7.6-8.2,12-11.6l1.7-1.3l1.7-1.2l1.7-1.2 l1.8-1.1c2.4-1.5,4.8-3,7.3-4.2c5-2.5,10.4-4.3,15.9-5.6c0.1,0,0.1,0,0.2,0l0,0c0,0,0,0,0,0c10.9-2.6,22.3-3.3,33.7-4.8 c5.7-0.8,11.4-1.7,16.9-3.6c5.5-1.9,10.6-4.9,15.1-8.5c7.2-5.9,12.8-13.5,17.2-21.6L226.5,127.4z"/>
</g>
<g id="f6">
  <linearGradient id="lg18" x1="-23.832" x2="36.097" y1="207.073" y2="147.144" gradientUnits="userSpaceOnUse">
    <stop offset="0" stop-color="#375c3c"/>
    <stop offset=".039" stop-color="#3c6742"/>
    <stop offset=".103" stop-color="#417448"/>
    <stop offset=".165" stop-color="#43784a"/>
    <stop offset=".341" stop-color="#519151"/>
    <stop offset=".451" stop-color="#5ba356"/>
    <stop offset="1" stop-color="#7db255"/>
  </linearGradient>
  <path fill="url(#lg18)" d="M-7.7,221.1c0,0,3.4-8.4,6.5-14c1.6-2.9,4.2-5.1,7.3-6.2c0.8-0.3,1.7-0.5,2.7-0.6c3-0.2,4-1.3,4-1.3 s-0.8-0.2-1.8-0.5S9.6,198,9.6,198s3.5-0.7,6.6-2.9s4.1-5.4,4.1-5.4s-2.1,1.1-4.2,1c-2.2-0.1-3.3-0.5-4.7,0c0,0,0.1-0.7,1.1-1.3 c1-0.6,1-0.6,1-0.6s-1.8-0.4-4,0.1s-4.7,2.4-4.7,2.4s0.4-4.8,3.5-6.8c3.1-1.9,4.8-2.8,8.7-0.8c3.9,1.9,6.3-0.2,6.3-0.2 s-1.2-0.1-2.1-0.6s-1.6-0.7-1.6-0.7s2.8-0.4,6.3-2.5s5.1-5.9,5.1-5.9s-3.3,0.8-6.5,1.1c-3.3,0.2-4.7,0.2-4.7,0.2s1.1-0.5,1.2-2.8 c-0.1,0-1.3,1.6-3.1,2.2s-3.7,0.2-6.5,4.5c0-0.1,1.1-5.1,4.6-10.1c2.1-3.5,2.2-4.2,6.2-6.4c6.8-3.3,8.5-12.2,8.5-12.2 s-1.6-0.2-4.2,1.9c0.2-0.1,2.1-6.8,1.9-12.8c0-0.1-6.2,5.7-7.6,8.7c-1.4,3-1.7,4-1.7,4s-0.6-3-1-5.7c0.1,0-1.4,2.7-2.5,4 s-1.3,3.7-0.8,6c0.5,2.3,0.5,3.6-0.4,5.8c-0.8,2.2-2.8,7.1-4.2,9.4s-2.1,1.2-2.1-0.1s0.6-3-0.4-5.4c-1-2.4-0.8-4.1-0.8-4.1 s-0.8,1.2-1.2,2.3c-0.4,1.1-0.6,1.7-0.6,1.7s-0.5-4.3-3.1-7.5c-1.2-1.9-2.1-5-2.1-5s-1.7,3.9-2.1,6.4c-0.4,2.5,0.5,4,1.6,6.6 c1.1,2.7,1,3.9,1,3.9s-1.2-1-2.2-1.3c-1-0.4-1.6-0.5-1.6-0.5s1.2,1.9,1.8,3.5s2.3,3.9,4.5,5.4c0.4,0.5,1.3,1.1,0.4,6.2 s-1.9,6.9-3,6.6c-1.1-0.2-1.1-1.8-0.7-5.4c0-1.7-2.1-3.5-2.1-3.5s0.5,2.2,0.1,3.6s-0.4,1.4-0.4,1.4s-0.7-2.8-2.5-4.8 c-1.8-2.1-4-5.1-4-5.1s-1.3,4.7-0.5,9.3c0.8,4.6,6.8,8,5.9,12.2c-1.1,5.3-4.2,16.7-5,24L-7.7,221.1z"/>
  <linearGradient id="lg19" x1="-10.533" x2="91.415" y1="253.656" y2="132.16" gradientUnits="userSpaceOnUse">
    <stop offset="0" stop-color="#68a955"/>
    <stop offset=".281" stop-color="#5ba356"/>
    <stop offset=".439" stop-color="#549753"/>
    <stop offset=".712" stop-color="#43784a"/>
    <stop offset=".82" stop-color="#417448"/>
    <stop offset=".932" stop-color="#3c6742"/>
    <stop offset="1" stop-color="#375c3c"/>
  </linearGradient>
  <path fill="url(#lg19)" d="M-21.4,243l-2.5-0.5c0.2-1,5.4-24.2,62.5-51.6c32.1-15.3,65.9-47.1,66.2-47.4l1.7,1.8 c-0.3,0.3-34.4,32.4-66.8,47.8C-16.2,220-21.4,242.7-21.4,243z"/>
  <linearGradient id="lg20" x1="128.989" x2="100.551" y1="107.817" y2="157.072" gradientUnits="userSpaceOnUse">
    <stop offset="0" stop-color="#eb6c2a"/>
    <stop offset=".016" stop-color="#e9692a"/>
    <stop offset=".139" stop-color="#de5228"/>
    <stop offset=".256" stop-color="#d74526"/>
    <stop offset=".361" stop-color="#d54026"/>
    <stop offset="1" stop-color="#af2a26"/>
  </linearGradient>
  <path fill="url(#lg20)" d="M98.7,154.5c0,0-22.2-3-17.2-30.2s24.8-26.8,30.2-25.8s10,7.8,10,7.8s7.8,0.8,13.8,7.2s3.5,6.5,6.2,12.8 c2.8,6.2,5.8,6.2,6.2,11.7s1.8,15-15.5,20.5S98.7,154.5,98.7,154.5z"/>
  <linearGradient id="lg21" x1="106.93" x2="161.88" y1="179.758" y2="148.033" gradientUnits="userSpaceOnUse">
    <stop offset="0" stop-color="#af2a26"/>
    <stop offset=".031" stop-color="#b42d26"/>
    <stop offset=".179" stop-color="#c63826"/>
    <stop offset=".333" stop-color="#d13e26"/>
    <stop offset=".502" stop-color="#d54026"/>
    <stop offset=".635" stop-color="#db4d27"/>
    <stop offset="1" stop-color="#eb6c2a"/>
  </linearGradient>
  <path fill="url(#lg21)" d="M98.7,152c0,0,4.8-2.5,11.8-4.8s3.5-1.5,14.8-9s16.2-8.2,26-3.5s9,15.5,8,20s-5.5,10.5-5.8,15.8 s2.2,11.8-4.2,17.2c-11.8,8.8-23,4.5-27.2,0.8s-8-4.5-10.8-6.5s-11.5-12-12.8-18.8S98.7,152,98.7,152z"/>
  <linearGradient id="lg22" x1="101.496" x2="153.695" y1="181.585" y2="181.585" gradientUnits="userSpaceOnUse">
    <stop offset="0" stop-color="#d74426"/>
    <stop offset=".129" stop-color="#df5227"/>
    <stop offset=".295" stop-color="#e55d28"/>
    <stop offset=".488" stop-color="#e76028"/>
    <stop offset="1" stop-color="#eb7131"/>
  </linearGradient>
  <path fill="url(#lg22)" d="M153.6,174.9c-0.3,0.7-0.6,1.7-0.9,3c-1.5,6.5-7,8-14.5,9s-11.5-3.8-17.8-8.5c-4.2-3.2-13.4-6.4-18.9-8.1 c3.2,5.2,7.8,10.3,9.7,11.6c2.8,2,6.5,2.8,10.8,6.5s15.5,8,27.2-0.8C153.9,183.7,153.9,179.1,153.6,174.9z"/>
  <g>
    <linearGradient id="lg23" x1="81.525" x2="102.676" y1="186.163" y2="149.529" gradientUnits="userSpaceOnUse">
      <stop offset="0" stop-color="#eb6c2a"/>
      <stop offset=".087" stop-color="#df5f29"/>
      <stop offset=".278" stop-color="#ca4828"/>
      <stop offset=".484" stop-color="#bb3727"/>
      <stop offset=".71" stop-color="#b22d26"/>
      <stop offset="1" stop-color="#af2a26"/>
    </linearGradient>
    <path fill="url(#lg23)" d="M101.7,149c0,0-11,1.5-18.2,1.2s-19.5-1.2-17.8,9.2c1.8,10.5,5,15,13.8,22.5s12,12,21.2,12.8 s12.5-4,14.2-8.5s-4.5-12.5-9.2-15.2c-0.2-0.2-0.5-3-2.2-8.5S101.7,149,101.7,149z"/>
    <linearGradient id="lg24" x1="92.681" x2="83.458" y1="164.023" y2="189.362" gradientUnits="userSpaceOnUse">
      <stop offset="0" stop-color="#eb7131"/>
      <stop offset=".512" stop-color="#e76028"/>
      <stop offset=".705" stop-color="#e55d28"/>
      <stop offset=".871" stop-color="#df5227"/>
      <stop offset="1" stop-color="#d74426"/>
    </linearGradient>
    <path fill="url(#lg24)" d="M108.9,190.7c-3.8,0.8-4.2-0.8-9.5-4.2s-10.8-10-16.5-12.5s-9.2-4.5-11.5-7s-2.5-5.5-3.8-7.8 c-0.7-1.3-1.2-3.4-1.5-4.8c-0.6,1.3-0.9,2.9-0.5,5.1c1.8,10.5,5,15,13.8,22.5s12,12,21.2,12.8c7.4,0.6,11-2.4,13-5.9 C112.4,189.6,110.7,190.4,108.9,190.7z"/>
  </g>
  <g>
    <path fill="#ec6e2b" d="M87.2,97c0,0-4-1-8-0.5s-7,2.5-11.8,6.5s-8.5,8-10.7,12.2s-2.5,8.5-2,12.2c0.5,3.7,4.2,11.7,8,16.2 c3.7,4.5,5.5,8,9.2,8.2s3.8-3.2,3.8-3.2L87.2,97z"/>
    <linearGradient id="lg25" x1="68.901" x2="96.292" y1="103.336" y2="150.779" gradientUnits="userSpaceOnUse">
      <stop offset="0" stop-color="#eb6c2a"/>
      <stop offset=".191" stop-color="#e45d29"/>
      <stop offset=".533" stop-color="#d94827"/>
      <stop offset=".757" stop-color="#d54026"/>
      <stop offset="1" stop-color="#af2a26"/>
    </linearGradient>
    <path fill="url(#lg25)" d="M98.9,149.2c0,0-9.2,2.5-12.2-11.8c-1-10.2,0.8-16.7,3.5-21.2s3.5-11.5,4-15.5s-3.2-6.5-7.5-5.5 S74.4,98,65.9,108s-6,21.7-4.7,26.5s4,15.8,12.5,19s10,2.2,12.5,0S92.2,153.7,98.9,149.2z"/>
  </g>
  <g>
    <path d="M98.8,152.5c-0.2-0.3-0.4-0.6-0.6-0.8c-2.4-3.4-5-7,1.8-17.9l0.6,0.4c-6.5,10.5-4.1,13.8-1.8,17.1 c0.2,0.3,0.4,0.6,0.6,0.9L98.8,152.5z" class="st104"/>
    <path d="M105.1,146.9l-0.6-0.5c2.6-3,5.3-5.9,8-8.7l0.5,0.5C110.4,141,107.7,143.9,105.1,146.9z" class="st104"/>
    <path d="M113.7,153.3c-2.5,0-5-0.3-7.4-1c-1.3-0.4-2.7-0.9-3.7-1.9l0.5-0.5c0.9,0.9,2.2,1.4,3.4,1.7 c3.9,1.1,8,1.3,11.9,0.5l0.1,0.7C117,153.2,115.3,153.3,113.7,153.3z" class="st104"/>
    <path d="M112.2,156.3c-4.5,0-9-1.8-12.2-5l0.5-0.5c3.2,3.1,7.7,4.9,12.1,4.8l0,0.8 C112.5,156.3,112.3,156.3,112.2,156.3z" class="st104"/>
    <path d="M108,159.1c-3.3-0.3-6.2-2.6-7.1-5.8l0.7-0.2c0.8,2.8,3.5,5,6.4,5.2L108,159.1z" class="st104"/>
    <path d="M99.6,156.5c-0.5-1.4-0.4-2.9,0.3-4.2l0.7,0.4c-0.6,1.1-0.7,2.4-0.3,3.6L99.6,156.5z" class="st104"/>
    <path d="M99.7,151.3c-1.6,0-3.1-0.5-4.3-1.4c-1.8-1.5-2.7-4-2.1-6.1c0.1-0.2,0.2-0.8,0.8-1.1l0.4,0.7 c-0.2,0.1-0.3,0.3-0.4,0.6c-0.5,1.9,0.2,4,1.8,5.3c1.5,1.2,3.7,1.6,5.7,1l0.2,0.7C101.1,151.2,100.4,151.3,99.7,151.3z" class="st104"/>
    <path d="M97.7,149.8c-2,0-3.9-0.8-5.1-2.2c-0.7-0.8-1.2-1.8-1.5-3.1c-0.4-1.5-0.4-2.9,0-4.1 c0.4-1.4,1.3-2.7,2.4-3.4l0.4,0.6c-1,0.6-1.7,1.7-2.1,3c-0.3,1.1-0.3,2.4,0,3.8c0.3,1.1,0.7,2.1,1.3,2.8c1.7,2,4.5,2.2,6.6,1.6 l0.2,0.7C99.3,149.7,98.5,149.8,97.7,149.8z" class="st104"/>
    <path d="M101.4,148.9c-0.9,0-1.8-0.4-2.7-1.3c-1.5-1.4-2.4-3.1-2.7-4.8c-0.3-2,0.6-4,2.1-5.1l0.4,0.6 c-1.3,0.9-2,2.7-1.8,4.4c0.2,1.5,1.1,3.1,2.4,4.4c0.9,0.8,1.7,1.2,2.4,1.1l0.1,0.7C101.5,148.9,101.5,148.9,101.4,148.9z" class="st104"/>
    <path d="M101,145.7c-0.5-0.6-0.7-1.3-0.8-2c-0.4-2-0.4-3.9,0.1-5.6c0.6-1.9,1.8-3.6,3.3-4.5l0.4,0.6 c-1.4,0.8-2.5,2.3-3,4.1c-0.5,1.6-0.5,3.3-0.1,5.3c0.1,0.6,0.3,1.2,0.7,1.7L101,145.7z" class="st104"/>
    <path d="M114.6,136.2c-1-0.2-2.1,0.3-2.6,1.1c-0.1,0.1-0.2,0.3-0.1,0.4c0,0.2,0.3,0.2,0.4,0.3 c0.5,0.1,0.9,0.2,1.4,0.1c0.4,0,0.8-0.1,1.2-0.3c0.4-0.2,0.6-0.6,0.6-1C115.4,136.4,115,136,114.6,136.2c-0.1,0-0.2,0.1-0.2,0.2 c0,0.1,0.2,0,0.1-0.1" class="st104"/>
    <path d="M113.7,155c-0.2-0.3-0.6-0.6-1-0.5c-0.3,0.1-0.4,0.4-0.4,0.7c-0.1,1.1,0.7,2.2,1.8,2.5c0.1,0,0.2,0,0.3,0 c0.1-0.1,0.2-0.2,0.3-0.3c0.2-0.6,0.1-1.4-0.2-1.9c-0.4-0.6-1-0.9-1.7-0.9" class="st104"/>
    <path d="M94.5,136.2c-0.2-0.3-0.8-0.2-1.1,0.1c-0.2,0.4-0.1,0.8,0.1,1.2c0.2,0.3,0.6,0.6,1,0.8 c0.1,0.1,0.3,0.2,0.5,0.1c0.1,0,0.1-0.1,0.2-0.2c0.4-0.9-0.3-2.1-1.3-2.2C94.1,136.1,94.2,136.2,94.5,136.2" class="st104"/>
    <path d="M109.2,158.1c-0.1-0.3-0.3-0.5-0.5-0.7c-0.2-0.2-0.6-0.2-0.8,0.1c-0.1,0.1-0.1,0.3-0.1,0.4 c0,0.5,0,1.1,0.3,1.5c0.3,0.4,1,0.6,1.4,0.1c0.4-0.5-0.1-1.2-0.5-1.6" class="st104"/>
    <path d="M94.8,142c-0.2-0.3-0.8-0.2-1.1,0.1c-0.2,0.4-0.1,0.8,0.1,1.2c0.2,0.3,0.6,0.6,1,0.8 c0.1,0.1,0.3,0.2,0.5,0.1c0.1,0,0.1-0.1,0.2-0.2c0.4-0.9-0.3-2.1-1.3-2.2C94.4,141.9,94.5,142,94.8,142" class="st104"/>
    <path d="M99,137.2c-0.2-0.3-0.8-0.2-1.1,0.1c-0.2,0.4-0.1,0.8,0.1,1.2c0.2,0.3,0.6,0.6,1,0.8 c0.1,0.1,0.3,0.2,0.5,0.1c0.1,0,0.1-0.1,0.2-0.2c0.4-0.9-0.3-2.1-1.3-2.2C98.6,137.1,98.8,137.1,99,137.2" class="st104"/>
    <path d="M100.4,133.3c-0.2-0.3-0.8-0.2-1.1,0.1c-0.2,0.4-0.1,0.8,0.1,1.2c0.2,0.3,0.6,0.6,1,0.8 c0.1,0.1,0.3,0.2,0.5,0.1c0.1,0,0.1-0.1,0.2-0.2c0.4-0.9-0.3-2.1-1.3-2.2C100,133.2,100.2,133.3,100.4,133.3" class="st104"/>
    <path d="M103.8,132.4c0.9,0.5,1.5,1.5,1.4,2.5c0,0.1,0,0.3-0.1,0.4c-0.1,0.1-0.4,0-0.5,0c-0.4-0.2-0.8-0.4-1.2-0.7 c-0.3-0.3-0.6-0.6-0.8-1c-0.1-0.4-0.1-0.9,0.2-1.2C103.1,132.1,103.6,132,103.8,132.4c0.1,0.1,0.1,0.2,0,0.3 c-0.1,0.1-0.2-0.2-0.1-0.1" class="st104"/>
    <path d="M118.2,151.3c-0.3-0.2-0.7-0.5-1.1-0.2c-0.2,0.2-0.3,0.5-0.2,0.8c0.2,1.1,1.2,2,2.3,2c0.1,0,0.2,0,0.3-0.1 c0.1-0.1,0.2-0.2,0.2-0.4c0.1-0.7-0.2-1.4-0.6-1.8c-0.5-0.5-1.2-0.7-1.8-0.6" class="st104"/>
    <path d="M101.2,156.3c-0.2-0.3-0.3-0.7-0.6-0.9s-0.8-0.2-1,0.1c-0.1,0.1-0.1,0.3-0.1,0.5c0,0.7,0,1.4,0.4,1.9 c0.4,0.5,1.3,0.7,1.7,0.2c0.5-0.6-0.1-1.5-0.6-2" class="st104"/>
  </g>
  <g>
    <path d="M99.9,153.5c-2.5-1.5-2.5-6.5,0-10.5s5.5-4.2,8-2.2s3,5.2,1.2,7.8S102.4,155,99.9,153.5z" class="st104"/>
    <path fill="#704436" d="M107.9,140.7c-1.9-1.5-4.1-1.7-6.2,0c-0.4,0.7-0.6,1.5-0.6,2.4c0,3,2.6,5.4,5.9,5.4c0.9,0,1.7-0.2,2.4-0.5 C110.8,145.6,110.3,142.6,107.9,140.7z"/>
  </g>
</g>
</defs>

<g clip-path="url(#clp)">
<g id="a1">
  <use xlink:href="#f1" transform="rotate(0 29 229)"/>
  <use xlink:href="#f2" transform="rotate(0 83 239)"/>
  <use xlink:href="#f6" transform="rotate(0 -24 243)"/>
</g>
<g id="a2">
  <use xlink:href="#f1" transform="rotate(1 29 229)"/>
  <use xlink:href="#f2" transform="rotate(1 83 239)"/>
  <use xlink:href="#f6" transform="rotate(1 -24 243)"/>
</g>
<g id="a3">
  <use xlink:href="#f1" transform="rotate(3 29 229)"/>
  <use xlink:href="#f2" transform="rotate(3 83 239)"/>
  <use xlink:href="#f6" transform="rotate(3 -24 243)"/>
</g>
<g id="a4">
  <use xlink:href="#f1" transform="rotate(6 29 229)"/>
  <use xlink:href="#f2" transform="rotate(6 83 239)"/>
  <use xlink:href="#f6" transform="rotate(6 -24 243)"/>
</g>
<g id="a5">
  <use xlink:href="#f1" transform="rotate(9 29 229)"/>
  <use xlink:href="#f2" transform="rotate(9 83 239)"/>
  <use xlink:href="#f6" transform="rotate(9 -24 243)"/>
</g>
<g id="a6">
  <use xlink:href="#f1" transform="rotate(12 29 229)"/>
  <use xlink:href="#f2" transform="rotate(12 83 239)"/>
  <use xlink:href="#f6" transform="rotate(12 -24 243)"/>
</g>
<g id="a7">
  <use xlink:href="#f1" transform="rotate(14 29 229)"/>
  <use xlink:href="#f2" transform="rotate(14 83 239)"/>
  <use xlink:href="#f6" transform="rotate(14 -24 243)"/>
</g>
<g id="a8">
  <use xlink:href="#f1" transform="rotate(15 29 229)"/>
  <use xlink:href="#f2" transform="rotate(15 83 239)"/>
  <use xlink:href="#f6" transform="rotate(15 -24 243)"/>
</g>
</g>

<style>
/* <![CDATA[ */

#a1 {animation-name: a1}
#a2 {animation-name: a2}
#a3 {animation-name: a3}
#a4 {animation-name: a4}
#a5 {animation-name: a5}
#a6 {animation-name: a6}
#a7 {animation-name: a7}
#a8 {animation-name: a8}

@keyframes a1 {0.00%, 93.33%{visibility: visible} 6.67%, 100.00%{visibility: hidden}}
@keyframes a2 {6.67%, 86.67%{visibility: visible} 13.33%, 93.33%{visibility: hidden}}
@keyframes a3 {13.33%, 80.00%{visibility: visible} 20.00%, 86.67%{visibility: hidden}}
@keyframes a4 {20.00%, 73.33%{visibility: visible} 26.67%, 80.00%{visibility: hidden}}
@keyframes a5 {26.67%, 66.67%{visibility: visible} 33.33%, 73.33%{visibility: hidden}}
@keyframes a6 {33.33%, 60.00%{visibility: visible} 40.00%, 66.67%{visibility: hidden}}
@keyframes a7 {40.00%, 53.33%{visibility: visible} 46.67%, 60.00%{visibility: hidden}}
@keyframes a8 {46.67%{visibility: visible} 53.33%{visibility: hidden}}

/* ]]> */
</style>
</svg>
