<svg xmlns="http://www.w3.org/2000/svg" xmlns:xlink="http://www.w3.org/1999/xlink" viewBox="0 0 224 222">
<style>
/* <![CDATA[ */

#a1, #a2, #a3, #a4, #a5, #a6, #a7, #a8 {
visibility: hidden;
animation-duration: 1.6s;
animation-iteration-count: infinite;
animation-timing-function: steps(1);
}

/* ]]> */
</style>
<defs>
<clipPath id="clp">
  <rect width="964" height="222"/>
</clipPath>
<g id="f3">
  <linearGradient id="lg8" x1="3898.251" x2="3901.352" y1="237.06" y2="174.147" gradientTransform="matrix(-.9988 -.04922 -.04922 .9988 4726.382 111.576)" gradientUnits="userSpaceOnUse">
    <stop offset=".184" stop-color="#236e49"/>
    <stop offset=".349" stop-color="#2f774d"/>
    <stop offset=".65" stop-color="#508e59"/>
    <stop offset=".974" stop-color="#7aac67"/>
  </linearGradient>
  <path fill="url(#lg8)" d="M817.8,93.5c0,0,15,12.5,16.3,27.4c1.8,20-7.9,22-9.7,27.7c-1.8,5.7-0.4,7.9-0.4,7.9s-16.7-9.7-15.9-29.7 c1.1-10.9,4.9-10.8,8.9-24.5C818.6,97.1,817.8,93.5,817.8,93.5z"/>
  <linearGradient id="lg9" x1="3922.311" x2="3934.902" y1="153.736" y2="82.328" gradientTransform="matrix(-1 0 0 1 4698.229 0)" gradientUnits="userSpaceOnUse">
    <stop offset=".16" stop-color="#236e49"/>
    <stop offset=".703" stop-color="#609a5e"/>
    <stop offset=".974" stop-color="#7aac67"/>
  </linearGradient>
  <path fill="url(#lg9)" d="M783.5,151.5c0,0-27-6.8-29-30.7c-0.2-15.5,4.1-17,6.3-24.4c2.2-7.4,0.4-13.7,0.4-13.7s13.9,5.9,21.1,24.2 c4.6,10,3.9,18.5,1.3,24s-2.8,17.9,3.1,20.7C786.8,152.3,783.5,151.5,783.5,151.5z"/>
  <linearGradient id="lg10" x1="3812.131" x2="3958.28" y1="159.27" y2="159.27" gradientTransform="matrix(-1 0 0 1 4698.229 0)" gradientUnits="userSpaceOnUse">
    <stop offset="0" stop-color="#375c3c"/>
    <stop offset=".039" stop-color="#3c6742"/>
    <stop offset=".103" stop-color="#417448"/>
    <stop offset=".165" stop-color="#43784a"/>
    <stop offset=".433" stop-color="#489152"/>
    <stop offset=".535" stop-color="#4a9c56"/>
    <stop offset="1" stop-color="#5fa25e"/>
  </linearGradient>
  <path fill="url(#lg10)" d="M740.6,118.6c4.3,8.1,10,15.4,17.1,21.2c4.4,3.5,9.4,6.5,14.8,8.2c2.7,0.8,5.4,1.5,8.2,1.9 c-1.6-1-3.1-2.1-4.5-3.5c-2.6-2.7-4.6-5.9-6.1-9.2c-0.2-0.4-0.4-0.8-0.6-1.3l-0.5-1.3c-0.3-0.9-0.7-1.7-0.9-2.6l-0.7-2.7 c-0.2-0.9-0.3-1.8-0.5-2.7c-0.3-1.8-0.6-3.6-0.7-5.4c-0.1-1.8,0-3.7,0.2-5.5c0.4-3.6,1.2-7.2,1.5-10.7c0.3-3.6-0.3-7.2-1.3-10.6 c-0.6-2-1.3-4-2.1-5.9l0.3-0.2c0.9,2,1.7,3.9,2.3,6c1.1,3.5,1.7,7.1,1.6,10.8c-0.1,3.7-0.9,7.2-1.2,10.8 c-0.2,1.8-0.2,3.6-0.1,5.3c0.1,1.8,0.5,3.5,0.8,5.3c0.2,0.9,0.3,1.8,0.5,2.6l0.7,2.6c0.2,0.9,0.6,1.7,0.9,2.5l0.5,1.2 c0.2,0.4,0.4,0.8,0.6,1.2c1.5,3.2,3.5,6.2,6,8.6l0.9,0.9l1,0.8c0.7,0.6,1.4,1,2.1,1.6c1.3,0.9,2.8,1.6,4.2,2.1 c1.2,0.1,2.3,0.3,3.5,0.4c10.5,1.1,21.1,1.4,31.6,3.4c-0.1-0.2-0.2-0.3-0.3-0.5c-0.6-1.2-1.2-2.5-1.6-3.8 c-0.9-2.6-1.6-5.3-1.9-8c-0.3-2.7-0.3-5.5,0.1-8.2c0.4-2.7,1.4-5.3,2.3-7.8c0.9-2.5,1.8-4.9,2.1-7.5c0.4-2.6,0.4-5.2,0.2-7.8 c-0.3-5.2-1.3-10.5-3-15.5c1.9,4.9,3.2,10.1,3.8,15.4c0.3,2.6,0.4,5.3,0.2,8c-0.2,2.7-1,5.3-1.8,7.8c-0.8,2.5-1.6,5-1.9,7.5 c-0.2,2.5-0.1,5.1,0.3,7.6c0.4,2.5,1.1,5,2.1,7.3c0.5,1.2,1,2.3,1.7,3.4c0.5,0.9,1.1,1.8,1.7,2.6c5.3,1.2,10.5,2.8,15.5,5.1 c2.7,1.2,5.2,2.7,7.7,4.2l1.9,1.1l1.8,1.2l1.8,1.2l1.8,1.3c4.7,3.5,9.1,7.5,12.9,12c3.8,4.5,7.1,9.4,9.8,14.7 c2.7,5.3,4.7,10.9,6.1,16.6c0.7,2.9,1.2,5.8,1.6,8.7c0.2,1.5,0.3,3,0.4,4.4c0.1,1.5,0.1,2.9,0,4.6l-5-0.4c0.1-1.2,0.1-2.7,0-4 c0-1.4-0.2-2.8-0.3-4.1c-0.3-2.8-0.7-5.5-1.3-8.2c-1.2-5.4-3-10.7-5.4-15.7c-2.4-5-5.4-9.7-8.9-14.1c-3.5-4.3-7.6-8.2-12-11.6 l-1.7-1.3l-1.7-1.2l-1.7-1.2l-1.8-1.1c-2.4-1.5-4.8-3-7.3-4.2c-5-2.5-10.4-4.3-15.9-5.6c-0.1,0-0.1,0-0.2,0l0,0c0,0,0,0,0,0 c-10.9-2.6-22.3-3.3-33.7-4.8c-5.7-0.8-11.4-1.7-16.9-3.6c-5.5-1.9-10.6-4.9-15.1-8.5c-7.2-5.9-12.8-13.5-17.2-21.6L740.6,118.6 z"/>
</g>
<g id="f4">
  <linearGradient id="lg11" x1="879.454" x2="951.584" y1="160.654" y2="160.654" gradientUnits="userSpaceOnUse">
    <stop offset="0" stop-color="#b7b449"/>
    <stop offset=".106" stop-color="#a9a844"/>
    <stop offset=".291" stop-color="#97983d"/>
    <stop offset=".422" stop-color="#90923a"/>
    <stop offset=".669" stop-color="#807f3d"/>
    <stop offset=".868" stop-color="#77743f"/>
  </linearGradient>
  <path fill="url(#lg11)" d="M887.7,125.5c-2.3-3.2-4.3-7.4-8.2-8c3.5,10.1,9.1,19.5,16.4,27.4c1.7,1.8,3.4,3.5,4.9,5.5 c1.5,2.1,2.6,4.4,4.1,6.5c4,6,10.2,10.4,14,16.5c2.4,3.8,3.8,8.2,6.3,12c1.4,2.1,3.2,4,4.9,5.9c2,2.1,3.9,4.2,6.2,6.1 c4.3,3.5,9.7,5.8,15.2,6.5c0.3-1.3-0.2-2.7-0.7-4c-6.2-14.2-16.4-26.3-26.4-38.2c-2.5-3-5-6-7.9-8.6c-3-2.8-6.4-5.2-9.4-7.9 c-2.7-2.3-5.1-4.9-7.5-7.5C895.7,133.5,890.9,130,887.7,125.5z"/>
  <linearGradient id="lg12" x1="1671.268" x2="1688.348" y1="-768.664" y2="-798.248" gradientTransform="rotate(-40.1 2687.756 695.334)" gradientUnits="userSpaceOnUse">
    <stop offset="0" stop-color="#b7b449"/>
    <stop offset=".222" stop-color="#a8a743"/>
    <stop offset=".488" stop-color="#90923a"/>
    <stop offset=".676" stop-color="#8d8e3b"/>
    <stop offset=".861" stop-color="#83823d"/>
    <stop offset="1" stop-color="#77743f"/>
  </linearGradient>
  <path fill="url(#lg12)" d="M979.6,227.9c-17.6-6.4-31.5-26.9-32.1-27.8l2.5-1.7c0.1,0.2,13.9,20.6,30.6,26.6L979.6,227.9z"/>
  <g>
    <linearGradient id="lg13" x1="1647.388" x2="1696.928" y1="-814.963" y2="-900.77" gradientTransform="rotate(-40.1 2687.756 695.334)" gradientUnits="userSpaceOnUse">
      <stop offset="0" stop-color="#77743f"/>
      <stop offset=".139" stop-color="#83823d"/>
      <stop offset=".324" stop-color="#8d8e3b"/>
      <stop offset=".512" stop-color="#90923a"/>
      <stop offset=".778" stop-color="#a8a743"/>
      <stop offset="1" stop-color="#b7b449"/>
    </linearGradient>
    <path fill="url(#lg13)" d="M879,116.6c-0.1,0.1-0.2,0.3-0.1,0.5c0.6,2.2,1.3,6.3,0.4,12.2c-1.5,9.2-7.2,25.2,0.8,40 c8,14.8,25.7,26.5,41.3,32.2c15.1,5.4,25.6,4.1,30.2,2.5c-8.9-9.5-23.1-25-37.7-43C896.7,139.9,884.6,124,879,116.6z"/>
    <linearGradient id="lg14" x1="1027.215" x2="941.334" y1="131.237" y2="30.732" gradientTransform="matrix(1 .00719 -.00719 1 -61.876 54.892)" gradientUnits="userSpaceOnUse">
      <stop offset=".132" stop-color="#77743f"/>
      <stop offset=".331" stop-color="#807f3d"/>
      <stop offset=".578" stop-color="#90923a"/>
      <stop offset=".709" stop-color="#97983d"/>
      <stop offset=".894" stop-color="#a9a844"/>
      <stop offset="1" stop-color="#b7b449"/>
    </linearGradient>
    <path fill="url(#lg14)" d="M955.1,173.1c-2.9-16.4-11.4-35.7-24.7-46.2s-29.9-7.5-39.3-7.6c-5.9,0-9.5-1.7-11.4-2.9 c-0.3-0.2-0.6-0.1-0.8,0.1c5.6,7.4,17.8,23.3,34.9,44.4c14.6,18,28.7,33.5,37.7,43c0.2-0.1,0.3-0.1,0.5-0.2l0.1-0.1 C954.5,199.8,957.9,189.5,955.1,173.1z"/>
  </g>
</g>
<g id="f5">
  <g>
    <linearGradient id="lg15" x1="911.41" x2="824.453" y1="223.14" y2="139.441" gradientUnits="userSpaceOnUse">
      <stop offset="0" stop-color="#375c3c"/>
      <stop offset=".373" stop-color="#4a7b4a"/>
      <stop offset=".422" stop-color="#4d7f4c"/>
      <stop offset=".561" stop-color="#56864e"/>
      <stop offset="1" stop-color="#719953"/>
    </linearGradient>
    <path fill="url(#lg15)" d="M824.5,139.4c0.2,1.9,1,3.5,2.1,5.1c17,23.7,41.2,41.2,61.8,61.8c6.8,6.8,13.8,14.3,23.1,16.7 c-0.2-3.1-2-5.8-3.9-8.3c-9.3-12.1-21.1-22-32.8-31.9c-15.8-13.3-39.8-37.8-40.7-38.4C831.1,142.5,826,139.3,824.5,139.4z"/>
    <linearGradient id="lg16" x1="2384.894" x2="2305.325" y1="-1002.918" y2="-1094.055" gradientTransform="scale(-.99998 .99998) rotate(87.217 92.374 -2105.087)" gradientUnits="userSpaceOnUse">
      <stop offset="0" stop-color="#375c3c"/>
      <stop offset=".373" stop-color="#4a7b4a"/>
      <stop offset=".422" stop-color="#4d7f4c"/>
      <stop offset=".561" stop-color="#56864e"/>
      <stop offset="1" stop-color="#719953"/>
    </linearGradient>
    <path fill="url(#lg16)" d="M824,140c-0.7,2.8,0.3,7.8,0.8,10.6c0.3,2.2,0.8,4.7,1,5.9c0.1,0.4-0.3,0.7-0.7,0.7l-0.5-0.1 c-0.4-0.1-0.7,0.2-0.7,0.6c0.2,1.4,0.8,4.6,2.6,8c0.2,0.4-0.1,0.9-0.5,0.8c-0.1,0-0.3,0-0.4,0c-0.4-0.1-0.7,0.3-0.6,0.7 c0.3,1.6,1.1,5.5,2.6,8.7c0.2,0.4-0.2,0.9-0.6,0.8c-0.1,0-0.2,0-0.2-0.1c-0.4-0.1-0.8,0.3-0.7,0.7c0.5,1.4,2.7,6.9,3.3,8.5 c0.1,0.3-0.1,0.6-0.4,0.7c-0.3,0.1-0.4,0.4-0.3,0.7c0.6,1.8,1.9,5,3.9,7.7c0.3,0.4-0.1,1-0.6,0.9c0,0,0,0,0,0 c-0.5-0.1-0.9,0.5-0.6,0.9c1,1.3,2.7,3.6,4.5,5.7c0.3,0.3,0.1,0.8-0.3,0.9c-0.1,0-0.3,0.1-0.4,0.1c-0.3,0.1-0.5,0.4-0.4,0.8 c1.1,2.7,6.5,13.7,24.4,19.7c20.5,6.9,51.5-0.1,52.3-0.8l-87.2-83.9C824.2,139.6,824.1,139.8,824,140z"/>
    <linearGradient id="lg17" x1="2359.077" x2="2290.571" y1="-1040.539" y2="-1027.07" gradientTransform="scale(-.99998 .99998) rotate(87.217 92.374 -2105.087)" gradientUnits="userSpaceOnUse">
      <stop offset="0" stop-color="#375c3c"/>
      <stop offset=".578" stop-color="#43784a"/>
      <stop offset=".701" stop-color="#4b7e4c"/>
      <stop offset=".897" stop-color="#628e50"/>
      <stop offset="1" stop-color="#719953"/>
    </linearGradient>
    <path fill="url(#lg17)" d="M910.5,170.9c-6.7-17.7-17.9-22.7-20.6-23.7c-0.3-0.1-0.7,0.1-0.7,0.4c0,0.1,0,0.3-0.1,0.4 c-0.1,0.4-0.6,0.6-0.9,0.4c-2.1-1.7-4.4-3.4-5.8-4.3c-0.4-0.3-1,0.1-0.9,0.6c0,0,0,0,0,0c0.1,0.5-0.4,0.9-0.9,0.6 c-2.8-1.8-6.1-3-7.9-3.6c-0.3-0.1-0.7,0.1-0.7,0.4c-0.1,0.3-0.4,0.5-0.7,0.4c-1.7-0.5-7.2-2.5-8.7-3c-0.4-0.1-0.8,0.3-0.7,0.7 c0,0.1,0.1,0.2,0.1,0.2c0.1,0.5-0.3,0.9-0.8,0.7c-3.3-1.4-7.2-2.1-8.8-2.3c-0.4-0.1-0.7,0.3-0.6,0.7c0,0.1,0,0.3,0.1,0.4 c0.1,0.5-0.4,0.8-0.8,0.6c-3.5-1.7-6.7-2.2-8.1-2.3c-0.4,0-0.7,0.3-0.6,0.7l0.1,0.5c0.1,0.4-0.2,0.8-0.6,0.7 c-1.3-0.2-3.8-0.6-6-0.8c-2.9-0.3-7.9-1.1-10.7-0.3c-0.2,0.1-0.5,0.2-0.7,0.5l87.2,83.9c0,0,0,0,0,0l0,0 C912.3,222.8,918.2,191.2,910.5,170.9z"/>
  </g>
</g>
<g id="f7">
  <linearGradient id="lg26" x1="942.825" x2="942.825" y1="112.38" y2="93.132" gradientUnits="userSpaceOnUse">
    <stop offset="0" stop-color="#095838"/>
    <stop offset=".235" stop-color="#136240"/>
    <stop offset=".638" stop-color="#2f7c56"/>
    <stop offset="1" stop-color="#4d996e"/>
  </linearGradient>
  <path fill="url(#lg26)" d="M947.5,112.4c0,0-5.4-5.7-7-9.4c-1.6-3.7-2.7-9.8-2.7-9.8s5.3,2.4,8.1,8.8 C948.8,108.4,947.5,112.4,947.5,112.4z"/>
  <linearGradient id="lg27" x1="928.189" x2="944.484" y1="116.799" y2="107.391" gradientUnits="userSpaceOnUse">
    <stop offset="0" stop-color="#4d996e"/>
    <stop offset="1" stop-color="#095838"/>
  </linearGradient>
  <path fill="url(#lg27)" d="M947.5,112.7c0,0-6.6-2.7-11.4-2.9c-4.8-0.1-11,1.7-11,1.7s4.4,3,11,3.4 C942.7,115.4,947.5,112.7,947.5,112.7z"/>
  <linearGradient id="lg28" x1="937.107" x2="963.943" y1="103.234" y2="87.74" gradientTransform="rotate(-.788 2588.262 622.105)" gradientUnits="userSpaceOnUse">
    <stop offset="0" stop-color="#38855e"/>
    <stop offset=".152" stop-color="#2f7c57"/>
    <stop offset=".688" stop-color="#136240"/>
    <stop offset="1" stop-color="#095838"/>
  </linearGradient>
  <path fill="url(#lg28)" d="M971.9,139.9c-0.5,0-1.1-0.3-1.3-0.8c-0.1-0.3-13.1-27.2-56.2-40.1c-0.7-0.2-1.2-1-0.9-1.7 c0.2-0.7,1-1.2,1.7-0.9c44.3,13.3,57.4,40.5,57.9,41.6c0.3,0.7,0,1.5-0.7,1.9C972.3,139.9,972.1,139.9,971.9,139.9z"/>
  <radialGradient id="lg29" cx="897.32" cy="76.617" r="14.861" gradientUnits="userSpaceOnUse">
    <stop offset=".514" stop-color="#92c0c6"/>
    <stop offset=".62" stop-color="#78b1b8"/>
    <stop offset=".78" stop-color="#569ea5"/>
    <stop offset=".912" stop-color="#41929a"/>
    <stop offset="1" stop-color="#3a8e96"/>
  </radialGradient>
  <path fill="url(#lg29)" d="M880.9,77.4c0,0,0-4.4,2.8-8.1c2.4-3.3,6.2-5.8,13-5.8s8.3,1.3,10.6,2.4s6.5,5.5,6.3,12.5 c-0.1,7,0.7,12.5-0.9,11.2c-1.5-1.3-4.8-12.1-13.8-16.2C886.4,67.8,880.9,77.4,880.9,77.4z"/>
  <radialGradient id="lg30" cx="890.641" cy="96.478" r="13.642" gradientTransform="matrix(1 0 0 .9 0 9.648)" gradientUnits="userSpaceOnUse">
    <stop offset=".009" stop-color="#92c0c6"/>
    <stop offset=".309" stop-color="#87bac0"/>
    <stop offset=".447" stop-color="#81b7bd"/>
    <stop offset=".628" stop-color="#71adb4"/>
    <stop offset=".832" stop-color="#569ea5"/>
    <stop offset="1" stop-color="#3a8e96"/>
  </radialGradient>
  <path fill="url(#lg30)" d="M906.3,100.9c-1.3,1.3-8.8,11.3-23.8,4.6c-8.3-3.8-8.6-13.1-6.1-20.1c0.1-0.3,0.5-0.2,0.6,0.1 c0.4,3.1,0.7,7.8,7.9,11.4C893.6,101.2,906.3,100.9,906.3,100.9z"/>
  <radialGradient id="lg31" cx="893.542" cy="89.733" r="15.46" gradientTransform="matrix(.866 -.5 .65 1.1258 61.385 435.48)" gradientUnits="userSpaceOnUse">
    <stop offset=".094" stop-color="#92c0c6"/>
    <stop offset=".279" stop-color="#86b9c0"/>
    <stop offset=".611" stop-color="#67a7ae"/>
    <stop offset="1" stop-color="#3a8e96"/>
  </radialGradient>
  <path fill="url(#lg31)" d="M909.4,95c0,0-19.9-11.2-24.7-13.8c-4.8-2.6-6.4-4.8-6.9-4c-0.5,0.8-7.1,15.5,6.3,21.8 c13.4,6.3,22.7,2,24.7,1.2C910.9,99.4,913.1,96.6,909.4,95z"/>
  <radialGradient id="lg32" cx="1200.924" cy="-483.623" r="15.576" gradientTransform="matrix(.866 -.5 -.65 -1.1258 -457.614 139.807)" gradientUnits="userSpaceOnUse">
    <stop offset=".158" stop-color="#92c0c6"/>
    <stop offset=".452" stop-color="#6eacb3"/>
    <stop offset=".811" stop-color="#49969e"/>
    <stop offset="1" stop-color="#3a8e96"/>
  </radialGradient>
  <path fill="url(#lg32)" d="M909.9,94.4c0,0-20.4-9.8-25.2-12.3c-4.8-2.5-7.6-3.5-7.3-4.4c0.1-0.2,0.4-0.8,1.1-1.7 c2.7-3.7,10.1-11.4,20.4-5.4c12.8,7.4,14.5,17.6,15,19.7C914.5,92.4,913.3,96.6,909.9,94.4z"/>
  <linearGradient id="lg33" x1="1283.832" x2="1249.731" y1="-553.445" y2="-569.225" gradientTransform="scale(1 -1) rotate(-54.832 1538.036 23.245)" gradientUnits="userSpaceOnUse">
    <stop offset="0" stop-color="#095838"/>
    <stop offset=".479" stop-color="#2d7b55"/>
    <stop offset=".618" stop-color="#3b8860"/>
    <stop offset=".821" stop-color="#48956a"/>
    <stop offset="1" stop-color="#4d996e"/>
  </linearGradient>
  <path fill="url(#lg33)" d="M883.1,92.9c-0.3,0.2-0.3,0.5-0.2,0.8c2.7,4.3,7.5,7.8,7.5,7.8c-4.9,2.1-6.9,5.7-7.6,7.3 c-0.2,0.4,0.1,0.8,0.5,0.8c1,0.1,3.1,0.3,7,1.2c6.1,1.4,10.3-2.3,11.6-4.4c1.3-2.2,6.8-8,12.9-6.4c6.1,1.6,5.8,0.3,6.1-0.3 c0.2-0.4,1.5-1.2-3.4-5.2c-4.9-4-3.5-11.8-2.5-14.2c1-2.3,1.4-7.9-3.3-12c-3.1-2.6-4.5-4.2-5.2-4.9c-0.3-0.3-0.7-0.3-0.9,0.1 c-0.9,1.5-2.6,5.2-1.3,10.4c0,0-5.7-1.7-10.7-1.4c-0.3,0-0.5,0.3-0.5,0.6c0.1,1.7-0.2,6.9,1.5,12.8c0.1,0.2-0.1,0.5-0.3,0.6 C888.3,88.5,884.5,92,883.1,92.9z"/>
</g>
</defs>

<g transform="translate(-740 0)">
<g clip-path="url(#clp)">
<g id="a1">
  <use xlink:href="#f3" transform="rotate(0 882 231)"/>
  <use xlink:href="#f4" transform="rotate(0 981 226)"/>
  <use xlink:href="#f5" transform="rotate(0 917 228)"/>
  <use xlink:href="#f7" transform="rotate(0 976 143)"/>
</g>
<g id="a2">
  <use xlink:href="#f3" transform="rotate(1 882 231)"/>
  <use xlink:href="#f4" transform="rotate(1 981 226)"/>
  <use xlink:href="#f5" transform="rotate(1 917 228)"/>
  <use xlink:href="#f7" transform="rotate(1 976 143)"/>
</g>
<g id="a3">
  <use xlink:href="#f3" transform="rotate(3 882 231)"/>
  <use xlink:href="#f4" transform="rotate(3 981 226)"/>
  <use xlink:href="#f5" transform="rotate(3 917 228)"/>
  <use xlink:href="#f7" transform="rotate(3 976 143)"/>
</g>
<g id="a4">
  <use xlink:href="#f3" transform="rotate(6 882 231)"/>
  <use xlink:href="#f4" transform="rotate(6 981 226)"/>
  <use xlink:href="#f5" transform="rotate(6 917 228)"/>
  <use xlink:href="#f7" transform="rotate(6 976 143)"/>
</g>
<g id="a5">
  <use xlink:href="#f3" transform="rotate(9 882 231)"/>
  <use xlink:href="#f4" transform="rotate(9 981 226)"/>
  <use xlink:href="#f5" transform="rotate(9 917 228)"/>
  <use xlink:href="#f7" transform="rotate(9 976 143)"/>
</g>
<g id="a6">
  <use xlink:href="#f3" transform="rotate(12 882 231)"/>
  <use xlink:href="#f4" transform="rotate(12 981 226)"/>
  <use xlink:href="#f5" transform="rotate(12 917 228)"/>
  <use xlink:href="#f7" transform="rotate(12 976 143)"/>
</g>
<g id="a7">
  <use xlink:href="#f3" transform="rotate(14 882 231)"/>
  <use xlink:href="#f4" transform="rotate(14 981 226)"/>
  <use xlink:href="#f5" transform="rotate(14 917 228)"/>
  <use xlink:href="#f7" transform="rotate(14 976 143)"/>
</g>
<g id="a8">
  <use xlink:href="#f3" transform="rotate(15 882 231)"/>
  <use xlink:href="#f4" transform="rotate(15 981 226)"/>
  <use xlink:href="#f5" transform="rotate(15 917 228)"/>
  <use xlink:href="#f7" transform="rotate(15 976 143)"/>
</g>
</g>
</g>

<style>
/* <![CDATA[ */

#a1 {animation-name: a1}
#a2 {animation-name: a2}
#a3 {animation-name: a3}
#a4 {animation-name: a4}
#a5 {animation-name: a5}
#a6 {animation-name: a6}
#a7 {animation-name: a7}
#a8 {animation-name: a8}

@keyframes a1 {0.00%, 93.33%{visibility: visible} 6.67%, 100.00%{visibility: hidden}}
@keyframes a2 {6.67%, 86.67%{visibility: visible} 13.33%, 93.33%{visibility: hidden}}
@keyframes a3 {13.33%, 80.00%{visibility: visible} 20.00%, 86.67%{visibility: hidden}}
@keyframes a4 {20.00%, 73.33%{visibility: visible} 26.67%, 80.00%{visibility: hidden}}
@keyframes a5 {26.67%, 66.67%{visibility: visible} 33.33%, 73.33%{visibility: hidden}}
@keyframes a6 {33.33%, 60.00%{visibility: visible} 40.00%, 66.67%{visibility: hidden}}
@keyframes a7 {40.00%, 53.33%{visibility: visible} 46.67%, 60.00%{visibility: hidden}}
@keyframes a8 {46.67%{visibility: visible} 53.33%{visibility: hidden}}

/* ]]> */
</style>
</svg>
